<?xml version="1.0" encoding="utf-8" ?>
<svg baseProfile="full" height="300mm" version="1.1" viewBox="0,0,200,300" width="200mm" xmlns="http://www.w3.org/2000/svg" xmlns:ev="http://www.w3.org/2001/xml-events" xmlns:xlink="http://www.w3.org/1999/xlink"><defs /><rect fill="#222222" height="300" width="200" x="0" y="0" /><text fill="#FFFFFF" style="font-size:12px; font-family:Arial; font-weight:bold;" x="10" y="20">Over 10km Runs</text><text fill="#FFFFFF" style="font-size:4px; font-family:Arial" x="10" y="280">ATHLETE</text><text fill="#FFFFFF" style="font-size:9px; font-family:Arial" x="10" y="290">L&amp;W</text><text fill="#FFFFFF" style="font-size:4px; font-family:Arial" x="120" y="280">STATISTICS</text><text fill="#FFFFFF" style="font-size:3px; font-family:Arial" x="120" y="285">Number: 13</text><text fill="#FFFFFF" style="font-size:3px; font-family:Arial" x="120" y="290">Weekly: 1.2</text><text fill="#FFFFFF" style="font-size:3px; font-family:Arial" x="141" y="285">Total: 321.3 km</text><text fill="#FFFFFF" style="font-size:3px; font-family:Arial" x="141" y="290">Avg: 24.7 km</text><text fill="#FFFFFF" style="font-size:3px; font-family:Arial" x="167" y="285">Min: 10.4 km</text><text fill="#FFFFFF" style="font-size:3px; font-family:Arial" x="167" y="290">Max: 50.7 km</text><polyline fill="none" points="30.261437908484368,48.81718669162001 30.005228758163867,48.65204695088869 29.71241830063809,48.312590073061074 28.73464052285999,49.254496627860135 28.611764705870883,49.2208576371504 28.013071895416942,48.74379136790958 27.87973856208555,48.78354719141498 27.667973856194294,49.147463339551905 27.461437908481457,49.352355287113824 27.45620915031759,49.47162007965926 27.905882352919434,49.994544508830586 28.13594771240605,50.43489457796204 26.988235294105834,51.14127545506199 27.103267973841866,51.42259982460928 27.281045751617057,51.67028531623146 27.312418300643913,51.8782171751991 25.709803921563434,52.728275969991955 25.579084967292147,52.90562321174366 25.586928104559775,53.079911681528756 26.287581699332804,55.2263255596481 26.27450980390131,55.32110654140888 25.13464052285417,55.80723636696894 24.89934640521824,55.95704831221519 21.281045751617057,57.62632886765459 19.5346405228629,58.24081995343295 18.83921568626829,58.63518794547417 18.243137254889007,59.23742945598133 17.905882352919434,59.766291093210384 17.686274509804207,60.27985845049625 17.16078431371716,61.84495983316265 15.968627450973145,61.664610673306015 15.124183006526437,61.667667448100474 15.001307189537329,61.62792935055404 13.003921568611986,61.563736923746546 12.415686274500331,61.413954040146564 12.39999999999418,61.49954435437576 12.71372549017542,61.606531890785845 12.546405228742515,61.64321324069533 12.912418300635181,61.5973615460407 12.928104575155885,61.67072422257479 13.202614379071747,61.69517840670778 15.21568627448869,61.78993817484843 15.905882352933986,61.76854083500075 17.388235294100014,62.03447807688099 17.709803921563434,62.220938362201196 18.227450980382855,62.68861214743629 19.01437908495427,64.00600547313297 19.226143790830974,64.16494446154138 19.35163398690929,64.13132282532206 20.742483660113066,63.27242958917486 21.584313725470565,62.95454092581895 23.027450980385765,62.96676747750462 23.471895424823742,62.917861239746344 24.01830065358081,62.777255345357844 25.01437908495427,62.28818603887157 25.615686274511972,62.101726187293025 25.61307189540821,61.91220838443951 26.928104575155885,61.23054537058306 26.980392156838207,61.236659011645315 26.964705882346607,61.41701084145279 26.89150326795061,61.545396204186545 27.124183006526437,61.245829470819444 27.51633986926754,60.958487034038626 29.623529411750496,60.285972292645965 30.760784313708427,59.381109586534876 32.9176470588136,58.610731172258966 35.11111111109494,58.09713415360238 35.23137254900939,58.11547706145211 35.39607843135309,58.02987672522613 36.99346405228425,57.67524405963377 38.23790849672514,57.61410005671496 38.9176470588136,57.64772927433114 39.147712418285664,57.60798564931429 39.87973856208555,57.34812213857185 40.43398692809569,57.04239736922682 40.78431372548221,56.92010655576087 41.328104575150064,56.85284638773919 41.71241830063809,56.73666936511472 51.226143790845526,54.831911038145336 53.35163398690929,54.26626841079815 55.5032679738506,53.57219448608521 55.4588235294068,53.14718063418695 55.369934640519205,52.841411405144754 55.430065359469154,52.75273772324363 55.34117647058156,52.26655649126769 55.37516339868307,52.223747688876756 55.59999999999127,52.183996601273975 55.59999999999127,52.26655649126769 55.48496732025524,52.35523166580242 53.769934640513384,51.42259982460928 53.18169934640173,51.58466588034753 52.8732026143698,50.92416455715647 52.324183006523526,51.10152287751043 52.19346405226679,51.21160680437242 52.143790849659126,51.38896335944264 52.2562091503205,51.8629281189169 51.51111111108912,52.07391638083209 51.33071895423927,51.66416965065764 50.80522875816678,50.08628466032678 50.6614379084931,50.09240066007624 49.70196078431036,50.474648073179196 49.65490196077735,50.44406846633501 49.51633986926754,49.95479035267272 48.85490196077444,50.16273456394265 48.786928104556864,50.037356615810495 48.562091503248666,48.719326218546485 48.53333333332557,47.070939025226835 48.47843137253949,46.28799859522587 48.39738562091952,45.90569574724941 47.94248366012471,44.593593861483896 47.803921568614896,43.96963637317822 47.6705882352835,43.83505553846044 45.6392156862712,44.27549957263909 45.07973856208264,44.351964866016715 39.586928104574326,44.336671823552024 38.77647058822913,44.39172673850044 38.27712418300507,44.50489484497848 37.3830065359507,44.81381093082018 35.2784313725424,45.66713620451446 33.97908496730088,46.48373569355135 33.7150326797273,46.685588186086534 33.67581699344737,46.807922343114114 33.667973856194294,47.10152220482814 33.746405228739604,47.57861561160826 33.74379084966495,47.88138233802056 33.607843137244345,47.89973173454564 32.16209150325449,48.749907652010734 32.065359477113816,48.66733770730934 31.77777777776646,48.19637869332655 30.907189542485867,48.86305867420924 30.062745098024607,47.99759498569256 29.798692810436478,48.19637869332655 29.722875816965825,48.312590073061074 30.002614379074657,48.645930646054694 30.33725490195502,48.8875237017819 30.167320261432906,48.99455795369067" stroke="red" stroke-linecap="round" stroke-linejoin="round" stroke-width="0.5"><title>2022-09-17 41.4km</title></polyline><polyline fill="none" points="79.98566438962007,34.328138532953744 79.99957611504942,34.42047009978705 91.64369027575594,33.13867576454868 92.91429452903685,32.55208117852453 93.42902836890426,32.39999999999782 94.96859264661907,32.86167360581385 95.04742575722048,32.94314498505264 95.0937981751922,33.301617508535855 95.23755267102388,33.388519559255656 95.40449337585596,33.3287744152658 95.45086579385679,33.030047646207095 95.58070856425911,32.954007825785084 99.40179580776021,32.64984741110311 101.72969119151821,33.871909515601146 106.67762819252675,36.305083816641854 108.54179939624737,37.80946614828281 111.72758451310801,38.70555729741318 112.8683459959866,39.129158546955296 112.98891428278876,39.335527113122225 112.74314046738436,39.72653895075564 113.08165911881952,39.998073187092814 113.20686464742175,39.99264251651039 113.71232400365989,39.416988159617176 115.31680966657586,39.97635050132885 117.37574502592906,42.47982918674097 117.48240158736007,43.962308588044834 117.9090278329968,44.67909637866978 118.59070237763808,46.628491070161544 119.57843488111394,49.89722548026839 120.32966805278556,50.527057242856245 119.5598859139136,51.98215610167608 119.62944454094395,52.67168474333448 120.2369232167548,53.936701279923 119.94941422514967,56.26576997512166 118.82256446764222,57.76956445347969 118.53969271783717,57.894426265065704 118.49332029983634,58.231008759226825 116.27671871928032,62.04183655336601 114.94119308076915,64.18598083997495 115.0895848183718,64.53337802982423 114.12967576569645,65.28244518680731 112.6272094223823,66.16719877708965 112.03364247191348,66.60685590907087 110.04890298139071,71.24202327871535 106.58952059832518,74.12386516587503 104.6604280093743,75.56201176995455 104.45638937014155,75.59999999999854 103.4964803174662,74.27039516065634 102.9260995760269,74.11301107548206 103.00029544482823,74.05874058898553 102.9260995760269,73.59201202788245 103.47329410846578,73.22296782459307 103.59386239526793,73.04929904272649 103.25534374386189,72.08325567916108 102.63859058439266,69.64092982989678 102.50874781399034,69.59750964830891 99.44353098393185,70.38449471726199 98.8870619678928,70.33022027380503 98.51608262388618,70.16196913290332 97.31967423937749,69.27185711118727 96.28093207610073,68.05064162403869 93.32237180747325,65.2878731696328 89.47809835497173,61.195010488787375 87.68812302002334,56.52092955653643 87.69276026185253,56.04318291669915 88.04519063868793,55.02795647484891 88.11474926566007,54.56648324160051 87.3727905776177,52.981155202265654 86.68184154937626,48.13799907068096 84.99852277582977,44.918023406313296 84.1499075263564,39.558186998918245 82.24400114640594,36.055254298953514 81.9286687039712,34.154337483432755 79.99493887324934,34.37158870286294 79.86509610284702,34.27925704760855 79.67033194721444,33.81759626567509" stroke="#ff8d00" stroke-linecap="round" stroke-linejoin="round" stroke-width="0.5"><title>2022-09-10 28.4km</title></polyline><polyline fill="none" points="185.368196322961,33.496313461517275 185.3950592859619,33.450925411176286 185.14732307162194,33.21700139142558 185.03091689864232,33.18557863543174 184.76228726864792,32.86087506946933 184.6727440586401,32.83294343051966 183.54449961264618,33.88385503878453 182.6938391176518,33.199544308459735 182.36551401430916,33.76864045119146 182.14762553664332,33.97812122003597 181.81930043330067,34.12824828552402 179.9597864389798,34.54371264685324 179.6195222409733,34.700819654430234 178.41964322698186,35.39906396326842 177.3093074229837,36.5162240994905 175.3572654449963,37.685710563640896 165.63585761266586,49.207299197609245 164.27778559434228,52.20832499143944 163.88976501768047,52.79802938404828 163.36444485234097,53.297001797298435 161.9944337393681,54.23909698346324 161.50791563169332,54.52172029792564 161.11691028134373,54.59499261421297 160.743813573019,54.5461444214161 160.12596542401297,54.2739888815704 159.86032056767726,54.78689552920332 159.78868599969428,54.818297718196845 159.3469394970307,54.62988413625135 158.66342632735905,54.4275127952169 157.98588270503387,53.89366520290787 157.77694854835863,53.84132673910062 156.81883620136068,54.97181910123982 156.35321150935488,55.32770683507624 155.66074401869264,55.659167451351095 155.04289586971572,55.79175076633692 153.55946335737826,55.83013004764871 153.49678311037133,55.805706873794406 153.32963578503404,55.5475179311361 152.75357446736598,55.75686047189811 152.46703619537584,55.79175076633692 152.18049792337115,55.742904343787814 151.98648763504752,55.910377491716645 151.6551777580462,56.00109175890975 151.46116746970802,55.93828960047176 151.28506582336558,56.06040479887815 151.01942096704443,56.13716269248107 150.91793866237276,56.19996447273297 150.92390820971923,56.30114486749153 150.843319320702,56.38139116706225 150.1359279617027,56.87682052474702 149.71507487472263,57.396664466265065 149.44047569738177,57.90254501044183 149.17483084104606,58.007208983268356 149.06140944169601,58.247934862181864 148.99574442104495,58.60727602608313 149.09125717837014,58.79915562910537 149.08528763105278,58.959635895706015 148.88829256904137,59.29454872336282 148.94798804237507,59.741093878434185 149.01962261038716,59.95040984202933 149.73596829037706,61.06325077964357 150.02847610971367,61.73303039039092 150.06429339370516,62.0086128501498 149.92997857871524,62.44814467513788 149.9896740520344,62.6190721392195 150.2553189083701,62.92952996562963 150.33292302369955,63.271379029505624 150.3150143817038,63.53648403210536 150.56275059604377,63.8783268171901 150.5388724067161,64.74687064067984 150.4612682913721,64.88988169199729 150.23442549271567,65.02242796748033 150.41649668636092,65.11311721810489 150.37769462871074,65.50028775831743 150.24934936103818,65.7758388035727 150.21353207703214,65.99558039571275 149.9031156156998,66.22578430630529 149.84640491605387,66.42110757918272 149.65537940137438,66.66874792649833 149.61359257005097,66.66874792649833 149.55389709671726,66.52923246606224 149.45838433937752,66.56062349599961 148.68234318603936,67.39770663088711 148.7778559433791,67.60697410247303 148.3301398933836,68.02899280716883 148.18090121004207,68.23128085463395 147.96898227970814,68.34637522569392 147.96599750604946,68.50680913497126 147.7451242547104,68.74397087904435 147.3750123200589,68.89742757157364 147.21084976838029,69.0369330375579 147.22278886305867,69.1624874536501 147.04370244305755,69.31594220355692 146.8287987390504,69.65772522305997 146.7929814550589,69.93324161568307 146.7153773397149,69.90185378810202 146.74522507638903,70.08669278827074 146.64075799804414,70.18434316365165 146.6049407140381,70.3587181166622 146.67359050837695,70.57494178121487 146.89446375971602,70.74233977623226 146.91834194905823,70.90276205955524 147.04370244305755,71.13990661792559 146.76313371838478,71.43633492423396 147.2854691100365,72.1651885191568 147.37799709371757,72.22795984775803 147.45560120904702,72.38837492397215 147.69438310238183,72.6429450780779 147.94510409038048,72.6917665275214 148.0018147900555,72.83474321484755 147.91525635370635,72.93238547537476 148.13612960504543,73.19392582434375 148.36894195104833,73.11372033721273 148.37789627205348,73.16951547928693 148.28835306204564,73.2218233394924 148.27342919370858,73.30551574373385 148.41371355605952,73.45895126811956 148.60772384438314,73.50079719667337 148.64652590203332,73.5914631935957 148.62264771270566,73.7553587880393 148.81665800104383,74.01340552473266 148.95992713705346,74.0726862474221 149.21064812503755,74.03432814487678 149.21064812503755,74.17729902828432 149.32108475071436,74.45626482626903 149.72402919571323,74.97234534990275 149.77477034805634,74.99326736346484 150.004597920386,74.86424806906143 150.1239888670534,74.95491032849895 150.15682137738622,75.115312178772 149.98370450470247,75.22340863913269 149.80163331104268,75.42565268074031 149.85535923702992,75.59999999999854 149.798648537384,75.43262659115499 150.15980615105946,75.0804422774927 150.11204977237503,74.95142332312025 149.86132878437638,74.63410429438954 149.6583641750476,74.16683776508216 149.5300189073896,74.07966044311615 149.2972065613867,74.26098901472506 149.2196024460427,74.17729902828432 149.21064812503755,74.02735393962939 148.953957589707,74.05873785165022 148.84053619038605,74.01340552473266 148.63160203372536,73.7414102584371 148.63458680738404,73.52172014110329 148.40774400871305,73.43454111867686 148.28835306204564,73.31249010119063 148.36894195104833,73.10325873758848 148.18687075738853,73.1904386333008 148.115236189391,73.17648986542918 147.92122590103827,72.93238547537476 148.0018147900555,72.81730706656163 147.95405841138563,72.70222825731616 147.69139832872315,72.63248332953663 147.46455553003761,72.40232402425681 146.7691032657167,71.42587279395957 147.04668721671624,71.13641921027374 146.91237240171176,70.90276205955524 146.89446375971602,70.73187742637674 146.69746869771916,70.58889164650463 146.6109102613991,70.37615556137825 146.64971231904929,70.19480568676954 146.75119462372095,70.08320526953685 146.73030120805197,69.91231640060505 146.80492054972274,69.92277900980844 146.84073783372878,69.65075009471911 147.04370244305755,69.31942980323947 147.23771273138118,69.14156175074459 147.29143865739752,68.97066801461551 147.76303289670614,68.73699555792336 147.9570431850443,68.51029682001172 147.98987569537712,68.33939982066659 148.17194688903692,68.23476856873094 148.44057651904586,67.91738507868286 149.02857693137776,67.36631639587722 148.92112507937418,67.4430480288247 148.80471890638,67.2826089568116 149.45539956571884,66.57108716601942 149.5479275493708,66.53969614602465 149.61359257005097,66.6652600471607 149.6792575907166,66.65828428739405 149.84342014238064,66.44901080966156 149.91505471037817,66.22927223200895 150.2195016243786,65.98162859203148 150.38366417604266,65.50028775831743 150.44335964937636,65.07474871935847 150.25233413471142,65.06428457561924 150.2403950400476,65.01545186097428 150.4463444230496,64.9212742789714 150.54484195403347,64.76779912586426 150.55976582237054,63.88879133645969 150.3150143817038,63.519042978874495 150.29412096604938,63.01324843071052 149.81058763203328,61.18534703315163 149.01663783671393,59.932966895710706 148.9509728160483,59.69923052655213 148.89426211638784,59.29454872336282 149.10319627304852,58.90730545965562 149.09125717837014,58.78520078647125 148.99574442104495,58.649140761812305 149.07633331004763,58.20606961796511 149.1867699357099,58.00023139539553 149.44943001837237,57.90603381487381 149.71209010103485,57.40015332413168 150.12100409338018,56.89077617369185 150.88510615203995,56.353479432804306 150.93286253070983,56.18600853188036 151.27611150236044,56.063893797916535 151.45519792236155,55.94526762397436 151.64025388970913,56.00458076420546 151.86411191470688,55.94875663517087 152.0252896926977,55.892932411770744 152.1894522443763,55.73592627753533 152.46106664804392,55.79175076633692 152.8520719983644,55.73592627753533 153.34157487969787,55.53705076925689 153.48185924203426,55.38353201395512 153.60423496236035,55.34166313864989 153.93852961302036,55.282348807755625 154.2011896956974,55.34864128821573 154.55936253569962,55.30328328964242 155.08468270103913,55.09044877200722 155.62791150837438,55.06253594664304 155.77715019168681,54.99275377998856 155.89952591202746,55.55100698435126 156.0636884636915,55.4986711473357 155.9263888750429,54.45542615736849 156.09652097403887,54.46589366209082 156.85465348535217,54.123953458136384 157.14716130468878,54.22165102058716 157.29639998803032,54.01578796252579 157.9142481370218,53.57265465214368 158.32316212935257,53.13300470318791 158.40673579201393,52.82594412378603 158.64253291169007,52.53981692263915 158.90220822069386,52.51539131497702 158.98876665702846,52.45258252659187 159.00369052535098,52.089684965176275 159.1290510193503,51.89776637296018 159.4394674806972,51.587204833052965 159.56781274836976,51.234766288067476 159.80957941536326,50.9311775942042 160.01254402469203,50.4391486093009 160.4572753010143,50.055291117110755 160.44832098000916,49.821484820742626 160.9855802400125,49.5213728190829 160.99751933469088,49.4341304462323 160.92886954035203,49.25964500872942 161.15272756536433,48.81295808546565 161.02438229769177,48.51632671026891 161.31689011701383,47.9405052535767 161.4273267426761,47.83231949517358 161.3974790060165,47.675275021265406 161.57358065235894,47.284405530415825 161.66013908869354,47.24252638181133 161.9884641920071,46.589902782197896 162.08994649667875,46.54453274732805 162.17650493301335,46.41191228772368 162.20635266968748,46.31070157838985 162.12874855435803,46.16761004584987 162.2272460853419,45.75578217231305 162.3645456740196,45.53590586398059 162.32574361635488,45.326498493846884 162.3645456740196,45.17991254399749 162.05114443901402,44.167753688801895 161.75266707236005,43.483656325377524 161.73177365667652,43.3196104612216 161.29898147501808,42.45748368154091 160.8632045196864,42.003723694844666 160.77963085702504,41.74193624781037 160.65128558935248,41.53599532941735 159.65138641103113,40.408533275785885 159.61556912702508,40.279378815550444 159.12606624569162,39.79068168593949 159.05741645136732,39.80464456156551 159.05443167769408,39.870968140054174 159.14994443503383,39.83606101009718 159.05741645136732,39.67897846814594 158.4127053393604,39.05413161621982 158.35599463968538,39.03667762357509 158.26943620335078,39.11347512210705 158.2992839400249,39.02271442280471 157.65755760169122,38.36992818798535 157.40982138735126,38.25822015780068 157.1770090413629,37.4797443150419 157.27550657236134,37.043370894014515 157.7590399063629,36.59302746822141 158.19183208802133,36.28232182901775 158.86639093668782,35.98208663200057 159.06935554603115,35.838950284975 159.35887859169452,35.8180034503639 159.80957941536326,35.65741060950677 159.9080769463617,35.54918455815641 160.06626995067927,35.496816986407794 160.18267612367345,35.55965806252789 160.2364020496898,35.461905225707596 160.61248353168776,35.43048460946011 160.7617222150293,35.318766620301176 161.2094382650248,35.214030661627476 163.09879999600525,35.231486677850626 163.14655637467513,35.406046331678226 163.74052633433894,35.406046331678226 164.04497324835393,35.24894268481876 164.74341028634808,35.318766620301176 165.21500452567125,35.31178423340316 165.46871028735768,35.42001106405951 166.13729958869226,35.27338107905962 166.30146214034176,35.27687227675415 166.51636584433436,35.37462566219983 167.21480288234306,35.318766620301176 167.42373703900375,35.23846908174528 167.50432592800644,35.14071529258945 167.7251991793455,35.137224080481246 168.13112839800306,34.9417156119016 168.3549864230008,34.92076820721195 168.97283457199228,34.71478468553323 169.26534239134344,34.51927371171769 169.799616877659,34.31677898074486 169.93393169266346,34.159670142929826 170.85622675566992,33.625494493509905 171.25021687966364,33.342692115849786 171.48004445200786,33.24842411746067 171.83821729199553,32.98656715186371 172.08595350632095,32.89578958487982 172.25011605799955,32.951652732605 172.4411415726645,32.84690925295581 172.533669556331,32.72121663800863 172.6799234659993,32.69328488071551 172.66798437132093,32.39999999999782 172.7426037129917,32.68630193768695 173.2141979523294,33.21700139142558 173.34254321998742,33.20303572578996 173.60818807632313,32.96561850474609 173.90069589565974,33.199544308459735 175.15430083566753,33.932733833087696 175.90646379966347,34.55767774450578 176.1362913719786,34.508799876821286 177.1093275873136,33.78260587718978 177.20782511832658,33.75816637779644 178.38382594297582,35.38160803577557 178.7479683303245,35.25941628457076 179.9478473443014,34.603064271046605 180.68210166631616,34.45293936787493 182.0819605159777,34.07238713172774 182.30581854097545,33.89782041597937 182.79532142230892,33.206527142760024" stroke="red" stroke-linecap="round" stroke-linejoin="round" stroke-width="0.5"><title>2022-09-03 50.7km</title></polyline><polyline fill="none" points="54.891499624820426,97.50170821036954 54.83593096793629,97.56671197355172 53.67825061635813,96.68915419806217 52.51130882193684,96.32079212544704 52.233465537574375,96.58622976846164 51.98340658162488,96.50497349346915 51.09893879300216,97.31211342909228 50.08481080501224,98.06507141270049 49.066052095615305,97.29044540932591 48.70948654730455,96.87333423921882 48.454796869977145,96.840831927213 46.861828706169035,97.90256343359215 42.5784114052949,101.0822090904694 42.42559759886353,101.00095995916126 40.80021438526455,99.13219431194375 40.466802443988854,99.26219761046377 39.522135277074995,100.06387731535142 38.01252009862219,99.16469516756479 37.878229177818866,99.21886321435159 37.53555579375825,99.58178764783952 37.34569621607079,99.65220552313986 36.54921213418129,98.84510252356995 36.257476685597794,98.93177191253562 36.16023153605056,99.0996934356699 35.826819594803965,99.28928158940471 35.572129917447455,99.18094558762095 35.09516561261262,99.38136701045732 33.79393289741711,100.25887858661372 32.265794833307154,101.12012530758511 32.06204309142777,101.3801214676605 31.12663736732793,101.7376140296983 30.821009754523402,101.97594101619688 29.76520527387038,102.33342941371666 29.37622467573965,102.38217763795546 28.913152535096742,102.63675094307837 28.459341837267857,102.68549887825066 28.311158752272604,102.84257524215718 27.973116089618998,102.96173629990881 26.94046521600103,103.02673312348634 26.435716582695022,102.87507373998596 25.30582055952982,103.11339542645146 24.91220923999208,102.94548708111324 23.04602851322852,102.8534080770587 22.74966234320891,103.04839871300646 22.52275699429447,103.10256264661803 20.767713581270073,103.09714625583001 19.97586022078758,102.76674533361438 18.980255118425703,102.74507962478674 18.077264444174943,102.9184050383119 17.896666309359716,103.09172986447811 17.1789044913603,103.17839205732162 17.10481294884812,103.32463417479448 16.965891306637786,103.20547396247275 16.683417300897418,103.30838507128647 16.539864937280072,103.46004317000916 15.854518169129733,103.70377845809708 15.391446028486826,103.74710905437678 15.090449137089308,103.95834518566335 14.067059706285363,104.40247984726375 13.252052738767816,104.98201561907626 12.613013184687588,105.59404159577025 12.529660199361388,105.75110902855158 12.437045771250268,106.32521347318834 12.700996891391696,107.33258872038277 12.784349876717897,107.5113145150026 12.946425125934184,107.27842926539233 12.793611319502816,107.53839412638627 13.048300996859325,107.67920787455296 13.122392539371504,107.64129651894473 13.05293171829544,107.67920787455296 12.427784328407142,106.2548047841592 12.39999999999418,106.45519849067205 12.478722263884265,106.69891950831152 12.525029477954376,106.67183945256693 12.432415049814153,106.31979742363546 12.571336692024488,105.69694789930873 13.19185336047667,105.09033933409592 14.025383213622263,104.4620585939083 15.104341301310342,103.99625927073066 15.44701468537096,103.7633580185211 15.831364562123781,103.74710905437678 16.507449887430994,103.5087903205349 16.924214813974686,103.24338860559146 17.114074391662143,103.33546690759977 17.1789044913603,103.20005758259504 17.804051881219493,103.14047736602151 17.993911458877847,102.98340191695024 18.947840068576625,102.79382745670227 19.892507235490484,102.78299460917697 20.64268410333898,103.09172986447811 21.52252117052558,103.14589375220748 22.624632865248714,103.11881181551507 23.115489334333688,102.86424090967193 23.967542073107325,102.96715270503773 24.95388573265518,102.96173629990881 25.3382356093789,103.12964459191426 26.3847786472179,102.91298862801705 26.95898810159997,103.07548068696997 27.977746810996905,102.9996511237041 28.325050916464534,102.8534080770587 28.47323400148889,102.70174817963925 28.769600171479397,102.72341390680958 29.41790116840275,102.3875941044389 29.78372815946932,102.37134470325327 30.524643584503792,102.1330195592127 30.862686247186502,101.9976070508128 31.20072890984011,101.7430305644557 31.867552792362403,101.51011905206542 32.09908886268386,101.38553804027106 32.23801050486509,101.19054106477415 33.275292099890066,100.60554567743748 35.122949941054685,99.40303414426671 35.55823775322642,99.22428001586741 35.84534248043201,99.30553196986875 36.32230678529595,98.93177191253562 36.62793439810048,98.9101045790776 37.36421910172794,99.69012280046809 37.55407867938629,99.65220552313986 37.93842855611001,99.32719913579058 38.27647121876362,99.62512173642244 40.346403687406564,100.81679478364458 41.61985207418911,101.81886199076689 41.87454175151652,101.70511480914138 46.79236788509297,98.12465754230652 46.91276664167526,98.22757887533953 48.81599313966581,101.65636593956515 51.071154464560095,101.03887623650371 51.450873619905906,100.74096187154646 52.015821631473955,99.89054222781851 52.14548183084116,99.91762587396079 53.270747132599354,100.80054488336827 53.61342051665997,100.62721229257659 55.123035695112776,99.13761112264183 55.23880373031716,99.1701119748177 55.54443134312169,99.51136967556158 55.60000000000582,99.4897025876744" stroke="#ffb700" stroke-linecap="round" stroke-linejoin="round" stroke-width="0.5"><title>2022-08-08 21.7km</title></polyline><polyline fill="none" points="102.73335829278221,100.24578559830843 101.90849868961959,99.4417282377326 101.50415574689396,99.22415853105485 100.8167727443215,98.45793056112598 100.58225383755052,98.39171302055183 97.75994009734131,101.15388873630582 97.43646574317245,101.22956358100055 93.80546611754107,98.29711644882627 92.09913889929885,96.76463802665239 90.11785847999272,95.28889320861344 89.3253463122528,94.43749087356991 88.62178959188168,94.69291242645704 78.39999999999418,102.11873820357869 78.68304005992832,102.09981968678039 80.17910894798115,100.9647013439826 80.46214900785708,100.95524196384213 85.71052040436189,108.35217132714752 86.17955821790383,108.2954197251529 87.48154249344952,107.6995257275994 90.3847248221573,105.8645255932206 91.15297641334473,105.51454706049117 93.04530138528207,108.47513300774153 93.38494945713319,109.33586003313394 94.6303257207037,111.4261625703075 96.9350804942078,110.25332915996842 96.5711718457751,109.13723145565746 96.00509172593593,108.13462332377094 96.04552602022886,107.98328526979458 97.937850992108,106.96174669946049 99.32070385623956,105.9685730006604 99.52287532761693,106.01586723670334 100.54990640209871,107.33063697518082 100.89764133284916,107.44414136895648 106.49374766007531,103.02682229869242 108.5235492325155,101.91063429814676 112.42141520028235,99.41334961040411 117.56465743167792,97.54034026781301 121.60000000000582,96.537601949698 120.57296892549493,95.26997324493277 114.09539498318918,92.5738374296925 112.70445526021649,93.51039909850806 112.1302882815653,93.7185225797657 111.4348184200644,94.58885188199201 109.71231748411083,95.9037898466122 109.55866716583841,96.21596651925938 104.02725570945768,100.349839551287 102.89509546983754,99.11064369107771 102.45840509174741,98.80793674573215 101.83571695993305,99.41334961040411 102.71718457507086,100.349839551287 102.70909771622973,100.56740651567816 102.59588169222116,100.5201093945725" stroke="#4dd2ff" stroke-linecap="round" stroke-linejoin="round" stroke-width="0.5"><title>2022-07-31 12.6km</title></polyline><polyline fill="none" points="145.02441993152024,101.45900026281379 145.0764549258165,101.44938970892144 145.0764549258165,101.39492984587923 144.76698364395997,101.10981484469994 144.65195891974145,101.05535437021899 144.40821605172823,100.78625411568828 144.39999999999418,100.71897867794178 144.61909471280524,100.54598400800205 145.18052491440903,101.09700062423508 145.8487637884973,101.85623381857295 146.84016736400372,103.11517344455751 148.32179535944306,105.16844602287892 148.77093952072028,105.57844320107142 149.14887790032662,105.82507945233738 149.57611259032274,106.02366821958276 152.2928870292817,106.85644563157803 152.40243438568723,106.81801025549612 152.4544693799835,106.68989198267082 152.46542411562405,105.96281051006918 152.5147204260138,105.89234353560278 154.5413465195743,105.58805244330142 154.90011411182059,105.56563087334689 154.92476226702274,106.12616513788453 154.96584252564935,106.16460139273477 155.7408900722512,105.97562266960631 157.69083301634237,105.80265805802446 158.12354507416603,105.73859683986302 158.36728794217925,105.66172319904035 158.43575503992906,105.59445860309643 158.5809052871773,105.62969245771455 159.07112970709568,105.559224707451 159.12042601748544,105.49195988364954 158.9615823507047,105.12680537368396 158.9999239254248,105.05633645218222 159.39977177632682,104.99227365384832 159.73115252946445,105.17805539532128 160.19399011030328,105.15883664737885 161.74134651958593,104.73922427430989 161.91388360592828,105.22610221176728 161.51129707111977,105.3638359960496 161.52772917458788,105.5528185401945 161.56333206541603,105.62969245771455 161.6208444275253,105.63930168366642 163.1736782046355,105.16524289805238 163.15724610118195,104.96985164238504 162.965538227465,104.39327992585459 163.65568657283438,104.24272883518279 164.47455306199845,103.94482766063084 164.4334728033282,103.90318532727906 164.49920121718606,103.75903834611745 164.3102320273756,102.82366791276763 164.44990490681084,102.69232933764579 164.99764168885304,102.48731188541387 165.11814378089912,102.4937187018295 165.33449980980367,103.4483191841282 165.45500190184976,103.67254982774648 165.7781666032679,103.64372026668025 166.08216051731142,103.53801164102515 166.616203879792,103.2176802167287 167.15298592619365,103.01586967777803 168.03210346138803,102.73076995524025 169.93275009508943,102.22783468021225 170.54895397488144,102.02281407970804 170.54073792316194,101.96515178544541 170.68041080258263,101.97476217545591 170.6037276530842,101.46540729703338 171.54035755038785,101.13864682091116 171.60608596423117,101.16427522112463 171.79231647013512,101.66082118905797 172.11000380371115,101.63198971060774 174.85142639785772,100.85673298521215 175.5360973754141,100.64209228014079 175.59634842144442,100.58442735351127 175.714111829584,100.59403818223836 177.16287561810168,100.22882454302999 177.42031190566195,100.12630764103051 177.65310003802006,100.14232592987355 177.83111449218995,100.0654380660344 182.15001901863434,99.16199102270548 182.2075313807436,99.08189689722894 181.52833777101478,98.1720127379067 181.39688094332814,97.63375851529418 181.4242677824077,97.57608785169214 181.5748953974835,97.50239739924655 182.19109927729005,97.31336454777374 182.30064663369558,97.31656850425497 182.78265500189445,98.15919727252913 183.1852415366884,98.64297732297382 183.43720045643568,98.89928149792104 183.71928489918355,99.09791573930124 186.44975275768957,98.37705944526351 187.03583111448097,97.97978018691356 187.1645492582611,97.94453741999496 187.59999999999127,97.61133104807959 187.1809813617292,97.93812963977689 187.03856979838747,97.97978018691356 186.48535564853228,98.36424406679726 185.88284518827277,98.55006652305929 183.87265119816584,99.03704409430611 183.7384556865727,99.1043232737411 183.34956257131125,98.81918667661739 182.82921262836317,98.22327454510196 182.25682769113337,97.30054871845459 181.42974515023525,97.56967999339759 181.33936858120433,97.39666730594217 181.38044883986004,97.58890356422853 180.03301635602838,97.91890629097725 179.78379612018762,97.23646949036993 179.66877139595454,97.14355436842197 177.49973373905232,97.7747307854479 176.56584252566972,98.12715858531374 176.4809433244518,98.08871211585938 176.21255230125098,97.6433702818631 176.02906047926808,97.62735066921232 173.8134651958826,98.42191322714643 171.84161278051033,98.76472207695224 170.88855077975313,99.17160230350055 169.2069988588628,99.6265327671208 166.01643210345355,100.73820024686029 166.1889691897959,101.84982686712283 166.13419551159313,101.97155871245559 162.63689615823387,103.27534012343312 161.98235070369265,103.4771489314262 161.04298212246795,103.65333012341398 160.3254469379899,103.70137936135143 158.17010270063474,103.69497280069663 157.811335108403,103.74942852295317 157.64153670596716,103.6885662386976 154.7467478128383,103.65653340832068 152.451730696077,103.73661542065202 151.79992392544227,103.89998206848759 148.50802586533246,105.08516466718174 148.40395587673993,105.02110192988584 148.02875618104008,104.52140792355021 147.1332065424067,103.14720684817439 145.38318752376654,101.03292944045643 144.76150627613242,100.41463554216898 144.61361734497768,100.47230079253677 144.42190947126073,100.65170309055429 144.40273868390068,100.76062539515078 144.668391023195,101.08418639833872 144.96416888548993,101.321248698614" stroke="#ff4e00" stroke-linecap="round" stroke-linejoin="round" stroke-width="0.5"><title>2022-07-24 38.4km</title></polyline><polyline fill="none" points="55.59163682120561,149.22879051662676 55.59999999999127,149.13585521786445 54.98530635947827,148.64182759547475 54.579692188533954,148.162469008912 54.98948794888565,147.69288842589594 54.94767205497192,147.45320482928946 54.65077920819749,147.13036373272917 54.08208305099106,146.60207343317234 53.31685219240899,146.08356040984654 52.635253121639835,145.82919340160151 52.17109669922502,145.73625126056504 51.35568676797266,145.28621298409416 50.79953537894471,144.84595390375034 49.84195140837983,143.8822610422758 49.419610879864194,143.31968992054317 48.675287968231714,142.07711723659304 47.993688897491666,141.2503475893718 47.19918691315979,140.5018392197053 46.69739618622407,139.84138057809832 46.11615526083915,139.317899237245 44.016997386483126,137.9773685471264 43.49429871261236,138.49108016493847 43.29776401122217,138.53511232325764 43.04686864775431,138.47151030331224 42.46980931176222,137.86484047690828 42.30254573610728,137.79145245720792 41.04388732938969,138.9705391827083 39.01163488527527,140.55076170610482 37.67352628012304,141.73467006676583 35.54509728001722,144.1023957020916 35.0516697318817,144.5573373395855 34.838408672920195,144.87041285168016 33.90591423869773,145.76070973686365 34.344981124741025,146.53359091476887 33.069596360466676,147.45809634369652 32.22909689284279,147.6097330333214 30.56482431515178,148.29942911282706 30.43101345465402,148.25540626658403 30.31811054107675,148.11355458764228 30.25120511080604,147.5363605037419 30.03376246248081,147.443421798911 28.532571871051914,147.56570952956827 27.537353595966124,147.72712883813801 27.63771174135036,148.9499840592871 27.49553770205239,147.72223735223815 26.717762075306382,147.83963287105144 25.83544671376876,147.86409023323722 24.543335591893992,148.07442301332776 24.760778240248328,148.61737064519548 24.78586777659075,148.99400624339978 24.484793340423494,149.0575937685935 24.38025360564643,149.19455121778083 24.020636918008677,149.17009456021697 23.828283806011314,149.06248511305603 22.519446326579782,149.05270242360712 21.402961959145614,149.15052922483665 20.800813086811104,149.267921112787 19.98540315554419,149.17009456021697 20.01467428127944,149.0869418276052 19.38743587261706,149.3706387699276 19.169993224277277,148.90107047216225 19.07381666827132,148.85215683323258 18.459123027787427,149.00868029545381 17.67298422224121,149.419551859708 16.19270157777646,150.30976104241563 15.272751911717933,150.75485919923085 13.738108605175512,151.81133874913576 12.734527151289512,151.5716765259931 12.68016648919729,151.9727432190557 12.533810860521044,152.2221853813935 12.621624237726792,152.68682895482198 12.554718807470636,152.906921647751 12.588171522584162,153.5525208306317 12.408363178779837,153.73837346820437 12.39999999999418,153.86064453252038 13.023056819292833,155.41590423145317 13.299041719088564,156.63855591417087 13.583389797684504,157.23519818802743 13.616842512827134,157.48950238913312 13.922098538372666,158.0763528959942 14.36534701383789,157.9981065924003 14.490794695564546,157.85139441600768 14.607879198534647,157.8220519248316 14.963314296779572,157.8465040021074 14.536792178885662,157.9443121818149 14.390436550180311,158.0959144511944 14.306804762367392,158.0470105476743 14.582789662177674,158.96150497769486 14.724963701475644,159.04463993749596 15.36892846772389,159.08376221978324 15.686729261447908,159.25492181529626 15.93762462491577,159.69993379659718 16.43105217308039,160.06669869154575 16.61922369567037,160.85401083484976 16.799032039489248,161.2207665705355 17.526628593550413,160.99582339777407 17.756616010068683,160.98604323499967 18.170593359784107,160.78554944180723 19.21599070756929,161.8760295727916 19.425070177123416,162.20854754279208 19.56306262704311,162.06673870110535 19.717781434505014,158.3551042757099 19.885045010159956,158.50670519727646 20.102487658485188,158.37466571288314 21.315148581925314,158.1008048386975 22.072016261750832,157.8465040021074 22.573806988672004,158.6240733110899 22.774523279455025,159.1375553038306 22.84561029910401,159.1571164097768 24.342619301125524,158.78545398080678 26.4125060497463,158.00788738760093 30.368289613790694,155.93431249607602 36.460865356668364,155.56262414184312 36.611402574766544,155.76314059914148 38.46384667503298,155.05399312691225 40.20756945115863,154.16387537543778 40.35392507983488,154.364397904028 40.746994482615264,155.46481092002796 44.1884425515309,153.3568856674574 45.92798373824917,151.71351758377205 47.822243732458446,150.67170931992587 50.84135127285845,149.9184624163354 51.43095537701447,149.36085614576587 51.727848223774345,148.8717222950254 52.83178782304458,149.70813803489 53.11195431223314,149.56629081819847 54.53787629463477,148.1820347629182 55.520549801542074,149.14563788969826 55.59163682120561,149.272812434956 55.49964185459248,149.3168343113357" stroke="#ff9200" stroke-linecap="round" stroke-linejoin="round" stroke-width="0.5"><title>2022-07-17 27.7km</title></polyline><polyline fill="none" points="94.60123711341294,137.03698896789138 94.80907216493506,136.93279870747938 94.76948453608202,136.79387820581178 93.74020618555369,135.77512246503466 93.27505154634127,135.57831628439453 92.23587628861424,134.4206256952384 88.41567010310246,138.02100319531746 88.62350515468279,138.44933603289246 92.35463917528978,141.52865243078122 92.5624742268119,141.87593831059348 88.72247422678629,144.87412719547865 86.4560824742075,146.11273721194448 88.13855670101475,145.42976706927584 89.15793814428616,147.16612347366026 89.29649484535912,147.79120502845763 88.04948453610996,148.58991514776426 85.13979381445097,149.88635973114287 84.9022680412163,149.81690773243463 84.56577319587814,149.28444094346924 78.94432989688357,139.63013678554125 78.40000000002328,139.32914956974855 78.61773195874412,139.46806684921467 78.60783505154541,139.74590087863908 82.39835051546106,146.13588866741338 82.72494845365873,146.46000852956058 83.32865979376948,147.77962947657943 85.63463917525951,151.71524648660852 87.87134020618396,157.42163954737043 90.99876288662199,163.61383874917374 90.92948453611461,164.51659738815215 91.69154639175395,164.66705643689784 91.97855670104036,165.4656433079581 91.77072164946003,164.52817116845836 94.47257731953869,164.49344982378534 101.76659793814179,162.51431495789438 102.86515463917749,162.35227893836418 109.80288659792859,160.3615311058893 106.28948453610064,161.43792832876352 106.58639175258577,162.0976504226419 106.81402061850531,162.19024267876375 109.98103092779638,161.51894704589358 110.2680412370828,161.56524342871126 110.74309278349392,163.7758728996996 113.06886597938137,171.49536466382415 113.59340206184424,171.20603821708937 118.71999999997206,169.9792855824271 120.6696907216683,169.65523541966832 121.24371134018293,169.71310159056156 121.4911340206163,169.42377043001034 121.59999999997672,145.61497973299265 121.26350515463855,145.6381312938829 121.0457731958013,145.29085736555862 119.79876288661035,145.5802523824459 109.23876288661268,149.37704404957185 108.29855670098914,147.01564034337935 107.96206185565097,143.5081671674052 102.75628865981707,143.76283897553367 95.63051546388306,135.16154908494354 93.19587628863519,132.62618104745343 89.61319587629987,129.5234588513049 87.04000000003725,128.5741008775658 86.66391752578784,128.50463533617585 86.36701030930271,128.71303182789416 86.4560824742075,129.03720335849357 89.07876288658008,129.70869846996357 89.44494845363079,129.94024755169085 89.53402061859379,130.31072506196506 87.75257731956663,132.2904429704722 85.47628865978913,136.00665869447403 88.44536082475679,138.19465184528963 92.11711340205511,134.5827031159497 92.39422680414282,134.55954921342345 93.07711340207607,135.2541641554999" stroke="#ffbf00" stroke-linecap="round" stroke-linejoin="round" stroke-width="0.5"><title>2022-07-09 20.5km</title></polyline><polyline fill="none" points="187.124762726482,141.77713340021 187.20862812767155,141.8697852145997 185.61984469369054,143.37944127260926 185.4055220017326,143.3249418245141 184.3292493528861,142.44749276449147 184.07765314925928,142.6000936758537 183.56514236409566,143.37944127260926 183.0805867126619,143.71188665597947 181.27282139775343,144.13697762377706 181.0212251941266,144.08792884515788 180.7929249352892,144.25142459205017 179.85642795512103,144.4912174145138 177.6013805004186,145.73921201831035 175.79827437445056,147.49943243759844 171.80534943914972,149.86991280030998 165.1473684210505,152.81787516271288 163.52131147540058,153.9621403971105 155.37238999136025,157.00249303778764 154.13770491801552,157.40568044384054 153.59723899912206,157.64541199954328 152.38584987056674,158.45722193382608 151.66367558238562,156.0762397429571 151.47730802412843,156.26149173483645 150.61069887832855,156.56116266359095 150.46160483174026,156.35956604896637 150.10284728213446,156.10893131935518 149.9956859361555,155.9236787785958 150.0935289042245,156.0054079228612 150.09818809316494,155.76022010090674 150.04227782570524,155.93457600533293 150.02364106988534,155.71663103255923 149.8093183778983,155.3842631729931 148.24383088867762,153.57527261588257 148.21121656597825,153.37911319359046 147.4657463330368,152.64895766433256 147.3679033649678,152.63805974217757 147.3492666091479,152.7579367589824 147.46108714406728,152.67620245963553 147.2747195858392,152.4092028440864 146.2962899050617,151.49376507781926 146.10060396892368,151.56460310511102 146.13321829162305,151.42837604304077 145.12683347711572,150.37669098959304 144.7820534943894,150.2568084275954 144.65625539256143,150.04973789017822 144.39999999999418,149.04161942692735 144.54909404658247,148.3223012100898 145.26194995685364,147.65746785827287 145.98412424503476,147.12886472063474 147.0324417601223,146.66565132236428 147.06039689388126,146.51851207630534 147.57290767901577,146.2841783345284 147.56824849007535,146.19698411172067 148.76100086281076,145.81005796575846 149.1057808455662,146.0062462343085 149.15703192405635,145.87545413838598 149.85591026747716,145.7937089096231 150.00034512509592,145.63566776584412 150.8063848144957,145.44492780805012 151.93856773077277,145.44492780805012 152.65142364107305,145.77191016001962 153.508714408963,145.81005796575846 154.6455565142096,145.76646047118265 155.12079378773342,145.52667359080442 155.97342536668293,145.62476835874622 156.9332182916114,145.63021806258257 157.37584124243585,145.7991585955824 158.37290767903323,145.581170707188 158.60586712681106,145.581170707188 159.02053494390566,145.74466171004315 160.0082830025931,145.6683659733353 160.3670405521989,145.52667359080442 160.50681622087723,145.36318189543454 160.82830025884323,145.3686316269741 161.42467644519638,145.0797950597189 161.8440034512314,145.02529741239778 162.91095772216795,144.6547118801027 163.24641932698432,144.3931204858418 164.08507333908346,144.0824789779872 164.30871440895135,143.84268425084883 166.7547886108514,142.38209223537706 167.23934426228516,142.01693775335298 167.69594477998908,141.85343490654122 167.910267471947,141.95698676984102 168.23175150994211,141.78258351156182 168.40880069023115,141.57547887453984 168.64176013803808,141.54277806617392 169.43382226055837,142.3330417839752 169.6667817083653,142.30034145707396 169.93701466781204,142.0060375797293 170.04883520276053,141.97878713555474 170.51009490940487,142.34939193963874 172.63934426230844,143.60833832423668 173.63641069887672,144.51301670660177 173.99982743742294,144.36587130578846 177.63399482311797,141.7335324886444 179.34391716995742,144.638362456928 179.59551337358425,144.69286051400195 179.99620362382848,144.4966672384071 183.17842968076002,143.744586085857 183.63503019843483,143.3848912142348 184.2314063848171,142.5401433717925 185.47075064710225,143.47209020187438 185.73166522863903,143.36309144423285 187.31578947367962,141.78258351156182 187.39965487489826,141.7880336223243 187.59999999997672,142.02238783929351" stroke="#ffb800" stroke-linecap="round" stroke-linejoin="round" stroke-width="0.5"><title>2022-07-04 21.6km</title></polyline><polyline fill="none" points="55.53887753497111,196.7609740412954 55.60000000000582,196.6100365069069 55.212891054863576,196.1731103530401 54.540543939656345,195.67262817644223 53.94969344441779,195.02120192827715 53.71878635435132,194.98148063255212 51.20597390347393,197.46799318496778 51.27388775351574,197.65864889180375 52.088853953784565,198.3259400494353 52.129602263798006,198.50070580019383 51.993774563772604,198.73902207684296 50.737368338304805,199.8908734070501 46.78478226691368,202.15480551092332 46.7779908819648,202.40105365491763 47.083603207051056,202.96503829398716 46.96135827698163,203.17156681951747 45.26351202643127,203.98973192938138 44.000314415985486,201.84500831068 41.43996227005846,203.33043452923448 39.96623172459658,201.44783054142317 38.723408269142965,199.65256078990205 38.68265995912952,199.4539663639007 36.83540323851048,196.9357434384874 32.51608237702749,192.1373811787489 32.24442697688937,192.01026807061862 31.748655871720985,192.4472184772385 29.36487973589101,195.37074842343281 28.638201540656155,195.0927002075332 28.03376827543252,195.76001419396198 27.823235340358224,195.82356759730465 26.689074044959852,194.71137526378152 26.247634019789984,194.73520812959032 25.94881307973992,195.03709044065909 25.534538594569312,195.24364079550287 25.127055494405795,195.14036568918527 24.542996384203434,195.37869264304754 22.756862128619105,196.594148327742 20.359503222745843,197.98435126989352 20.033516742667416,198.34182786176825 18.79748467222089,198.794629099124 18.18626002201927,199.21565235870366 16.780443326511886,199.70022337391129 16.155635906325188,199.8034922020015 14.091054865595652,200.62963770888018 12.753152020130074,200.7487925600508 12.39999999999418,200.43898955330224 12.807483100157697,200.7249616049521 14.091054865595652,200.62169404538872 14.763401980831986,200.2642283183959 15.625907876121346,200.0576917885919 16.114887596311746,199.77171719310718 16.726112246513367,199.69227961199795 18.145511712005828,199.20770854549482 18.824650212249253,198.76285366288357 20.019933972653234,198.3100522336972 20.529287847835803,197.80958431604085 23.857066499011125,195.87123261444503 24.52262222918216,195.34691575961187 25.127055494405795,195.10858870480297 25.561704134597676,195.2039196176047 26.22046847981983,194.72726384181442 26.526080804906087,194.65576521417097 26.743405124987476,194.73520812959032 27.646659330290277,195.67262817644223 27.95227165540564,195.71234910611383 28.386920295568416,195.29925040923263 28.617827385634882,195.28336195238808 29.269800345849944,195.77590254984534 30.79786197139765,196.62592468275398 30.98802075147978,196.5544278650559 32.45495991199277,195.14036568918527 32.69944977204432,195.0847559576505 35.48391762300162,197.90491179589299 39.71495047947974,195.02914618488285 40.01377141958801,195.36280420301046 42.15984908034443,199.04883210457047 42.5265838704654,199.1918209165451 47.74236755227321,197.84136015611148 48.34000943248975,197.45210518751992 49.019147932733176,196.5782601451865 49.45379657286685,196.22077514806006 49.881653828022536,196.41937813459663 51.280679138493724,197.49976916976448 53.847822669369634,195.0053134125119 55.32155321488972,196.34788112001115 55.52529476498603,196.65770102426904 55.403049834945705,196.78480625581142" stroke="#4dd2ff" stroke-linecap="round" stroke-linejoin="round" stroke-width="0.5"><title>2022-06-30 16.1km</title></polyline><polyline fill="none" points="81.00383561645867,206.03057876438106 81.20826899138046,206.05575049115578 81.08991282701027,205.72851762722712 80.00318804488052,204.60836754018965 79.52976338739973,204.35664696645108 78.61519302619854,203.2113116229084 79.07785803248407,202.56941555904632 79.41140722302953,202.493898147055 81.7462515567313,204.75939962849952 85.22161892912118,209.05114790736843 85.44757160660811,209.17700328885985 86.08239103370579,208.84977901980892 86.52353673730977,209.0763189943318 93.85085927782347,204.60836754018965 101.19970112084411,201.92751602744102 105.91242839355255,200.81991652467696 111.0555417186115,197.68585744373559 114.54166874225484,194.77828292322374 118.52273972606054,191.78252565288858 118.73793275223579,191.1279803945581 119.17907845583977,190.61189409025246 119.27591531764483,186.92369986600534 121.60000000003492,186.82299671114015 116.74739726033295,186.87334829926112 113.31506849318976,187.49015352145216 101.19970112084411,192.21049560259416 94.90530510590179,196.3894152578141 93.64642590290168,196.93065012363513 92.66729763394687,198.1263928302651 90.31093399756355,199.90110455649847 89.29952677467372,199.0326319175365 90.14953922794666,200.0899021162695 90.14953922794666,200.34163172927947 83.4785554172704,205.27542448174063 82.91905354923801,205.14956496805098 81.49877957667923,203.41269006564835 79.88483188051032,201.81423927954893 78.85190535505535,202.5064843857399 78.40000000002328,203.16096695892338 79.47596513084136,204.49509334799222 79.91711083444534,204.5706094881025 80.93927770870505,205.67817402969376 81.12219178088708,205.95506355205725 81.02535491914023,206.38298245400802" stroke="#4dd2ff" stroke-linecap="round" stroke-linejoin="round" stroke-width="0.5"><title>2022-06-24 10.4km</title></polyline><polyline fill="none" points="146.74106689251494,204.5685559339472 145.66198137175525,203.55234240998107 145.32362404745072,203.41328081662505 144.40000000002328,202.40775282791583 144.43657917022938,202.12962629747926 145.03099068586016,201.58406818605727 146.81422523292713,202.9853977898092 150.45385266724043,207.2855397722451 151.01168501278153,206.9860333272445 151.26773920410778,207.24275319159642 157.02895850979257,203.7127978567296 158.17205757834017,203.15655121806776 163.51261642680038,201.1989665682122 167.79237933957484,200.1827191367338 172.5202370872721,197.28368342127942 174.79729043185944,195.27249535434385 178.6655376799754,192.37331865559827 178.73869602038758,197.44414882866113 178.9398814564338,197.66879997065553 179.05876375961816,192.49099903555907 179.34225232858444,192.180750465217 180.44877222698415,192.1165609867894 180.31160033872584,191.95608711219393 179.37883149879053,191.94538884482608 179.13192209997214,191.64583689806022 179.04961896699388,189.2065951031691 179.2142252328922,188.8428434700254 179.51600338704884,188.71446022776217 187.34394580870867,188.73585744611773 187.58171041496098,189.16380086140998 187.60000000003492,191.6672334951727 187.44453852670267,191.92399230667797 180.28416596114403,191.93469057630136 178.8027095682337,192.05237146755826 174.9527519051917,194.9194635287131 172.01727349706925,197.3478696148668 168.79830651998054,199.41250374433002 166.80474174430128,200.23620609861973 163.7869602032588,200.86735010943084 158.53784928034293,202.83563830210915 158.27265029639238,202.7821527169799 158.11718882306013,202.54681580589386 158.22692633367842,201.13478282244614 158.025740897574,200.8459554617948 156.05961049959296,201.88359065131954 154.7336155800731,200.1827191367338 154.71532599499915,200.37527206694358 154.26723116007634,200.74967949131678 153.16071126167662,201.57337093872775 152.97781541070435,201.4877929192662" stroke="#4dd2ff" stroke-linecap="round" stroke-linejoin="round" stroke-width="0.5"><title>2022-06-23 11.8km</title></polyline><polyline fill="none" points="41.92022792022908,244.49195375032286 39.6091168091225,245.94744509598604 38.319088319083676,246.41127415859592 37.03361823360319,247.0350375420894 36.34985754985246,247.53617517669772 35.64330484328093,247.824060499006 35.2102564102679,247.8507164641269 34.991452991438564,247.99998960814628 33.911111111112405,248.4211507366308 33.23190883192001,248.81565290320214 32.680341880361084,248.99690961942179 32.01025641025626,249.4074003596652 31.299145299126394,249.98314796922205 30.501424501417205,250.43627803419076 30.241595441591926,250.54822718703872 29.71737891738303,250.60153621997597 29.188603988586692,250.90539663058735 28.19031339031062,251.1719393413514 27.65698005698505,251.41182657523314 27.219373219355475,251.2998793415827 27.1145299145428,251.43848064182384 26.891168091184227,251.42781901688068 26.567521367542213,251.73167444346473 26.120797720795963,251.96622825619124 24.86267806266551,252.35537194568678 24.001139601139585,252.8191420059411 22.25527065526694,253.29889964471295 21.060968660953222,253.9758832077132 20.769230769219575,254.26373173028696 20.276923076919047,254.48761277757512 20.158404558402253,254.45029933878322 20.03988603988546,254.24774018884636 20.112820512789767,254.46629081594438 19.54757834758493,254.74347561348623 19.064387464371976,253.52278497936277 18.658689458708977,252.8138113398527 18.521937321929727,252.78182733144058 18.321367521362845,252.45665542666393 17.961253561254125,252.16346584435087 17.943019943049876,251.84895148633586 17.705982905987184,251.41715738968196 16.598290598281892,250.2870121100641 16.124216524185613,249.53001382802177 15.741310541314306,249.09286879338106 15.41310541308485,248.7889974487298 15.326495726505527,248.79432854074184 15.303703703713836,248.87962593634802 15.38575498573482,248.86363268566856 15.362962962972233,248.75701088475398 14.6792022792215,247.91469072287146 14.350997150992043,247.65346198811676 14.346438746433705,247.46153797266743 14.227920227916911,247.54683762537752 13.886039886041544,247.32292572889492 13.115669515682384,246.5818768771751 12.764672364661237,246.4539248924084 12.65527065526112,246.26732766528949 12.39999999999418,245.25969069160783 12.52763532762765,244.60924765162417 13.6307692307455,243.63889897637273 14.0,243.4043063800309 14.656410256400704,243.17504437764 15.367521367501467,242.7378441774381 16.028490028489614,242.61521417128824 16.762393162411172,242.25265414540627 16.990313390328083,242.30064018109624 17.081481481494848,242.17267731765241 17.888319088320713,242.06070954538518 17.915669515670743,241.93807789007406 18.736182336171623,241.7408002526281 19.775498575530946,241.75146392845636 20.418233618227532,242.0447141290315 20.47293447292759,241.80478227378626 21.452991452999413,241.8154459360776 21.658119658124633,241.9700687854638 22.045584045583382,242.08203675930417 22.478632478625514,242.05537774050026 22.911680911667645,241.8367732538827 24.694017094006995,241.91675061519345 25.086039886024082,242.08203675930417 26.111680911679287,241.86343238842892 26.69059829058824,242.0020596605391 27.7344729344768,241.9327460722052 28.01709401709377,241.82610959609883 28.181196581193944,241.67148630461816 28.47293447292759,241.6661544585004 29.111111111124046,241.36223829706796 29.503133903141133,241.31425136705366 30.43760683760047,240.99966924864202 30.84786324785091,240.71174490900376 31.695726495730923,240.38649506326692 31.891737891739467,240.16788333043223 34.25754985754611,238.76021431499248 34.74985754984664,238.3922943340549 35.1509971509804,238.23232828624896 35.41538461539312,238.3176435750065 35.70256410256843,238.16300950766163 35.871225071226945,237.96571707693874 36.0444444444438,237.9337236369356 36.099145299143856,237.73643030759195 36.600569800590165,237.3205121070132 36.1994301994273,237.65111403377523 36.0809116809105,237.4804810523783 36.258689458685694,237.25652438651377 36.208547008543974,237.35250593676028 36.286039886035724,237.44315501059828 36.5094017093943,237.42715812708047 36.87407407409046,237.62978494274284 37.08376068377402,237.6404494893868 36.58689458691515,237.96571707693874 36.43190883193165,238.16300950766163 36.947008546994766,238.87218942763502 37.32535612536594,239.23477379767428 37.50769230769947,239.21877748348925 37.908831908833236,238.7175570636864 38.05470085470006,238.7282213799117 40.01025641025626,239.927942530976 40.69857549856533,240.48780261757202 41.21823361821589,241.036992653575 43.24216524217627,243.59624585833444 42.59943019942148,244.05476498393546 42.62222222221317,244.1240756512998 43.219373219355475,243.74019998693257 43.72535612533102,243.2176978524658 43.693447293451754,243.14838593751483 43.78005698006018,243.22302953428152 43.82564102564356,243.18037606396683 44.75099715098622,242.20466806400145 45.66723646724131,241.61816781813468 47.1806267806096,240.8183837452998 48.31566951566492,240.61576976320794 48.37037037036498,240.44514683006855 48.511680911673466,240.51979443446908 50.43988603987964,240.00792292452752 50.758974358963314,239.76264931499827 51.36068376066396,238.904182271217 51.643304843310034,239.0268213165764 52.52307692306931,239.75198521791026 52.71452991451952,239.77864545639022 54.45584045583382,238.14701285290357 55.60000000000582,239.20811327119736 55.55441595442244,239.3840724851434 55.4905982906057,239.32008738759396" stroke="#4dd2ff" stroke-linecap="round" stroke-linejoin="round" stroke-width="0.5"><title>2021-08-07 19.9km</title></polyline></svg>