<?xml version="1.0" encoding="utf-8" ?>
<svg baseProfile="full" height="300mm" version="1.1" viewBox="0,0,200,300" width="200mm" xmlns="http://www.w3.org/2000/svg" xmlns:ev="http://www.w3.org/2001/xml-events" xmlns:xlink="http://www.w3.org/1999/xlink"><defs /><rect fill="#222222" height="300" width="200" x="0" y="0" /><text fill="#FFFFFF" style="font-size:12px; font-family:Arial; font-weight:bold;" x="10" y="20">MY TRACKS</text><text fill="#FFFFFF" style="font-size:4px; font-family:Arial" x="10" y="280">ATHLETE</text><text fill="#FFFFFF" style="font-size:9px; font-family:Arial" x="10" y="290">John Doe</text><text fill="#FFFFFF" style="font-size:4px; font-family:Arial" x="120" y="280">STATISTICS</text><text fill="#FFFFFF" style="font-size:3px; font-family:Arial" x="120" y="285">Number: 10</text><text fill="#FFFFFF" style="font-size:3px; font-family:Arial" x="120" y="290">Weekly: 1.2</text><text fill="#FFFFFF" style="font-size:3px; font-family:Arial" x="141" y="285">Total: 287.5 km</text><text fill="#FFFFFF" style="font-size:3px; font-family:Arial" x="141" y="290">Avg: 28.7 km</text><text fill="#FFFFFF" style="font-size:3px; font-family:Arial" x="167" y="285">Min: 12.6 km</text><text fill="#FFFFFF" style="font-size:3px; font-family:Arial" x="167" y="290">Max: 50.7 km</text><polyline fill="none" points="14.982080487039639,35.410173166194 14.999470143782673,35.52558762473927 29.554612844687654,33.9233447056904 31.14286816128879,33.190101473155664 31.786285461101215,33.0 33.71074080825201,33.57709200726822 33.80928219651105,33.67893123131944 33.86724771899753,34.12702188567346 34.04694083877257,34.23564944906684 34.2556167198054,34.160968019088614 34.31358224232099,33.78755955775705 34.47588570532389,33.692509782231355 39.25224475970026,33.31230926387798 42.162113989383215,34.83988689450052 48.34703524064389,37.881354770805046 50.67724924531649,39.76183268535533 54.65948064139229,40.88194662176829 56.08543249499053,41.41144818369503 56.23614285347867,41.66940889140824 55.928925584215904,42.15817368844728 56.35207389853895,42.49759148386511 56.50858080925536,42.49080314564344 57.140405004582135,41.771235199528746 59.14601208321983,42.470438126663794 61.71968128241133,45.59978648342803 61.85300198418554,47.45288573505968 62.38628479122417,48.34887047333905 63.23837797206943,50.78561383770284 64.47304360137787,54.871531850338215 65.4120850659674,55.658821553573944 64.44985739237745,57.47769512709783 64.53680567615083,58.33960592916992 65.29615402093623,59.92087659990648 64.93676778141526,62.83221246890025 63.528205584560055,64.71195556685416 63.17461589729646,64.86803283133486 63.116650374780875,65.28876094903535 60.3458983990713,70.05229569171206 58.676491350954166,72.73247604997596 58.86198102298658,73.1667225372803 57.66209470710601,74.10305648350914 55.78401177795604,75.20899847136752 55.042053089884575,75.75856988634041 52.56112872672384,81.55252909839328 48.2369007478992,85.1548314573447 45.8255350117106,86.9525147124441 45.57048671267694,87.0 44.37060039685457,85.33799395082315 43.6576244700409,85.14126384435804 43.750369306013454,85.07342573623464 43.6576244700409,84.49001503485488 44.34161763556767,84.02870978074498 44.49232799408492,83.81162380341266 44.06917967982008,82.60406959895045 43.298238230490824,79.55116228737461 43.13593476745882,79.4968870603916 39.304413729929365,80.48061839657748 38.60882745985873,80.4127753422581 38.145103279850446,80.20246141613461 36.649592799221864,79.08982138898864 35.351165095111355,77.563302030052 31.65296475935611,74.10984146204282 26.847622943721944,68.99376311098604 24.610153775051003,63.15116194567236 24.615950327308383,62.55397864587576 25.056488298345357,61.28494559356477 25.14343658206053,60.70810405200609 24.215988222014857,58.72644400283025 23.352301936713047,52.67249883835029 21.248153469787212,48.647529257897986 20.187384407938225,41.94773374865326 17.80500143300742,37.56906787369371 17.410835879971273,35.19292185429367 14.993673591554398,35.46448587858322 14.831370128551498,35.34907130951615 14.587914934003493,34.77199533209932" stroke="#ffb300" stroke-linecap="round" stroke-linejoin="round" stroke-width="0.5"><title>2022-09-10 28.4km</title></polyline><polyline fill="none" points="124.21024540369399,34.37039182689841 124.24382410744147,34.31365676397036 123.93415383952379,34.02125173927925 123.7886461232847,33.9819732942924 123.45285908579535,33.57609383683666 123.34093007327465,33.54117928814958 121.93062451579317,34.854818798481574 120.8672988970502,33.99943038557467 120.45689251786098,34.71080056399296 120.18453192079323,34.97265152504406 119.77412554160401,35.16031035690321 117.44973304870655,35.679640808568365 117.02440280120936,35.8760245680387 115.52455403372005,36.74882995408552 114.13663427872234,38.145280124364945 111.69658180623082,39.60713820455203 99.54482201581413,54.009123997013376 97.8472319929133,57.76040623930021 97.36220627209696,58.497536730061256 96.70555606542621,59.121252246623044 94.9930421741883,60.29887122932996 94.3848945396021,60.65215037240705 93.89613785166875,60.74374076776803 93.42976696626283,60.682680526773765 92.65745678001258,60.342486101963004 92.32540070958203,60.98361941150506 92.2358574996033,61.022872147746966 91.68367437127745,60.78735517031237 90.82928290918062,60.534390994020214 89.98235338127415,59.867081503634836 89.72118568542646,59.80165842387578 88.52354525169358,61.21477387654886 87.9415143866936,61.65963354384439 87.07593002336216,62.07395931418796 86.30361983712646,62.239688457924785 84.44932919670828,62.287662559563614 84.3709788879496,62.25713359224392 84.16204473128892,61.934397413919214 83.44196808419656,62.196075589872635 83.08379524420889,62.239688457924785 82.72562240420666,62.17863042973477 82.48310954379849,62.387971864645806 82.06897219755047,62.50136469863719 81.82645933711319,62.42286200058879 81.60633227920334,62.57550599860042 81.27427620878734,62.67145336560134 81.14742332794413,62.749955590916215 81.15488526213448,62.87643108436532 81.05414915086294,62.97673895883054 80.16990995212109,63.59602565593741 79.64384359338146,64.24583058282951 79.3005946217163,64.87818126305137 78.9685385513003,65.00901122908544 78.82676180210547,65.30991857772824 78.74468052630255,65.75909503260482 78.8640714729554,65.99894453638262 78.85660953879415,66.19954486963252 78.61036571129807,66.61818590420444 78.68498505296884,67.17636734804182 78.77452826297667,67.43801230253666 79.66996036296769,68.82906347455719 80.03559513713117,69.66628798798774 80.08036674211326,70.01076606268907 79.91247322337586,70.56018084392053 79.98709256503207,70.77384017402801 80.31914863544807,71.16191245703885 80.41615377961716,71.58922378688294 80.39376797711884,71.92060504013352 80.70343824503652,72.3479085214858 80.67359050837695,73.4335883008498 80.57658536420786,73.61235211500025 80.2930318658764,73.77803495935223 80.5206208579475,73.89139652263111 80.47211828587751,74.37535969789678 80.31168670128682,74.71979850446587 80.26691509629018,74.99447549464094 79.87889451961382,75.28223038288343 79.80800614504551,75.5263844739784 79.56922425169614,75.835934908122 79.5169907125528,75.835934908122 79.44237137088203,75.66154058257598 79.32298042421462,75.70077936999951 78.35292898253829,76.7471332886089 78.47231992922025,77.00871762809038 77.91267486671859,77.53624100896195 77.72612651254167,77.78910106829062 77.46122784963518,77.9329690321174 77.45749688254728,78.13351141871681 77.18140531837707,78.42996359880635 76.71876540005906,78.62178446446705 76.51356221045717,78.7961662969501 76.52848607880878,78.95310931706263 76.30462805381103,79.14492775444523 76.03599842380208,79.57215652882587 75.99122681880544,79.91655201960384 75.8942216746218,79.87731723512843 75.93153134547174,80.1083659853357 75.80094749755517,80.23042895456456 75.75617589254398,80.44839764582866 75.84198813546391,80.7186772265195 76.11807969963411,80.92792472029032 76.14792743632279,81.12845257444496 76.30462805381103,81.42488327240426 75.95391714797006,81.79541865529245 76.60683638753835,82.70648564894873 76.72249636713241,82.78494980969845 76.8195015113015,82.98546865496246 77.11797887797002,83.3036813475992 77.4313801129756,83.36470815940265 77.50226848755847,83.54342901855853 77.39407044212567,83.66548184421845 77.67016200629587,83.99240728043151 77.96117743880313,83.89215042151773 77.9723703400523,83.96189434910775 77.86044132754614,84.02727917436641 77.84178649212117,84.13189467966731 78.01714194504893,84.32368908514763 78.25965480547165,84.37599649584445 78.30815737754165,84.48932899199644 78.27830964086752,84.69419848504913 78.52082250130479,85.01675690591583 78.6999089213059,85.09085780927853 79.01331015629694,85.0429101810987 79.01331015629694,85.22162378535359 79.15135593837476,85.57033103283538 79.65503649463062,86.21543168737844 79.71846293505223,86.24158420433014 80.00574740047159,86.08031008632679 80.15498608379858,86.19363791062278 80.19602672170731,86.39414022346318 79.97963063087082,86.52926079891768 79.75204163878516,86.78206585092266 79.81919904628012,87.0 79.7483106717118,86.79078323894646 80.19975768880977,86.35055284686314 80.14006221546151,86.1892791538994 79.82666098045593,85.79263036798875 79.5729552187986,85.2085472063518 79.41252363422245,85.09957555389701 79.12150820171519,85.32623626840723 79.0245030575461,85.22162378535359 79.01331015629694,85.03419242453674 78.69244698711555,85.07342231456278 78.55067023797892,85.01675690591583 78.28950254214578,84.67676282304456 78.29323350921914,84.40215017638184 78.00968001088768,84.29317639834335 77.86044132754614,84.14061262649193 77.96117743880313,83.87907342198741 77.73358844671748,83.98804829162691 77.6440452367242,83.97061233178829 77.40153237630147,83.66548184421845 77.50226848755847,83.52163383320294 77.44257301422476,83.3777853216452 77.11424791089667,83.29060416192442 76.8306944125361,83.00290503032375 75.96137908213132,81.78234099244946 76.30835902088438,81.42052401284309 76.14046550213243,81.12845257444496 76.11807969963411,80.91484678297275 75.87183587213804,80.7361145581308 75.76363782673434,80.47019445172191 75.81214039880433,80.24350710846193 75.938993279633,80.10400658692015 75.91287651004677,79.8903955007554 76.00615068714251,79.90347376226055 76.05092229213915,79.5634376183989 76.30462805381103,79.14928725404752 76.5471409142192,78.92695218843073 76.61429832172871,78.7133350182703 77.2037911208754,78.4212444474033 77.44630398129812,78.13787102501374 77.48734461920685,77.92424977583505 77.71493361129251,77.79346071091277 78.05072064879641,77.39673134835539 78.78572116421128,76.7078954948447 78.65140634920681,76.80381003603179 78.50589863296773,76.6032611960145 79.31924945712672,75.7138589575261 79.43490943669167,75.67462018253354 79.5169907125528,75.83157505894997 79.59907198837027,75.82285535924166 79.80427517797216,75.56126351207786 79.89381838796544,75.2865902900121 80.27437703046598,74.97703574004117 80.47958022003877,74.37535969789678 80.55419956170954,73.84343589919808 80.31541766838927,73.83035571952496 80.30049380003766,73.76931482621876 80.55793052879744,73.65159284871334 80.6810524425382,73.45974890733123 80.69970727794862,72.36098917057825 80.39376797711884,71.89880372359403 80.36765120754717,71.26656053838815 79.76323454001977,68.98168379144045 78.77079729588877,67.41620861963747 78.6887160200422,67.12403815819198 78.61782764547388,66.61818590420444 78.87899534130702,66.13413182456861 78.8640714729554,65.98150098308906 78.74468052630255,65.81142595226629 78.84541663754499,65.2575870224573 78.98346241963736,65.0002892442426 79.31178752296546,64.88254226859135 79.64011262629356,64.25019165516642 80.15125511671067,63.61347021711481 81.10638269003539,62.94184929100811 81.1660781633691,62.73251066485318 81.59513937793963,62.57986724739385 81.81899740295194,62.43158452996795 82.0503173621255,62.50572595525955 82.3301398933836,62.43594579396449 82.53161211586848,62.36616551471525 82.73681530545582,62.16990784692098 83.07633331003308,62.239688457924785 83.56508999795187,62.16990784692098 84.17696859961143,61.92131346157112 84.35232405252464,61.72941501744572 84.50529370293953,61.677078923312365 84.92316201627546,61.60293600969453 85.2514871196181,61.685801610266935 85.69920316961361,61.62910411205303 86.35585337628436,61.363060965009936 87.03488938545343,61.32816993330562 87.22143773960124,61.24094222498752 87.37440739003068,61.938758730440895 87.57961057960347,61.873338934168714 87.40798609377816,60.569282696709706 87.62065121752676,60.58236707761171 88.56831685669022,60.15494182267139 88.9339516308537,60.27706377573486 89.12049998503062,60.01973495315542 89.89281017126632,59.465818315176875 90.40395266168343,58.916255878983065 90.50841974001378,58.53243015473345 90.80316613960895,58.174771153298934 91.12776027584914,58.1442391437231 91.23595832126739,58.065728158242564 91.2546131566778,57.61210620647398 91.4113137741806,57.37220796620022 91.79933435085695,56.984006041318935 91.95976593544765,56.543457860087074 92.26197426918952,56.16397199275525 92.51568003084685,55.54893576162431 93.0715941262606,55.06911389639208 93.06040122501145,54.77685602592828 93.7319753000047,54.401716023850895 93.74689916835632,54.292663057793106 93.6610869254364,54.07455626091178 93.9409094566945,53.516197606833884 93.78047787208925,53.14540838783796 94.14611264625273,52.42563156696997 94.28415842834511,52.290399368965154 94.24684875750972,52.09409377658449 94.46697581543413,51.60550691302342 94.57517386085237,51.553157977261435 94.98558023999794,50.73737847774828 95.11243312084116,50.68066593416006 95.22063116625941,50.51489035965278 95.25794083710935,50.38837697298732 95.16093569294026,50.209512557314156 95.28405760666647,49.69472771539222 95.45568209250632,49.419882329973916 95.40717952042178,49.158123117311334 95.45568209250632,48.97489067999777 95.06393054877117,47.70969211100237 94.69083384043188,46.85457040672554 94.6647170708311,46.64951307652518 94.12372684376896,45.57185460192704 93.57900564958982,45.00465461855492 93.47453857127402,44.677420309762965 93.31410698668333,44.4199941617735 92.06423301376344,43.01066659473145 92.0194614087668,42.849223519438965 91.40758280710725,42.23835210742254 91.32177056418732,42.25580570195598 91.31803959709941,42.33871017506681 91.43743054376682,42.29507626262057 91.32177056418732,42.09872308518243 90.51588167418959,41.317664520272956 90.44499329959217,41.29584702946886 90.33679525417392,41.39184390263472 90.37410492502386,41.27839302850407 89.57194700209948,40.46241023498442 89.2622767341818,40.32277519725176 88.97126130168908,39.34968039380328 89.09438321542984,38.80421361752087 89.6987998829427,38.24128433527949 90.23979011001938,37.852902286271274 91.0829886708525,37.477608290002536 91.33669443252438,37.29868785621875 91.69859823959996,37.27250431295397 92.26197426918952,37.0717632618871 92.38509618294484,36.936480697695515 92.58283743834181,36.87102123301156 92.7283451545809,36.94957257815986 92.7955025620904,36.827381532133586 93.26560441459878,36.788105761825136 93.45215276876115,36.64845827537647 94.01179783126281,36.51753832703616 96.37349999499565,36.53935834731237 96.43319546834391,36.7575579145996 97.17565791792003,36.7575579145996 97.55621656043513,36.56117835602345 98.42926285792782,36.64845827537647 99.01875565708906,36.63973029175759 99.33588785918255,36.775013830076205 100.17162448583986,36.591726348822704 100.3768276754272,36.59609034594541 100.64545730540704,36.71828207775252 101.51850360291428,36.64845827537647 101.77967129873286,36.54808635218069 101.88040741000441,36.42589411573863 102.15649897416006,36.42153010060065 102.66391049748927,36.177144514877 102.94373302874737,36.15096025901585 103.71604321498307,35.89348085691381 104.08167798916111,35.64909213965075 104.74952109706646,35.39597372593198 104.91741461583297,35.1995876786641 106.07028344456921,34.53186811688647 106.56277109956136,34.17836514481314 106.85005556499527,34.06053014682766 107.29777161497623,33.73320893982964 107.60744188289391,33.619736981101596 107.81264507248125,33.68956591575625 108.05142696583061,33.558636566194764 108.16708694541012,33.40152079751351 108.34990433248458,33.36660610089166 108.33498046414752,33.0 108.4282546412287,33.357877422109595 109.01774744040449,34.02125173927925 109.17817902496608,34.00379465723745 109.51023509539664,33.70702313093352 109.87586986956012,33.99943038557467 111.44287604455894,34.91591729135689 112.38307974956115,35.697097180633136 112.67036421496596,35.635999846028426 113.88665948413836,34.728257346487226 114.00978139789368,34.69770797224555 115.47978242870886,36.72701004472037 115.93496041288017,36.57427035571163 117.43480918036948,35.75383033880644 118.35262708287337,35.56617420984185 120.10245064496121,35.09048391466058 120.38227317621931,34.87227551997421 120.99415177787887,34.00815892844912" stroke="red" stroke-linecap="round" stroke-linejoin="round" stroke-width="0.5"><title>2022-09-03 50.7km</title></polyline><polyline fill="none" points="186.11437453102553,54.37713526296284 186.04491370992037,54.45838996693783 184.5978132704622,53.3614427475768 183.13913602745743,52.900990156806074 182.7918319219607,53.232787210574315 182.47925822704565,53.13121686683735 181.37367349126725,54.14014178635989 180.10601350627257,55.0813392658747 178.83256511951913,54.11305676165648 178.38685818415252,53.59166779901716 178.0684960874787,53.551039909012616 176.07728588272585,54.878204291992006 170.7230142566259,58.852761363086756 170.5319969986158,58.75119994895067 168.5002679815807,56.41524288992514 168.0835030550079,56.5777470130779 166.90266909636557,57.57984664418473 165.01565012329957,56.455868959455984 164.8477864722954,56.523579017935845 164.4194447422051,56.97723455979576 164.18212027012487,57.065256903923 163.186515167763,56.056378154462436 162.82184585701907,56.16471489067044 162.70028942008503,56.37461679458647 162.28352449351223,56.61160198675498 161.96516239683842,56.476181984522555 161.36895701577305,56.72670876306802 159.7424161217932,57.8235982332626 157.83224354163394,58.90015663448139 157.57755386430654,59.2251518345729 156.40829670918174,59.67201753712288 156.02626219319063,59.96992627024156 154.70650659233797,60.416786767142185 154.2202808446891,60.47772204744251 153.64144066887093,60.79593867884978 153.07417729659937,60.8568735978115 152.88894844034803,61.05321905269375 152.46639511204557,61.20217037488328 151.17558152001584,61.283416404352465 150.54464572836878,61.093842174981546 149.1322756994341,61.39174428305705 148.64026154999738,61.181858851385186 146.30753564156475,61.06676009632065 145.93707792903297,61.31049839125626 145.65344624288264,61.378203308267985 143.45964197663125,61.37143281978206 142.46982527599903,60.95843166701525 141.2253188980394,60.931349530983425 140.09658055525506,61.14800629788806 139.87083288672147,61.36466233059764 138.97363061420037,61.47299007164838 138.88101618608925,61.655792718491284 138.70736413332634,61.506842453083664 138.35427162612905,61.63548133910081 138.17483117160737,61.82505396250781 137.31814771142672,62.12972307261953 136.73930753563764,62.18388631797279 136.3630614213762,62.447931482078275 135.08382463286398,63.00309980907332 134.06506592346705,63.727519523839874 133.26626648087404,64.49255199471372 133.1620752492163,64.68888628568675 133.0463072140701,65.40651684148179 133.37624611426145,66.66573590047483 133.4804373459192,66.88914314375143 133.68303140744683,66.59803658173769 133.49201414940762,66.9229926579792 133.81037624611054,67.09900984318665 133.90299067425076,67.05162064867909 133.8161646478984,67.09900984318665 133.03473041055258,65.3185059801981 133.0,65.56899811333278 133.09840282986988,65.87364938538667 133.15628684748663,65.83979931570502 133.04051881228224,65.3997467795416 133.21417086504516,64.62118487413682 133.98981670060311,63.862924167617166 135.0317290170351,63.077573242379 136.38042662665248,62.49532408840605 136.8087683567428,62.20419752314774 137.289205702662,62.18388631797279 138.13431235929602,61.88598790067044 138.65526851749746,61.5542357569866 138.89259298960678,61.66933363449789 138.97363061420037,61.50007197824016 139.7550648515462,61.425596707522345 139.9923893236264,61.2292523961878 141.18480008575716,60.992284320876934 142.36563404437038,60.97874326146848 143.30335512917372,61.36466233059764 144.40315146316425,61.432367190260265 145.78079108157544,61.398514769389294 146.3943616679171,61.0803011370881 147.45942759138416,61.20894088129717 148.69235716582625,61.20217037488328 149.17279451174545,61.41205573989282 150.48097330905148,61.1412357850204 151.1987351270218,61.34435085870791 152.47218351377524,61.249563904624665 152.90631364562432,61.06676009632065 153.09154250187567,60.87718522454816 153.46200021437835,60.9042673835138 154.272376460518,60.48449263054499 154.72966019937303,60.46418087906204 155.65580448065884,60.16627444901678 156.0783578089904,59.997008813516004 156.50091113732196,59.67878820556507 157.33444099046756,59.38764881507814 157.62386107837665,59.23192255033791 157.79751313108136,58.98817633096769 159.09411512489896,58.256932096795936 161.40368742632563,56.753792680327024 161.94779719156213,56.53035001982789 162.3066781005473,56.631914962330484 162.90288348164177,56.16471489067044 163.28491799766198,56.13763072384609 164.20527387715993,57.11265350058238 164.44259834924014,57.065256903923 164.92303569515934,56.658998919738224 165.3455890234909,57.031402170527144 167.93300460928003,58.52099347954936 169.5248150927364,59.773577488456795 169.8431771894102,59.631393511423084 175.9904598563735,55.155821927881334 176.14095830210135,55.28447359416896 178.5199914246041,59.57045742445189 181.33894308071467,58.79859529562236 181.8135920248751,58.426202339433075 182.519777039357,57.363177784769505 182.68185228857328,57.397032342450984 184.0884339157492,58.50068110421125 184.51677564583952,58.284015365716186 186.40379461890552,56.42201390329865 186.54850466290372,56.462639968522126 186.93053917892394,56.88921209445107 187.0,56.86212823459209" stroke="#ffd400" stroke-linecap="round" stroke-linejoin="round" stroke-width="0.5"><title>2022-08-08 21.7km</title></polyline><polyline fill="none" points="43.41669786599232,117.80723199788918 42.385623362031765,116.80216029717121 41.88019468361745,116.53019816382584 41.0209659304237,115.57241320140747 40.727817296923604,115.48964127569343 37.19992512167664,118.94236092038045 36.79558217898011,119.03695447625796 32.25683264696272,115.37139556103648 30.12392362416722,113.45579753331549 27.647323100012727,111.61111651076499 26.656682890316006,110.54686359196785 25.777236989873927,110.8661405330713 13.0,120.14842275447154 13.353800074895844,120.12477460847731 15.223886184976436,118.70587667998188 15.57768625987228,118.69405245480448 22.13815050548874,127.94021415893076 22.724447772372514,127.86927465644112 24.351928116811905,127.12440715949924 27.980906027718447,124.8306569915294 28.94122051668819,124.3931838256176 31.30662673158804,128.09391625967692 31.731186821416486,129.16982504141924 33.287907150923274,131.78270321288437 36.1688506177743,130.31666144995688 35.71396480721887,128.92153931957 35.006364657427184,127.66827915471367 35.05690752528608,127.47910658724868 37.42231374018593,126.20218337432743 39.15087982034311,124.9607162508255 39.40359415952116,125.019834045881 40.68738300265977,126.66329621897603 41.12205166608328,126.80517671119742 48.11718457512325,121.28352787336189 50.65443654067349,119.88829287268163 55.5267690003966,116.76668701300514 61.9558217896265,114.42542533476808 67.0,113.17200243712432 65.71621115686139,111.58746655616415 57.619243728986476,108.2172967871229 55.88056907529244,109.38799887314235 55.1628603519639,109.64815322471259 54.29352302511688,110.73606485249184 52.14039685513126,112.3797373082707 51.94833395729074,112.76995814907423 45.03406963683665,117.93729943910876 43.61886933731148,116.38830461385078 43.07300636469154,116.00992093217064 42.29464619990904,116.76668701300514 43.3964807188604,117.93729943910876 43.38637214526534,118.20925814460497 43.24485211528372,118.15013674322108" stroke="#4dd2ff" stroke-linecap="round" stroke-linejoin="round" stroke-width="0.5"><title>2022-07-31 12.6km</title></polyline><polyline fill="none" points="73.78052491441485,119.32375032851633 73.84556865728518,119.31173713615135 73.84556865728518,119.2436623073445 73.45872955495724,118.88726855587447 73.31494864968408,118.81919296277192 73.01027006466757,118.4828176446099 73.0,118.3987233474254 73.27386839102837,118.18248001000029 73.97565614302584,118.87125078029203 74.81095473562891,119.82029227321618 76.05020920503011,121.39396680569553 77.90224419931474,123.96055752859684 78.46367440090398,124.473054001337 78.93609737542283,124.78134931542081 79.47014073791797,125.02958527447845 82.86610878662032,126.07055703947117 83.00304298211995,126.02251281936697 83.06808672499028,125.8623649783367 83.08178014455189,124.9535131375851 83.14340053252818,124.86542941950029 85.67668314948969,124.48506555412678 86.12514263979392,124.45703859168134 86.15595283378207,125.15770642235293 86.20730315707624,125.20575174091573 87.17611259032856,124.96952833700561 89.6135412704316,124.7533225725274 90.15443134271482,124.67324604982787 90.45910992773133,124.57715399879817 90.54469379992224,124.4930732538669 90.72613160898618,124.53711557214046 91.33891213388415,124.44903088431238 91.40053252186044,124.36494985456011 91.20197793838452,123.90850671710359 91.2499049067992,123.8204205652255 91.74971472042671,123.74034206730721 92.16394066184876,123.97256924414978 92.74248763789365,123.94854580922038 94.67668314950424,123.42403034288509 94.89235450742126,124.03262776470729 94.38912133891426,124.20479499506109 94.40966146823484,124.44102317524084 94.4541650817846,124.53711557214046 94.52605553442845,124.54912710457938 96.46709775579802,123.95655362256366 96.44655762647744,123.71231455298039 96.20692278433125,122.99159990731641 97.06960821605753,122.80341104397667 98.09319132749806,122.431034575784 98.04184100417478,122.37898165909428 98.12400152150076,122.19879793264408 97.88779003423406,121.02958489095545 98.06238113352447,120.8654116720536 98.7470521110663,120.60913985676598 98.89767972612754,120.61714837728505 99.16812476226187,121.81039898016024 99.31875237732311,122.09068728468264 99.72270825409214,122.05465033334985 100.10270064664655,121.92251455127916 100.77025484974729,121.52210027091132 101.44123240775662,121.26983709722117 102.5401293267496,120.91346244404849 104.91593761887634,120.2847933502635 105.68619246860908,120.02851759963232 105.67592240395606,119.95643973180631 105.85051350323192,119.9684527193167 105.75465956637345,119.33175912129082 106.92544693801028,118.92330852613668 107.00760745530715,118.95534402640624 107.24039558767981,119.57602648632019 107.63750475464622,119.53998713825786 111.0642829973367,118.57091623151427 111.92012171928945,118.30261535017416 111.99543552682735,118.23053419188727 112.1426397870091,118.2425477277975 113.95359452263801,117.7860306787843 114.27538988208107,117.65788455128495 114.56637504753598,117.67790741234057 114.78889311525563,117.58179758254118 120.18752377330384,116.45248877838094 120.2594142259477,116.35237112153482 119.41042221376847,115.21501592238201 119.24610117916018,114.54219814411772 119.28033472802781,114.47010981461426 119.46861924686527,114.37799674905546 120.23887409661256,114.14170568471309 120.37580829212675,114.1457106303169 120.9783187523717,115.19899659066141 121.4815519208787,115.80372165371591 121.79650057056278,116.12410187239948 122.14910612399399,116.37239467412655 125.56219094713742,115.47132430657803 126.29478889310849,114.97472523363831 126.45568657285185,114.93067177499324 127.0,114.51416381009767 126.47622670217243,114.92266204972111 126.29821224800253,114.97472523363831 125.60669456067262,115.45530508349475 124.85355648535187,115.68758315382365 122.34081399772549,116.29630511788127 122.17306960822316,116.38040409217501 121.68695321415726,116.02398334577083 121.03651578546851,115.27909318137608 120.32103461392398,114.12568589806688 119.28718143781589,114.46209999174607 119.17421072651632,114.24583413242726 119.2255610498396,114.48612945528293 117.54127044504276,114.89863286372201 117.22974515023816,114.0455868629615 117.085964244965,113.9294429605252 114.37466717383359,114.71841348180897 113.20730315709079,115.15894823164126 113.1011791555793,115.11089014482059 112.76569037657464,114.5542128523266 112.53632559909602,114.53418833651449 109.7668314948678,115.52739153393122 107.3020159756561,115.9559025961862 106.11068847469869,116.46450287937478 104.00874857360031,117.03316595889919 100.02054012933513,118.4227503085749 100.2362114872667,119.81228358390217 100.16774438950233,119.96444839056494 95.79612019780325,121.59417515428868 94.97793837962672,121.84643616428002 93.80372765309585,122.06666265426611 92.90680867250194,122.12672420168747 90.21262837581162,122.1187160008667 89.76416888550739,122.18678565369191 89.55192088246986,122.11070779836882 85.93343476606242,122.07066676039904 83.06466337009624,122.17076927581365 82.24990490681375,122.37497758560858 78.13503233167285,123.8564558339749 78.00494484594674,123.77637741235594 77.53594522632193,123.15175990443822 76.41650817802292,121.43400856021617 74.22898440471909,118.79116180057099 73.45188284518372,118.01829442770759 73.2670216812403,118.09037599066869 73.0273868390941,118.31462886319059 73.00342335487949,118.45078174393711 73.33548877900466,118.85523299792112 73.70521110687696,119.15156087326613" stroke="#ff8300" stroke-linecap="round" stroke-linejoin="round" stroke-width="0.5"><title>2022-07-24 38.4km</title></polyline><polyline fill="none" points="186.98954602651065,119.03598814578436 187.0,118.91981902233238 186.23163294934784,118.30228449434435 185.72461523566744,117.70308626114274 186.23685993609251,117.11611053237357 186.18459006870398,116.81650603661546 185.8134740102687,116.41295466590964 185.10260381374974,115.75259179146815 184.14606524052215,115.10445051231 183.29406640207162,114.7864917520019 182.7138708740531,114.67031407570903 181.69460845997673,114.1077662301177 180.9994192236918,113.55744237968975 179.80243926047115,112.35282630284564 179.27451359981205,111.64961240067714 178.34410996030783,110.09639654574494 177.4921111218573,109.06293448671568 176.4989836414461,108.12729902463252 175.87174523278372,107.30172572262381 175.14519407605985,106.64737404655534 172.52124673311482,104.9717106839089 171.86787339075818,105.61385020617308 171.62220501404954,105.66889040407477 171.30858580968925,105.58938787914303 170.58726163971005,104.83105059613808 170.37818217015592,104.73931557151082 168.8048591617553,106.21317397839084 166.26454360660864,108.18845213263558 164.59190785017563,109.6683375834582 161.93137160001788,112.62799462761905 161.31458716484485,113.19667167448642 161.04801084115752,113.5880160646011 159.8823927983758,114.70088717107865 160.43122640592628,115.66698864346472 158.83699545057607,116.82262042962248 157.78637111606076,117.01216629165356 155.70603039395064,117.87428639103382 155.5387668183248,117.81925783323459 155.39763817633502,117.64194323455376 155.31400638850755,116.920450629681 155.04220307810465,116.80427724863694 153.16571483883308,116.95713691196215 151.92169199496857,117.15891104767434 152.04713967669522,118.68748007410977 151.86942212758004,117.15279669029769 150.89720259414753,117.29954108881793 149.7943083922146,117.33011279154744 148.17916948988568,117.5930287666597 148.4509728003177,118.27171330649435 148.48233472075663,118.74250780425427 148.10599167551845,118.82199221074552 147.97531700707623,118.99318902222876 147.52579614749993,118.96261820027212 147.28535475750687,118.82810639132367 145.64930790822837,118.81587802951253 144.25370244894293,118.9381615310449 143.5010163585248,119.08490139098649 142.48175394441932,118.96261820027212 142.51834285160294,118.8586772845083 141.73429484077496,119.21329846241133 141.46249153034296,118.6263380902019 141.34227083533187,118.56519604154164 140.57390378473792,118.76085036931909 139.59123027778696,119.27443982463956 137.74087697223877,120.38720130301954 136.59093988966197,120.94357399904402 134.6726357564621,122.26417343642242 133.41815893910825,121.96459565749319 133.3502081115148,122.46592902381963 133.16726357565494,122.77773172674279 133.27703029717668,123.35853619352929 133.1933985093492,123.6336520596924 133.2352144032484,124.44065103829053 133.01045397348935,124.67296683526001 133.0,124.8258056656523 133.7788210241124,126.76988028931737 134.12380214888253,128.2981948927154 134.4792372471129,129.0439977350361 134.5210531410412,129.36187798641913 134.90262317296583,130.0954411199964 135.4566837672901,129.99763324050218 135.61349336945568,129.8142430200096 135.75984899816103,129.77756490604224 136.20414287096355,129.80813000263515 135.670990223618,129.93039022726953 135.48804568772903,130.11989306399482 135.38350595295196,130.05876318459195 135.7284870777221,131.2018812221213 135.90620462686638,131.30579992187268 136.71116058464395,131.35470277472996 137.1084115768317,131.56865226912123 137.4220307811629,132.1249172457501 138.03881521633593,132.58337336443583 138.27402961958433,133.5675135435631 138.49879004937247,134.025958213173 139.4082857419562,133.7447792472194 139.69577001259313,133.73255404375232 140.21324169973377,133.48193680225813 141.51998838447616,134.84503696598767 141.78133772141882,135.26068442849282 141.95382828378933,135.08342337638533 142.14722679313854,130.44388034463918 142.35630626269267,130.6333814965983 142.62810957312468,130.46833214110666 144.1439357274212,130.1260060483728 145.09002032718854,129.80813000263515 145.71725873585092,130.780091638866 145.96815409933333,131.42194412979006 146.05701287387637,131.4463955122228 147.92827412640327,130.9818174760112 150.5156325621938,130.00985923450207 155.460362017242,127.41789062009411 163.07608169585,126.95328017730208 163.26425321848365,127.20392574893049 165.57980834378395,126.31749140864122 167.75946181395557,125.20484421929723 167.94240634981543,125.45549738003683 168.4337431032909,126.83101365003313 172.73555318941362,124.19610708432447 174.90997967281146,122.14189697971597 177.2778046655585,120.83963664990733 181.05168909108033,119.89807802042196 181.78869422126445,119.20107018220733 182.15981027972884,118.58965286878447 183.53973477880936,119.63517254361068 183.88994289029506,119.45786352275172 185.67234536830802,117.72754345364592 186.9006872519385,118.93204736212647 186.98954602651065,119.09101554369772 186.87455231824424,119.14604288917326" stroke="#ffb700" stroke-linecap="round" stroke-linejoin="round" stroke-width="0.5"><title>2022-07-17 27.7km</title></polyline><polyline fill="none" points="33.25154639175162,163.7962362098624 33.51134020613972,163.66599838434195 33.46185567008797,163.49234775725927 32.17525773186935,162.21890308128786 31.59381443291204,161.9728953554877 30.29484536073869,160.5257821190462 25.519587628834415,165.02625399414683 25.779381443280727,165.56167004110466 30.443298969068564,169.4108155384747 30.70309278345667,169.84492288823822 25.90309278346831,173.59265899434104 23.070103092759382,175.14092151491786 25.173195876239333,174.2872088365839 26.447422680386808,176.45765434206987 26.62061855668435,177.2390062855702 25.061855670064688,178.2373939347017 21.42474226799095,179.85794966391404 21.127835051505826,179.77113466554147 20.70721649483312,179.10555117933836 13.680412371060811,167.03767098192475 13.0,166.66143696218205 13.272164948401041,166.83508356151287 13.259793814388104,167.1823760982952 17.997938144253567,175.16986083425581 18.406185567029752,175.575010661938 19.160824742226396,177.22453684572247 22.04329896904528,182.144058108257 24.83917525765719,189.27704943421122 28.748453608190175,197.01729843646172 28.661855670099612,198.14574673518655 29.61443298967788,198.33382054611866 29.9731958762859,199.33205413493852 29.713402061839588,198.1602139605675 33.090721649408806,198.1168122797244 42.20824742264813,195.64289369735343 43.58144329895731,195.4403486729425 52.253608247381635,192.95191388235253 47.861855670053046,194.2974104109453 48.232989690674,195.12206302829145 48.51752577308798,195.23780334844196 52.476288659730926,194.39868380736152 52.83505154628074,194.45655428587634 53.428865979309194,197.21984112462087 56.336082474153955,206.86920582977473 56.9917525772471,206.50754777135444 63.399999999965075,204.97410697802843 65.83711340202717,204.56904427458358 66.554639175185,204.64137698819104 66.86391752568306,204.2797130375111 67.0,174.51872466622444 66.57938144326909,174.54766411734454 66.30721649475163,174.113571706941 64.74845360824838,174.4753154780483 51.54845360823674,179.22130506196117 50.37319587619277,176.26955042922054 49.95257731952006,171.88520895925467 43.44536082475679,172.203548719408 34.53814432985382,161.45193635617034 31.494845360750332,158.28272630930587 27.01649484533118,154.40432356411475 23.79999999998836,153.21762609695725 23.329896907147486,153.13079417021072 22.958762886584736,153.39128978486406 23.070103092759382,153.79650419810787 26.3484536082251,154.635873087449 26.806185567053035,154.92530943961174 26.917525773169473,155.38840632745996 24.69072164944373,157.86305371308117 21.845360824663658,162.50832336807798 25.556701030873228,165.24331480660476 30.14639175258344,160.72837889492803 30.492783505120315,160.69943651676294 31.346391752536874,161.5677051943785" stroke="#ffd900" stroke-linecap="round" stroke-linejoin="round" stroke-width="0.5"><title>2022-07-09 20.5km</title></polyline><polyline fill="none" points="126.40595340813161,169.7214167502607 126.51078515962581,169.8372315182496 124.52480586714228,171.72430159075884 124.25690250218031,171.65617728063808 122.91156169114402,170.55936595561798 122.5970664366032,170.75011709481623 121.95642795515596,171.72430159075884 121.35073339086375,172.1398583199698 119.0910267472209,172.6712220297195 118.77653149268008,172.60991105644644 118.49115616912604,172.81428074006544 117.32053494395223,173.11402176813863 114.5017256255669,174.67401502288703 112.2478429680923,176.87429054699896 107.25668679896626,179.83739100038656 98.93421052634949,183.52234395339474 96.901639344258,184.9526754963881 86.71548748924397,188.75311629723 85.17213114755577,189.25710055480158 84.4965487489244,189.55676499942638 82.98231233825209,190.5715274172835 82.07959447801113,187.59529967869457 81.8466350302042,187.82686466854648 80.76337359793251,188.20145332948596 80.57700603970443,187.94945756120433 80.12855910268263,187.63616414918943 79.99460742020165,187.40459847324382 80.11691113031702,187.50675990357558 80.12273511648527,187.2002751261316 80.0528472821461,187.41822000666434 80.02955133738578,187.14578879070177 79.76164797242382,186.730328966245 77.80478861086885,184.4690907698532 77.76402070751647,184.22389149198716 76.83218291631783,183.3111970804166 76.70987920623156,183.29757467772288 76.68658326144214,183.44742094873072 76.82635893012048,183.3452530745417 76.59339948234265,183.01150355510617 75.37036238136352,181.8672063472768 75.12575496119098,181.95575388138968 75.16652286457247,181.78547005380096 73.90854184640921,180.4708637369913 73.47756686800858,180.3210105344915 73.32031924073817,180.06217236271914 73.0,178.80202428365737 73.18636755825719,177.90287651261315 74.07743744607433,177.07183482284017 74.98015530631528,176.41108090079797 76.29055220019654,175.83206415295717 76.32549611738068,175.64814009537804 76.96613459879882,175.3552229181587 76.96031061263056,175.24623013965174 78.45125107854255,174.76257245719898 78.88222605697229,175.0078077928847 78.9462899051141,174.84431767297792 79.81988783436827,174.74213613702887 80.0004314063699,174.54458470730606 81.00798101813416,174.3061597600681 82.42320966350962,174.3061597600681 83.31427955135587,174.71488770002907 84.38589301123284,174.76257245719898 85.80694564280566,174.7080755889765 86.40099223470315,174.40834198850644 87.46678170838277,174.53096044842823 88.66652286454337,174.53777257823094 89.21980155308847,174.74894824447983 90.46613459879882,174.47646338398044 90.75733390855021,174.47646338398044 91.27566867991118,174.68082713755575 92.51035375325591,174.5854574666664 92.95880069027771,174.40834198850644 93.13352027611108,174.2039773692959 93.53537532355404,174.21078953371762 94.28084555652458,173.8497438246486 94.80500431408291,173.78162176549813 96.13869715272449,173.3183898501302 96.55802415875951,172.99140060730133 97.60634167387616,172.60309872248035 97.88589301123284,172.30335531356104 100.94348576359334,170.47761529422132 101.54918032785645,170.02117219169304 102.11993097499362,169.8167936331738 102.38783433998469,169.9462334623022 102.78968938742764,169.7282293894532 103.01100086281076,169.46934859317116 103.30220017259126,169.4284725827165 104.29227782573435,170.416302229969 104.58347713548574,170.3754268213379 104.92126833478687,170.0075469746589 105.06104400346521,169.97348391944251 105.63761863677064,170.4367399245457 108.29918032788555,172.01042290529585 109.5455133735959,173.1412708832504 109.99978429681505,172.95733913223376 114.5424935289484,169.6669156108037 116.67989646250498,173.29795307116 116.9943917170167,173.36607564250153 117.4952545297856,173.12083404800796 121.47303710095002,172.18073260731762 122.0437877480872,171.7311140177917 122.78925798102864,170.67517921474064 124.33843830891419,171.8401127523466 124.66458153582062,171.7038643052947 126.6447368421359,169.7282293894532 126.7495685936301,169.73504202790355 127.0,170.0279847991187" stroke="#ffd400" stroke-linecap="round" stroke-linejoin="round" stroke-width="0.5"><title>2022-07-04 21.6km</title></polyline><polyline fill="none" points="164.7403819540341,181.7604248002208 164.1525048436015,181.20679984782328 163.96817049544188,181.13104021051913 163.46498754498316,180.5832366517643 163.48491558260866,180.43171555551817 163.80874619429233,180.1344998854438 164.7802380293433,180.89793297983852 166.76307777469628,183.2406157371297 167.06698034875444,183.07744703542994 167.20647661222029,183.21730595221015 170.34514254081296,181.2942146843452 170.96789371711202,180.99117599062083 173.8773872128222,179.92469962219184 176.2089676169271,179.37105619725844 178.78466648212634,177.79168486228446 180.02518682533992,176.69600578347308 182.132576805976,175.1165576419371 182.1724328812561,177.87910512528106 182.28203708829824,178.00149326011524 182.3468032106175,175.18066896620076 182.5012455023534,175.01164804103246 183.10406864102697,174.97667812959116 183.0293384998513,174.88925325372838 182.52117353997892,174.88342492373704 182.38665928589762,174.72023143303886 182.34182120120386,173.39135212693873 182.4314973706205,173.19318316359204 182.5959036811546,173.12324100605474 186.86050373650505,173.13489803847187 186.9900359811727,173.36803816830798 187.0,174.7318881270112 186.91530584002612,174.87176826188806 183.01439247163944,174.87759659310905 182.20730694715166,174.94170819592182 180.1098809853138,176.50367688501865 178.5106559645792,177.82665298417123 176.7569886520796,178.9514490478723 175.67091060060193,179.40019546378608 174.02684749514447,179.74403764331146 171.1671740935417,180.81634521575688 171.0226958206331,180.78720669927134 170.9380016606592,180.65899704340336 170.99778577359393,179.88973283386076 170.8881815665518,179.7323820113961 169.81704954331508,180.29767731485117 169.09465817880118,179.37105619725844 169.08469415997388,179.47595748454478 168.84057569887955,179.67993163722713 168.2377525601769,180.12867211115736 168.13811237196205,180.08204989463047 164.6556877940602,181.81870078693828 164.7503459728614,181.83035597687558 164.69554386936943,181.67883831511426 164.1923609188816,181.160178544902 163.97315250482643,181.04362511474756 163.54968170492793,180.51330388996575 163.76390810959856,180.2160886606507 163.91835040133446,180.18112205751095 164.99944644336938,181.2301104844919 166.60863548296038,183.21730595221015 166.71325768061797,183.2755803959626 167.00719623581972,183.1240667138627 167.21145862163394,183.22896084589593 170.60420703017735,181.160178544902 174.00691945751896,179.91887182568098 176.1890395792725,179.40602331525588 178.57044007748482,177.9548692408498 180.18461112648947,176.60858364025626 182.0279546083475,175.22146704273837 182.12759479656233,174.91839489445192 182.33185718240566,174.6794329847071 182.37669526709942,172.97169935956117 183.4528092997498,172.92507107665006 181.20592305561877,172.94838522305508 179.61666205368238,173.23398271441692 174.00691945751896,175.41962869834242 171.092443952366,177.35458146332167 170.50954885134706,177.60518783686712 170.05618599499576,178.15884903337428 168.96512593410444,178.98058853665134 168.49681704954128,178.5784622282481 168.89039579295786,179.06800691040553 168.89039579295786,179.18456452598548 165.8015499584726,181.46904394073135 165.54248546913732,181.41076758366034 164.8848602269427,180.60654755261567 164.13755881538964,179.8664216293073 163.65928591199918,180.18694982625675 163.4500415167131,180.48999294962414 163.94824245775817,181.10772953188643 164.1525048436015,181.1426955461102 164.6257957376365,181.65552786856642 164.71048989758128,181.7837352023016 164.66565181288752,181.9818732214153 163.95322446720093,181.0261420789284 163.49487960143597,180.4841652129835 163.8635482977843,180.14615543216132 164.96955438694567,181.17183387434488 166.67340160530875,183.1881687071982 166.7830058123509,183.23478829182204 167.02712427344522,183.10658433907156 167.2264046498749,183.2114785044505 170.6291170772165,181.1426955461102 173.7976750622911,179.9829775533508 175.81040686409688,179.47012964050373 176.93634099088376,178.98058853665134 178.69000830332516,177.84996505304662 182.02297259893385,175.20398215649766 182.34182120120386,174.81348491557947 182.35178522003116,174.12573676503598 182.37669526709942,174.69108968732326 182.54608358704718,174.87176826188806 186.90035981178517,174.87759659310905 186.9701079435181,174.7552015075089 186.98505397175904,173.63614809585488 186.9701079435181,173.3097532285101 186.8555217270914,173.19318316359204 185.4007749792363,173.15821209593923 184.36451702186605,173.2398112192095 184.1951287019183,173.1523835825028 182.38665928589762,173.14655506845884 182.4414613894187,172.92507107665006 183.48768336561625,172.87844275420503 185.24135067811585,172.89592837973396 185.30611680043512,172.97169935956117 185.2363686687022,173.11741248890394 185.01716025464702,173.14072655378914 164.6457237752329,181.81870078693828 164.69056185995578,181.70797635937924 164.40658732355223,181.38745702356027 163.9133683919208,181.02031439908387 163.479933573195,180.54244255152298 163.31054525324726,180.51330388996575 161.46720177136012,182.3373543496382 161.51702186549664,182.47721514759178 162.11486299472745,182.96672514086458 162.14475505118025,183.09492941946155 162.04511486299452,183.26975295435477 161.12344312205096,184.11472554309148 158.22391364513896,185.77549592236028 158.21893163575442,185.95613809921997 158.44312205922324,186.36986472173157 158.3534458898357,186.52136946742758 157.10794353720848,187.1215572457986 156.18128978688037,185.5482355673048 154.30307223909767,186.63791129571837 153.22197619706276,185.25687476485473 152.3102684749465,183.93990469272467 152.2803764184937,183.79422022647123 150.92526985885343,181.94690774047558 147.75671187380794,178.42693561041233 147.55743149734917,178.33368825355137 147.1937448103854,178.65422538065104 145.44505950732855,180.79886210771656 144.91198450041702,180.59489210341053 144.46858566286392,181.08441884338754 144.31414337115712,181.13104021051913 143.48214779960108,180.31516058214766 143.15831718791742,180.33264384391077 142.93910877386224,180.5540980118094 142.6352061998332,180.70561877101136 142.3362856351887,180.62985844357172 141.90783282587654,180.80468981102968 140.59756435095915,181.69632114352862 138.8389150290459,182.71614318834327 138.5997785773652,182.9783800876139 137.6930528646335,183.310545032582 137.24467201769585,183.61939835786325 136.21339606973925,183.9748689072403 135.7550512040034,184.05062462910792 134.24052034321357,184.6566666497347 133.2590644893353,184.74407600580162 133.0,184.5168113912223 133.2989205646154,184.7265941456899 134.24052034321357,184.65083935438088 134.733739274845,184.38861042535063 135.36645446997136,184.237099807895 135.72515914752148,184.02731518732617 136.17353999445913,183.96904153968353 137.21477996124304,183.6135709526825 137.7129809022881,183.28723527730835 138.5898145585379,182.9550701916196 138.963465264329,182.5879380271872 141.40464987544692,181.16600620992176 141.8928867976647,180.78137899412832 142.3362856351887,180.60654755261567 142.6551342374878,180.67648019588523 143.1383891502919,180.32681609059728 143.36257957376074,180.27436628313808 143.5220038748812,180.33264384391077 144.18461112648947,181.02031439908387 144.4088015499292,181.04945279211097 144.7276501522283,180.74641275026806 144.89703847217606,180.73475733071973 145.37531137556653,181.09607418887026 146.49626349293976,181.71963157278878 146.6357597564347,181.6671830930718 147.71187378911418,180.62985844357172 147.89122612786014,180.58906437789847 149.93384998614783,182.6578681521205 153.03764184887405,180.54827028197178 153.25685026292922,180.7930344038141 154.83116523665376,183.4970227193662 155.10019374481635,183.60191614045834 158.92637697202736,182.61124807870146 159.3647938001668,182.32569926709402 159.86299474121188,181.68466592519326 160.1818433434819,181.42242286001783 160.49570993633824,181.56811360609208 161.5220038748812,182.3606645073196 163.40520343201933,180.53078708875182 164.48629947408335,181.51566498194006 164.6357597564347,181.74294199215728 164.54608358704718,181.83618357092564" stroke="red" stroke-linecap="round" stroke-linejoin="round" stroke-width="0.5"><title>1970-01-20 45.8km</title></polyline><polyline fill="none" points="49.9002849003009,238.1149421879054 47.011396011395846,239.93430636998164 45.398860398854595,240.5140926982458 43.79202279201127,241.29379692760995 42.93732193732285,241.92021897087034 42.054131054115715,242.28007562375933 41.512820512842154,242.31339558016043 41.23931623931276,242.49998701018194 39.88888888890506,243.0264384207876 39.03988603991456,243.51956612900176 38.3504273504368,243.74613702427814 37.512820512842154,244.25925044958058 36.623931623937096,244.97893496152756 35.62678062680061,245.54534754273845 35.30199430198991,245.68528398379567 34.64672364672879,245.75192027497178 33.985754985769745,246.13174578823237 32.73789173789555,246.46492417668924 32.07122507123859,246.76478321903778 31.524216524208896,246.62484917697657 31.393162393185776,246.7981008022798 31.11396011398756,246.78477377110175 30.709401709435042,247.16459305432727 30.150997151009506,247.45778532023542 28.578347578353714,247.94421493210757 27.501424501417205,248.52392750742365 25.319088319083676,249.12362455589027 23.826210826198803,249.96985400963968 23.46153846156085,250.32966466285507 22.84615384618519,250.6095159719698 22.698005698010093,250.5628741734763 22.5498575498641,250.30967523605796 22.64102564100176,250.58286351992865 21.93447293448844,250.9293445168587 21.33048433047952,249.40348122420255 20.823361823393498,248.51726417481404 20.65242165242671,248.4772841642989 20.401709401718108,248.07081928332627 19.95156695158221,247.70433230543858 19.92877492881962,247.31118935792256 19.632478632498533,246.77144673710063 18.247863247874193,245.3587651375783 17.65527065526112,244.4125172850254 17.17663817666471,243.8660859917254 16.766381766385166,243.4862468109095 16.658119658124633,243.4929106759264 16.62962962963502,243.59953242043412 16.73219373219763,243.5795408570848 16.703703703708015,243.44626360593975 15.849002849019598,242.39336340358932 15.438746438769158,242.06682748514504 15.433048433042131,241.82692246583247 15.284900284925243,241.93354703172008 14.857549857581034,241.65365716111774 13.89458689460298,240.72734609646795 13.455840455862926,240.5674061155114 13.31908831911278,240.33415958161277 13.0,239.07461336450797 13.159544159541838,238.2615595645293 14.538461538468255,237.0486237204641 15.000000000029104,236.7553829750359 15.820512820529984,236.46880547205 16.709401709405938,235.9223052217967 17.535612535633845,235.7690177141085 18.452991452999413,235.31581768175602 18.737891737924656,235.3758002263712 18.85185185188311,235.2158466470646 19.860398860415444,235.07588693173238 19.89458689460298,234.92259736259075 20.92022792022908,234.67600031578695 22.219373219413683,234.68932991056863 23.02279202279169,235.05589266128663 23.09116809119587,234.75597784223282 24.316239316249266,234.7693074200979 24.57264957265579,234.96258598182612 25.05698005700833,235.1025459491284 25.598290598281892,235.0692221756217 26.13960113961366,234.79596656735157 28.36752136753057,234.89593826899363 28.85754985755193,235.1025459491284 30.139601139584556,234.82929048553342 30.863247863249853,235.00257457567204 32.168091168103274,234.91593259025467 32.521367521374486,234.78263699512536 32.72649572649971,234.58935788076997 33.091168091166764,234.58269307312366 33.88888888890506,234.20279787133404 34.37891737892642,234.14281420881525 35.54700854702969,233.7495865607998 36.05982905981364,233.38968113625378 37.11965811965638,232.98311882908456 37.36467236469616,232.7098541630403 40.32193732194719,230.95026789373878 40.93732193732285,230.49036791756953 41.438746438740054,230.2904103578112 41.76923076924868,230.3970544687545 42.128205128217814,230.20376188457885 42.33903133904096,229.95714634617252 42.55555555556202,229.9171545461686 42.623931623937096,229.67053788448902 43.250712250737706,229.15064013376468 42.7492877492914,229.56389254221722 42.601139601145405,229.3506013154729 42.823361823364394,229.0706554831413 42.76068376071635,229.19063242094853 42.857549857581034,229.30394376324693 43.13675213675015,229.2839476588524 43.59259259261307,229.53723117842674 43.85470085471752,229.5505618617317 43.23361823364394,229.95714634617252 43.03988603991456,230.20376188457885 43.68376068377984,231.09023678454105 44.15669515670743,231.54346724709103 44.38461538462434,231.52347185436156 44.886039886041544,230.89694632960527 45.06837606837507,230.91027672489145 47.51282051281305,232.4099281637209 48.373219373228494,233.10975327196502 49.02279202279169,233.79624081696966 51.552706552727614,236.99530732291896 50.7492877492914,237.5684562299175 50.77777777778101,237.65509456412474 51.524216524208896,237.1752499836657 52.156695156678325,236.52212231558224 52.11680911682197,236.43548242189354 52.2250712250825,236.52878691785372 52.28205128206173,236.47547007995672 53.438746438740054,235.2558350799991 54.58404558405164,234.52270977266744 56.475783475762,233.52297968162384 57.89458689460298,233.2697122040081 57.962962962978054,233.05643353758205 58.13960113961366,233.1497430430827 60.5498575498641,232.50990365565667 60.948717948718695,232.20331164374875 61.7008547008445,231.13022783902125 62.05413105414482,231.28352664571867 63.153846153843915,232.18998152238782 63.39316239315667,232.22330682048778 65.56980056982138,230.18376606612946 67.0,231.51014158899488 66.94301994302077,231.73009060643017 66.86324786324985,231.65010923449154" stroke="#4dd2ff" stroke-linecap="round" stroke-linejoin="round" stroke-width="0.5"><title>1970-01-20 20.0km</title></polyline></svg>