<?xml version="1.0" encoding="utf-8" ?>
<svg baseProfile="full" height="300mm" version="1.1" viewBox="0,0,200,300" width="200mm" xmlns="http://www.w3.org/2000/svg" xmlns:ev="http://www.w3.org/2001/xml-events" xmlns:xlink="http://www.w3.org/1999/xlink"><defs /><rect fill="#222222" height="300" width="200" x="0" y="0" /><text fill="#FFFFFF" style="font-size:12px; font-family:Arial; font-weight:bold;" x="10" y="20">Over 10km Runs</text><text fill="#FFFFFF" style="font-size:4px; font-family:Arial" x="10" y="280">ATHLETE</text><text fill="#FFFFFF" style="font-size:9px; font-family:Arial" x="10" y="290">L&amp;W</text><text fill="#FFFFFF" style="font-size:4px; font-family:Arial" x="120" y="280">STATISTICS</text><text fill="#FFFFFF" style="font-size:3px; font-family:Arial" x="120" y="285">Number: 25</text><text fill="#FFFFFF" style="font-size:3px; font-family:Arial" x="120" y="290">Weekly: 1.4</text><text fill="#FFFFFF" style="font-size:3px; font-family:Arial" x="141" y="285">Total: 482.9 km</text><text fill="#FFFFFF" style="font-size:3px; font-family:Arial" x="141" y="290">Avg: 19.3 km</text><text fill="#FFFFFF" style="font-size:3px; font-family:Arial" x="167" y="285">Min: 10.2 km</text><text fill="#FFFFFF" style="font-size:3px; font-family:Arial" x="167" y="290">Max: 50.7 km</text><polyline fill="none" points="37.43253234750591,35.58795213056146 37.672088724561036,35.64399370903266 37.37264325324213,35.96623232473212 33.99489833635744,38.67020369542297 37.75593345653033,35.6299833166122 38.390757855784614,36.120346167794196 41.720591497200076,40.183282731173676 41.876303142285906,40.51952016699943 41.74454713490559,40.75768783372769 39.157338262477424,43.50358996694558 41.80443622916937,40.63159912241099 42.31948243989609,41.107933623570716 44.164066543395165,44.091990153028746 44.20000000001164,44.4282176560082 43.0022181145614,47.11800692323595 42.17574861366302,49.80774151584774 35.28850277262973,52.413369768924895 34.84532347501954,52.385352533689 33.46787430677796,48.504908149901894 38.47460258775391,44.568312196744955 37.07319778192323,43.09731212089537 32.880961182992905,39.39872539120552 29.970351201482117,41.94851973639743 29.99430683918763,42.11663631815463 33.01271719037322,40.00115376331087 36.89353049907368,43.22339848251431 37.983512014790904,44.69439715659246 33.12051756004803,48.32279063605529 34.74950092419749,52.301300792358234 34.6656561922282,52.637507437335444 25.14329020329751,56.20965029326908 24.759999999951106,56.13960920320824 22.687837338249665,50.83038667780056 21.286432532360777,47.83247300684161 21.43016635859385,47.56629981874721 26.2452495379257,45.170717031811364 26.66447319771396,45.43689503874339 29.91046210716013,54.36055308723007 18.974713493546005,58.534993440975086 14.650720887235366,60.412047869423986 14.351275415916461,60.17391557297378 13.201404805935454,56.699936885925126 13.24931608128827,56.321715960264555 18.016487985209096,54.50063711334951 18.18417744920589,53.85624936541717 16.627060998114757,49.35945621372957 16.171903881710023,49.72368813738285 11.799999999988358,51.60086753871292" stroke="#4dd2ff" stroke-linecap="round" stroke-linejoin="round" stroke-width="0.5"><title>2022-12-31 12.5km</title></polyline><polyline fill="none" points="47.80000000000291,47.99791832485789 47.80756567425851,47.90500636874276 48.17071803852741,47.73687944686753 48.503607705803006,47.96252331832147 48.42038528896228,48.16604419655414 48.034535901926574,48.39168575081203 47.962661996498355,48.51556687041739 48.575481611216674,48.25010687876784 48.726795096328715,48.28550164173794 48.77975481611793,49.19248221725866 48.881891418554005,49.537572096327494 49.69141856391798,50.61706562865584 51.27264448335336,50.54185591725036 51.87789842381608,50.32507422719573 51.91950963223644,50.29410532254769 51.870332749560475,50.18350190435376 51.945989492116496,50.050777416185156 51.91194395796629,49.48005731435114 52.263747810866334,49.555268936397624 53.54234676006308,50.01538414815877 53.74283712785109,50.3427707338451 53.962241681249,50.201198470935196 54.17786339754821,50.23216744441743 55.921751313479035,50.9798399829815 56.239509632228874,51.059472956399986 58.62647985990043,49.78975135992005 58.694570928186295,49.84284153732369 59.30739054290461,51.27625083767998 59.37926444831828,51.30279499077005 67.10381786338985,48.36513974883201 70.25113835376396,46.732528219126834 73.20931698774802,44.69720500922631 73.2963222416729,44.74587693870126 73.78809106830158,45.48037371799364 74.16637478108169,45.19719576618445 74.25338003500656,45.214894444394304 74.28742556917132,45.095428220964095 74.2382486865099,45.175072407870175 74.31390542908048,45.32993567005542 80.19999999999709,44.71490389923201" stroke="#4dd2ff" stroke-linecap="round" stroke-linejoin="round" stroke-width="0.5"><title>2022-11-27 10.2km</title></polyline><polyline fill="none" points="116.20000000001164,47.08083223520225 116.03711475411546,47.10568452840016 115.14124590165738,47.97136288472029 115.00668852459057,47.93408526420535 114.13206557377998,47.26308201855136 113.98334426232032,47.34592254838935 113.608000000022,47.93822722379264 113.21495081968897,48.21159558680665 112.02518032789521,48.50981343985768 111.67108196722984,48.52638103168647 111.0372459016653,47.49089305333473 108.53022950820741,42.785290257186716 108.39213114755694,42.71901011679438 105.31855737706064,45.01389456750985 104.75554098362045,45.597950153489364 103.67908196723147,46.95242846873589 103.31790163934056,46.782603484858555 103.01691803279391,47.06012197881137 102.84340983607399,47.14296293859661 102.2803934426338,46.56721463952999 102.04668852459872,46.60035146218797 101.68550819673692,46.869587105316896 101.4872131147713,46.79917180842676 101.17914754098456,46.927576078134734 99.51134426231147,47.996214611983305 98.95895081968047,48.29029218555661 98.81377049181901,48.468394429586624 98.1374426229595,48.73347533735432 97.87186885246774,48.93228483910934 97.09993442622363,49.197362602735666 96.76708196722029,49.23878084100943 96.33154098363593,49.45829677161237 96.05888524591865,49.483147554037714 95.93495081969013,49.599117663299694 95.70478688525327,49.686095019580534 94.92222950819996,49.75236335169393 94.45836065574258,49.63225191706806 93.66518032789463,49.80620628885299 93.3571147541079,49.67781147018468 91.92301639344078,49.607401229368406 91.58308196722646,49.785497475637385 90.11357377050444,49.82691509110009 89.90465573771507,49.67781147018468 89.51868852462212,49.53699086183042 88.76091803281452,49.52870728083144 88.06688524590572,49.686095019580534 87.939409836079,49.79792276487933 87.42950819672842,49.86004915189915 87.36577049181506,49.96359291096087 87.2453770491993,49.88489967906571 86.89127868854848,50.0919867915145 86.37429508197238,50.2659391186462 86.05206557377824,50.29907280752741 85.80065573772299,50.473024213686585 85.01809836068423,50.81264139612904 84.40550819672353,51.2516543600359 83.90268852459849,51.74864422205428 83.80000000000291,52.266335280750354 84.0018360655813,53.024222634245234 84.0726557377202,53.173313500104996 84.27803278691135,53.28098988320562 84.53652459017758,53.19402051988072 84.53652459017758,53.131899427698954 84.543606557374,53.19402051988072 84.37718032787961,53.24371732259533" stroke="#4dd2ff" stroke-linecap="round" stroke-linejoin="round" stroke-width="0.5"><title>2022-11-27 11.5km</title></polyline><polyline fill="none" points="119.80000000000291,37.835625310603064 119.83775948722905,37.87154119197112 119.95575788477436,38.41579886184263 120.3781921480113,38.41303616131154 120.42775147498469,38.752846124396456 120.48439070580935,38.80257403927135 120.84546580232563,38.78047275550853 121.9074513802916,38.60918716953165 123.10395513147523,38.53459470691996 123.1393546507461,38.80257403927135 123.00955641343899,39.79711237189622 123.04023599679931,39.84960083857368 123.69630708718614,39.722523315995204 124.77009250492847,39.374438226992424 125.01080923592963,39.35786263036971 125.4426833709731,39.233545319022596 126.6981863209221,39.30261056535346 126.89642362881568,39.35510002991032 127.07814116103691,39.32471140544294 127.5501347512618,39.33852442096395 127.8852502002992,39.39101381305227 128.02212834147213,39.36062523053806 130.30185738219006,39.32747400913286 130.45525529900624,42.733541183553825 130.5614538568043,42.79707266897822 132.06475344162027,42.81088384092618 133.44297472503968,45.550875372387964 133.77809017409163,46.13640066849621 134.07308616797673,46.338017179383314 134.9557141816622,46.713627336281206 135.2625100153091,46.702580056085935 135.66370456697769,46.57277416260149 136.4519338626269,48.63854433193774 136.56521232427622,48.86223420682836 136.71625027315167,48.892611695941014 137.60359822274768,48.555695742410535 137.9859130308032,48.32924158586866 138.04255226162786,48.343049822540706 138.18179037075606,48.60540492775726 138.57826498652867,49.16876906224206 138.79774200597603,49.889525990061884 138.98653944206308,50.09939782008769 139.41133367325529,50.79527652239085 139.6072110131936,51.35307062686479 139.75588899411377,51.44971690586681 141.06567120693217,51.10731133039735 142.1724961759901,50.32859801788618 142.236215310666,50.31755227149006 142.33769393255352,50.45838518707751 143.56015733120148,51.673382633231085 144.7779007939389,52.79720480817923 147.4729841940425,53.495772532292904 147.69010124554916,53.6973320689267 148.01577682279458,54.180516388347314 148.0299366304971,54.27163014138205 148.52316993226123,54.80726212509762 148.81344599023578,55.2490121757055 148.89132493262878,55.43399278445577 149.44827736908337,56.14629390792834 150.34034525457537,56.91102964005404 150.59286182533833,57.0352625676278 151.371651249181,57.25335894123964 152.19056012819055,58.10640190878985 152.20000000001164,58.16437468939512" stroke="#4dd2ff" stroke-linecap="round" stroke-linejoin="round" stroke-width="0.5"><title>2022-11-12 17.9km</title></polyline><polyline fill="none" points="188.0612522150186,58.02455654139703 188.0923508564738,57.98538016143357 188.10670407561702,58.02175823046855 188.17129356172518,57.915422195561405 188.1999999999971,57.755917340628 187.75983461311262,57.29698571934205 187.38904311873193,57.00315336055428 186.55655640874465,56.72330998003417 186.15945067926077,56.516223969692874 185.8699940933293,56.272755908050385 185.1427643236966,55.49196388141536 184.66671588896133,54.70275278421104 184.2791789722396,54.226975834331824 183.7983461311378,53.77917793319648 183.56630242175015,53.44892211564911 183.42037802717823,53.30898196396447 177.8345835794462,49.30917885724193 177.58579444773204,48.584167154585884 177.4446544595412,48.34622461023537 177.1671588895406,48.00750269940727 176.58346131129656,47.442023375755525 175.92799763733638,46.55458832385375 175.52371529828815,46.82334152171279 175.43998818664113,46.83174001504449 175.31080921441026,46.395014817457195 174.8371529828728,45.364762634864746 174.75581807443814,45.037201202438155 174.72711163615168,42.326964248633885 174.7510336680425,40.593722518467985 174.61228588304948,40.470515215618434 172.98558771412354,40.464914869991844 172.7750738334289,40.41731188415906 172.65307147076237,40.336106592332726 172.64589486119803,40.397710629722496 172.5358535144769,40.439713299960204 171.84450679268048,40.459314523177454 169.85419373892364,39.07599242852666 169.78003544005333,38.98638201667745 169.15567040756287,38.79595888023687 168.6461311281746,38.73435110047103 166.57448316596856,38.80716027927883 166.00753101005103,38.78755782783992 165.65826934436336,38.851965827840104 164.49087418783165,38.902371978963856 163.22300649734098,38.89117062036712 161.0987300649722,38.759554300499076 159.6514471352566,39.12639815135299 159.41940342586895,39.151600976631016 159.29740106320241,39.232809916431506 158.59409332546056,39.41482904532313 158.56299468399084,39.35602300262326 158.70174246898387,38.33949782112177 158.6706438275287,38.06505730657773 157.3740696987661,38.15467084994816 156.010513880683,38.36470139861922 155.9387477849814,38.30869341590551 155.89329592439753,37.983844769791176 155.8000000000029,37.975443458604786" stroke="#4dd2ff" stroke-linecap="round" stroke-linejoin="round" stroke-width="0.5"><title>2022-11-12 18.2km</title></polyline><polyline fill="none" points="39.286273032194,114.46632865915308 39.10901957473834,114.23506121098035 39.7975810826174,113.55720425296022 39.69531947252108,113.08668818769365 38.61134640566888,112.09779738074576 38.645433609053725,112.0100725689772 37.234223389968975,110.95736685397424 36.272964255244005,110.55063570327911 34.92311100222287,110.15985272370744 33.907312342111254,109.60956304744468 33.096036902221385,108.97154099542968 31.043987259967253,106.87400538492511 29.6123247188807,104.51321097728214 28.453359804669162,103.07755654713401 27.164863517711638,101.88913299433625 26.251326467696344,100.70866685884539 25.699113773240242,100.27795163089468 26.264961349021178,100.71664304350998 26.91943565348629,101.6578268994781 27.001244941551704,101.96091749989864 27.348934415815165,102.30388697023591 27.7238936527865,102.2241267677673 27.85342502556159,102.34376703975431 28.13975753376144,102.08853422960237 21.826807471632492,93.43403440152906 21.94270396308275,93.13090945090516 21.80635514963069,90.96911451828782 21.042801794421393,82.79999999999563 19.113466084265383,83.03934214432957 17.947683729376877,83.41430997226416 16.69327464577509,84.03659287989285 15.92972129053669,84.6429148628522 17.436375678982586,85.92734397053573 18.01585813611746,86.72511498169479 18.683967321936507,88.84714468214224 19.406616033171304,92.08591670529131 20.211074032471515,94.62259150350292 20.347422845865367,95.67552573381545 20.251978676446015,96.10626730813237 18.94303006748669,97.7973029778077 19.63840901601361,97.49419560624665 19.583869490626967,97.73349100103951 20.265613557829056,98.48327831002825 20.804191370873014,98.65078296442516 21.165515726490412,98.50720756920782 21.860894675017335,97.73349100103951 25.365059180330718,99.95890172441432 26.333135755732656,100.78842866753985 27.423926263232715,102.51126310096879 28.55562141473638,103.69170096088783 29.435071261425037,104.96782917089149 29.878204905078746,105.88503295680857 31.23487559874775,107.67155432941217 33.36873452903819,109.6414640080693 34.459525036567356,110.38315753187635 35.318522561196005,110.71013837724604 36.81154206834617,111.01319252669055 37.09105713586905,111.19661944550171 39.36126487958245,113.46150630842021 39.49761369303451,113.7326501686839 39.054480049351696,114.26696021159296 39.790763641911326,115.08835482237191 40.07027870949241,115.19999999999709" stroke="#4dd2ff" stroke-linecap="round" stroke-linejoin="round" stroke-width="0.5"><title>2022-10-30 13.4km</title></polyline><polyline fill="none" points="62.46766990487231,82.79999999999927 61.58463222296268,83.5848242515276 60.87473918453907,84.35950910227257 60.961311506311176,84.49115364600948 62.13436646612536,85.41771844914547 62.10406615350803,85.52910754416735 62.17765262699686,85.61011763211354 65.26395589768072,88.2631221580923 65.71846058689698,88.98204078340132 66.30282375878596,90.58184907825853 66.25088036571105,90.66791319735057 65.83533322127187,90.83497839816482 61.07385552460619,92.6068461254581 60.779509630592656,92.73846796597354 60.6756228444865,92.96121179398324 62.01749383175047,95.7251739109779 62.359454502686276,96.90968021749723 62.50662744966394,102.02701787033948 62.471998520966736,102.16873654544543 62.277210797023145,102.35094565389227 62.73171548625396,104.28940516370494 63.385336515522795,110.78241955226986 63.74461165082175,113.54535265442246 64.08224370569224,115.0481998731484 64.2380738848442,115.06337990747852 64.28568866179558,115.20000000000073 65.95653447174118,114.8710991169828 67.43692117380851,114.41569416516722 68.51907519577071,114.17786985788916 68.57967582100537,114.05642720286414 68.27234407876676,110.18022066331105 68.30264439139864,109.7854979542717 68.23771515006956,109.542590054225 67.67499505863816,99.91131060342013 67.57543688859732,99.51144154219219 67.38930639682803,97.65377815494503 67.20317590505874,94.99117024208317 66.66642751015024,95.06710217840373 63.74894026690163,95.84160104423063 63.68833964168152,95.83147695693333 63.59743870382954,95.58343614888872 63.08666200544394,95.66442920720874 62.15168093047396,95.65430508243662 60.81413855931896,93.02702227193367 59.97871565434616,90.88560410136779 59.420324179009185,89.72626205913548 59.51988234903547,89.55919298501976 60.57173605838034,89.09848433237858 61.36387280248164,88.65295965549012 60.74920931800443,87.5441927238353 62.718729637985234,86.03035526033273 62.710072405810934,85.9189673331166 62.29019664529187,85.49366558753536 60.91802534542512,84.39495189971785 61.22968570375815,84.00507968269085 62.398412047477905,82.8455707927751" stroke="#4dd2ff" stroke-linecap="round" stroke-linejoin="round" stroke-width="0.5"><title>2022-10-29 18.9km</title></polyline><polyline fill="none" points="116.20000000001164,102.65008654391931 115.93235963128973,102.64554984313145 115.70738656770845,100.95786382320512 115.5522327307699,100.79453584179646 113.23268286845996,101.6247799524026 110.97131569497287,102.33251632846441 110.23045612355054,102.50491188030719 109.96281575481407,101.86069337661684 109.38874655812106,100.06862616932631 109.20256195380352,99.44705623788104 109.09007542200561,98.72112373384516 108.88449658807076,98.78464331902069 108.79140428589017,98.63945555736791 103.77217766072135,100.52685808150272 102.907195019754,100.77185135069521 101.65432778644026,101.02138009226837 100.11830480067874,101.1166543193176 97.25959535496077,101.0939699987648 96.9880761403183,101.18017035299272 96.84067999522085,101.0985068638438 96.5264934754232,101.0894331332056 92.55843409555382,101.04406445125642 91.12326110379945,101.10758059253567 91.05344187717128,101.01230634530657 90.96810726684635,99.8644618579383 90.81295342992235,99.8009438737281 89.53681312105618,100.1366807235936 89.26917275231972,100.12760678927225 88.72225547707058,98.03601365037684 88.31497665509232,96.96522362766336 87.91933437089028,96.007842086663 87.44223632228386,95.44973776074039 87.59739015922241,95.34991345608432 87.43835747636331,95.47696253072354 87.6866036154679,95.91255649702725 87.63229977255105,96.007842086663 86.00318448460894,96.42981857847917 83.92024422365648,97.17847631756013 83.8426673051581,97.16940175664058 83.80000000000291,97.05143228972156 83.87757691847219,96.35268340122639" stroke="#4dd2ff" stroke-linecap="round" stroke-linejoin="round" stroke-width="0.5"><title>2022-10-15 10.8km</title></polyline><polyline fill="none" points="119.80000000000291,96.41307034214697 121.01096345516271,97.93579425098142 121.09842192693031,97.9279250372092 121.16906146181282,97.99874790113608 122.2084717608086,99.26173297056448 122.45402823921177,99.30894653323048 122.62558139537578,99.25779850429535 124.33774916945549,99.13582984347886 125.45789036547649,98.8958258256971 125.62944352161139,99.4151768298907 125.905274086399,100.744997068472 128.0177325581608,99.9699301115179 128.96632059801777,99.76927562532364 131.35460963456717,99.7141938121058 138.35128737542254,99.7220626475646 139.4176079734316,99.66698076436296 141.0355897010013,99.30107761029649 145.63725083057943,97.62495903969466 145.70452657809074,97.69578248115431 145.8256229235849,98.27416886635183 146.63293189369142,100.7371284496403 146.74730066445773,100.89056621653435 146.95585548173403,100.87482903881755 148.9539451827295,100.28468006386174 149.55269933555974,101.5869296578494 150.54501661130053,101.33120448646878 150.79057308970368,101.3705469350607 150.90157807308424,101.45710017536476 151.64497508305067,101.05187190373908 152.20000000001164,100.92597484198632 152.14281561461394,100.94171199804259 152.1327242524858,101.06367473140563 152.00490033223468,101.12662308234576 152.01835548173403,101.35087571596159" stroke="#4dd2ff" stroke-linecap="round" stroke-linejoin="round" stroke-width="0.5"><title>2022-10-15 11.2km</title></polyline><polyline fill="none" points="155.8000000000029,107.93904466060485 156.01021000512992,107.87762580792878 156.0765921120037,107.9164166765895 158.33358374594536,107.06623887382375 158.695919412683,106.94986288902692 158.7982584941201,106.95632823311462 158.97804336692207,106.8625806101245 162.73693016901962,105.97681303716854 162.83926925047126,106.01560631420762 163.06884070343222,107.024214263678 163.1186272835912,107.15998587323156 163.1933071538224,107.20201029702548 166.00071709066106,106.56193974482267 168.14154003756994,105.61474008094228 168.4457913607621,105.56948066029872 169.2368448010966,105.69232750348965 169.44982072734274,103.91100002332132 169.5300324398122,103.92069900171373 170.4427864094323,104.5349613720573 170.74150589038618,104.64164779051134 171.77319446815818,103.74611692048893 173.34147174320242,102.26536218958245 173.7784872801858,102.04550603393 174.97613112514955,101.67368688226088 175.24165955265926,102.20393195215729 176.1350520744454,102.96048523167883 176.40887826532708,102.66627228973994 177.75864777190145,102.0519724140031 178.6962950315792,101.29862994377618 178.85671845654724,101.06906696359874 178.94246201126953,100.1313974708919 178.8179955608648,99.07082631065168 178.70182687381748,98.42735210820138 178.45289397302258,97.82266803528546 178.34225712822808,97.41522710712161 178.3007683114265,96.9980795822703 180.5522281031299,96.32222384336637 181.03349837800488,96.08938969977316 181.216049171926,95.92446444235065 181.5728529964108,95.77247371183876 181.93518866313389,95.50406270481835 183.580911729543,94.93812816361606 183.6749530476227,94.81847209092484 183.62516646747827,94.52418083942575 183.75793068122584,94.4400971045743 183.83814239370986,94.30750305295987 184.1147345057252,94.1199299980999 184.31388082636113,94.05201533248328 184.86153320812446,93.63158785511405 184.83110807579942,93.36639216575713 184.86983097148186,93.29847582661023 184.78132149564044,92.82629139405617 185.13259347788699,92.65164598966658 185.1104661089339,92.49640479279151 185.1823800580314,92.44142334656863 186.02322007853945,92.51257578757577 186.27491890045349,92.50287319173549 186.5100221956527,92.41878389880003 186.59299982925586,92.30558640850904 186.70363667405036,91.87219785777779 186.73682772749453,91.10566724565797 186.86129417789925,90.64962092795031 187.34533037390793,90.50083838804858 187.8017073587107,90.22591222437222 188.1999999999971,90.06095533939515" stroke="#4dd2ff" stroke-linecap="round" stroke-linejoin="round" stroke-width="0.5"><title>2022-09-30 16.0km</title></polyline><polyline fill="none" points="11.799999999988358,151.99062392915948 11.930876041442389,151.93321472527896 12.127190103492467,152.07673766655353 14.883766725572059,155.42554156544065 15.31729361275211,155.15764182165003 15.767180005059345,155.34899886255153 21.6566018681915,151.7896915559686 26.597172431240324,150.03869052901427 30.490734662977047,149.1105505376472 31.701338045997545,148.45989001202543 34.71966675083968,146.50788031188858 40.24099974753335,142.08699649381015 40.968997727904934,141.85733427848027 44.077303711208515,141.85733427848027 44.19999999998254,141.32145350460632 43.98732643277617,141.71379509728285 40.658167129498906,141.6755179437605 40.55183034588117,142.05828874883446 40.273718757904135,142.17311967398564 40.281898510525934,153.33972971739422 40.07740469582495,153.66504299186636 36.58465034083929,154.60270411098463 36.42923504169448,154.44961724607856 35.93027013383107,152.5934183670688 35.603080030326964,152.33507838621153 35.39858621562598,152.33507838621153 28.11860641252133,154.25825830016402 28.02044938149629,154.65054370302823 28.527594041952398,156.55453890023637 28.44579651602544,156.85113755495695 22.940823024488054,158.32454869704816 18.36016157537233,158.67854649539368 18.10658924517338,158.57330405159155 16.470638727594633,156.3823198797545 16.11890936634154,155.97090644633863 15.88169654129888,155.92306755340542 15.80807876799372,155.60733022484055 15.170058066170895,155.01412377500674 13.59954556930461,153.08139187077177 13.362332744261948,153.12923226844578 13.149659176968271,153.38756997828023" stroke="#4dd2ff" stroke-linecap="round" stroke-linejoin="round" stroke-width="0.5"><title>2022-09-26 10.4km</title></polyline><polyline fill="none" points="47.79999999998836,154.8488222304295 48.23325161574758,154.55319352057268 50.91219077332062,157.67835586796718 51.00606195675209,157.712140737749 51.352663249359466,157.43341513411724 51.52596389569226,157.63612476066191 53.09289057273418,156.85906839431118 55.028081123222364,155.44852281823114 56.94882995315129,154.37581576858065 61.10082460439298,152.88920576544479 64.61738355242414,152.04452864362247 67.99674615552067,149.97503187812254 70.1702250947128,148.11666247809626 73.18132382436306,145.81053476632223 73.48459995543817,145.45573996659368 73.66512146199238,145.6669275375898 74.71214620012324,145.73450744214642 76.61123244930059,145.67537502878986 76.67622019167175,145.44729245210328 76.64733675058233,145.53176755660388 78.0265210608195,145.54866256676905 80.13501225761138,145.46418748018186 80.19999999998254,143.27625155375426 80.02669935367885,142.97213215399097 78.06984622240998,142.9552365977579 78.05540450187982,142.66801159395982 73.35462447066675,142.63422034898394 71.2028081123135,142.78628083850344 69.30372186313616,143.2171173168972 65.05063516821247,144.81372631517297 64.78346333853551,144.76304080668342 62.32114998882753,143.33538574675185 60.876977936248295,142.28785926224373 59.866057499399176,145.25299937208183 58.79737018048763,147.91392865032685 57.02825941608171,149.24013642946375 56.284510808996856,149.50199650406284 55.67795854690485,150.2622305574987 54.139915310865035,151.41101493021415 53.87274348115898,151.79112376222474 49.54744818358449,155.0515384266546 49.215288611507276,155.0599849236678 48.875908179121325,154.59542626047914" stroke="#4dd2ff" stroke-linecap="round" stroke-linejoin="round" stroke-width="0.5"><title>2022-09-25 10.5km</title></polyline><polyline fill="none" points="97.19607843137783,146.1128900187141 97.00392156864109,145.98903521316424 96.78431372549676,145.73444255479444 96.05098039215954,146.44087247089374 95.95882352941408,146.41564322786144 95.50980392157362,146.05784352593037 95.40980392157508,146.08766039355942 95.25098039216391,146.36059750466302 95.096078431372,146.514266465334 95.09215686275274,146.60371505974217 95.42941176470777,146.99590838162112 95.60196078431909,147.32617093346926 94.74117647059757,147.85595659129467 94.82745098039595,148.06694986845469 94.96078431372734,148.25271398717086 94.98431372550112,148.4086628813966 93.78235294118349,149.04620697749124 93.68431372549094,149.17921740880593 93.69019607843802,149.30993376114384 94.21568627451052,150.91974416973426 94.20588235294417,150.9908299060553 93.35098039216246,151.35542727522443 93.1745098039246,151.46778623415958 90.46078431372734,152.71974665073867 89.15098039215809,153.1806149650729 88.62941176471213,153.4763909591038 88.18235294118494,153.92807209198327 87.92941176470777,154.32471831990551 87.76470588236407,154.70989383786946 87.37058823529514,155.88371987487153 86.47647058824077,155.7484580049786 85.84313725490938,155.750750586074 85.75098039216391,155.7209470129128 84.25294117647718,155.67280269280855 83.8117647058898,155.56046553010856 83.80000000000291,155.62465826578045 84.03529411764612,155.70489891808757 83.9098039215678,155.7324099305206 84.18431372549094,155.69802115952916 84.19607843137783,155.75304316692927 84.40196078431472,155.77138380502765 85.91176470588834,155.84245363113405 86.42941176471504,155.82640562624874 87.5411764705932,156.02585855765938 87.78235294118349,156.16570377164862 88.17058823529806,156.51645911057494 88.76078431373026,157.504504104847 88.91960784314142,157.62370834615467 89.01372549020016,157.59849211899018 90.05686274510663,156.95432219187933 90.68823529412475,156.71590569436194 91.77058823530388,156.72507560812664 92.10392156863236,156.6883959298084 92.51372549020016,156.58294150901565 93.26078431373026,156.2161395291514 93.71176470589853,156.07629464046659 93.70980392157799,155.93415628832736 94.69607843137783,155.42290902793502 94.7352941176432,155.42749425873262 94.72352941177087,155.56275813108732 94.66862745097751,155.6590471531381 94.84313725490938,155.43437210311276 95.1372549019652,155.2188652755267 96.71764705882379,154.7144792194813 97.57058823529951,154.03583218990025 99.18823529411748,153.4580483791924 100.83333333334303,153.07285061520088 100.92352941176796,153.08660779608726 101.047058823533,153.02240754391823 102.2450980392241,152.75643304472396 103.1784313725584,152.7105750425344 103.68823529412475,152.735796955747 103.8607843137288,152.70598923698344 104.40980392157508,152.51109160392662 104.82549019608268,152.2817980269174 105.08823529411893,152.19007991681792 105.49607843137346,152.13963479080303 105.78431372549676,152.05250202383468 112.91960784314142,150.62393327860627 114.51372549020016,150.19970130809634 116.12745098039886,149.6791458645621 116.09411764706601,149.3603854756384 116.02745098040032,149.13105855385766 116.07254901962006,149.0645532924318 116.00588235295436,148.69991736844895 116.03137254902686,148.66781076665575 116.20000000000437,148.63799745095275 116.20000000000437,148.69991736844895 116.11372549020598,148.76642374935 114.82745098039595,148.06694986845469 114.38627450981585,148.18849941025837 114.1549019607919,147.69312341786645 113.74313725490356,147.82614215813192 113.64509803921828,147.9087051032766 113.60784313726617,148.0417225195797 113.69215686275857,148.39719608918494 113.13333333333867,148.55543728562225 112.998039215694,148.24812723799187 112.60392156863236,147.06471349524327 112.49607843138074,147.06930049505536 111.77647058824368,147.3559860548812 111.74117647059757,147.33305134974944 111.63725490195793,146.96609276450363 111.14117647059174,147.12205092295517 111.0901960784322,147.0280174618547 110.92156862744741,146.03949466390804 110.90000000000873,144.8032042689174 110.85882352941553,144.21599894641804 110.79803921569692,143.92927181043524 110.4568627451008,142.94519539611247 110.35294117647572,142.47722727988184 110.25294117647718,142.3762916538435 108.72941176471795,142.7066246794766 108.30980392157653,142.76397364951117 104.19019607843802,142.7525038676631 103.58235294117912,142.79379505387442 103.207843137272,142.8786711337325 102.53725490197394,143.11035819811332 100.95882352942135,143.75035215338357 99.98431372549385,144.36280177016306 99.7862745098173,144.514191139564 99.75686274510372,144.60594175733422 99.75098039216391,144.82614165361883 99.80980392157653,145.18396170870437 99.80784313726326,145.41103675351405 99.70588235294417,145.4247988009065 98.62156862745906,146.06243073900623 98.54901960784628,146.0005032804802 98.33333333334303,145.6472840199931 97.68039215687895,146.14729400565557 97.047058823533,145.4981962392685 96.84901960784191,145.6472840199931 96.79215686274256,145.73444255479444 97.00196078432054,145.98444798453784 97.25294117647718,146.1656427763337 97.1254901960856,146.24591846526528" stroke="red" stroke-linecap="round" stroke-linejoin="round" stroke-width="0.5"><title>2022-09-17 41.4km</title></polyline><polyline fill="none" points="120.98924829221505,135.24610389972077 120.99968208627251,135.31535257484575 129.73276770680968,134.35400682341424 130.68572089677036,133.91406088389704 131.07177127666364,133.8000000000029 132.22644448495703,134.14625520436311 132.28556931791536,134.20735873879312 132.32034863140143,134.47621313140553 132.42816450326063,134.54138966944447 132.55337003187742,134.4965808114539 132.58814934537804,134.27253573465714 132.68553142317978,134.21550586934245 135.5513468558056,133.98738555833188 137.29726839363866,134.9039321367054 141.0082211443805,136.72881286248594 142.4063495471928,137.85709961121393 144.79568838482373,138.5291679730617 145.65125949698268,138.8468689102192 145.7416857120843,139.00164533484713 145.55735535052372,139.29490421307128 145.81124433911464,139.49855489032416 145.90514848555904,139.49448188738825 146.2842430027522,139.06274111971652 147.48760724991735,139.4822628760012 149.0318087694468,141.35987189005755 149.1118011905055,142.47173144103726 149.43177087474032,143.0093222840078 149.94302678323584,144.4713683026239 150.68382616083545,146.92291911020584 151.24725103958917,147.39529293214582 150.6699144354352,148.4866170762616 150.7220834056934,149.00376355750632 151.17769241255883,149.9525259599468 150.96206066885497,151.69932748134306 150.11692335073894,152.82717334011613 149.90476953836333,152.92081969880383 149.8699902248627,153.17325656942558 148.2075390394457,156.03137741502724 147.2058948105696,157.63948562998485 147.31718861378613,157.9000335223718 146.59725682425778,158.46183389010912 145.47040706677944,159.1253990828227 145.02523185392783,159.4551419318086 143.53667723602848,162.93151745904106 140.9421404487366,165.092898874409 139.49532100702345,166.17150882746864 139.34229202760616,166.20000000000073 138.62236023810692,165.2027963704968 138.1945746820129,165.084758306617 138.2502215836139,165.0440554417437 138.1945746820129,164.6940090209173 138.60497058134933,164.41722586844844 138.6953967964364,164.28697428205123 138.44150780788914,163.56244175937536 137.9789429382945,161.73069737242622 137.8815608604782,161.69813223623714 135.5826482379489,162.28837103795013 135.16529647591233,162.2476652053556 134.88706196790736,162.12147684968295 133.98975567953312,161.45389283339682 133.210699057061,160.53798121803266 130.99177885560493,158.46590487722642 128.10857376622153,155.396257866596 126.76609226502478,151.89069716740778 126.76957019638212,151.53238718752982 127.0338929790014,150.77096735614032 127.08606194924505,150.42486243120584 126.529592933206,149.2358664017047 126.01138116202492,145.60349930301527 124.74889208187233,143.18851755473952 124.11243064476002,139.16864024919414 122.68300085980445,136.54144072421695 122.44650152798567,135.1157531125791 120.99620415494428,135.27869152714993 120.89882207712799,135.20944278571187 120.75274896041083,134.86319719926178" stroke="#ff8d00" stroke-linecap="round" stroke-linejoin="round" stroke-width="0.5"><title>2022-09-10 28.4km</title></polyline><polyline fill="none" points="186.52614724222803,134.62223509613978 186.54629446448234,134.58819405838403 186.3604923037201,134.41275104356828 186.27318767398538,134.3891839765747 186.07171545148594,134.145656302102 186.00455804397643,134.12470757288975 185.15837470948463,134.9128912790893 184.52037933823885,134.3996582313448 184.27413551072823,134.8264803383954 184.1107191524934,134.98359091502607 183.86447532498278,135.09618621414302 182.46983982923848,135.40778448514175 182.21464168073726,135.52561474082358 181.31473242024367,136.04929797245313 180.48198056724505,136.88716807461788 179.01794908374723,137.76428292273158 171.72689320950303,146.40547439820693 170.7083391957567,148.6562437435805 170.417323763264,149.0985220380353 170.02333363927028,149.47275134797383 168.9958253045188,150.17932273759834 168.63093672377,150.39129022344423 168.33768271101872,150.44624446066155 168.0578601797606,150.4096083160639 167.59447406801337,150.2054916611778 167.39524042575795,150.5901716469034 167.3415144997707,150.61372328864854 167.01020462276938,150.4724131021885 166.49756974552292,150.32063459641176 165.98941202877904,149.9202489021809 165.8327114112617,149.88099505432547 165.1141271510278,150.72886432592895 164.7649086320307,150.99578012630627 164.24555801402312,151.24437558851423 163.78217190229043,151.3438130747545 162.6695975180337,151.37259753573744 162.6225873327785,151.3542801553449 162.49722683877917,151.16063844835116 162.06518085052085,151.31764535392358 161.85027714652824,151.3438130747545 161.63537344253564,151.30717825784268 161.489865726282,151.43278311878748 161.24138331854192,151.5008188191823 161.0958756022883,151.45371720035473 160.96379936752783,151.54530359915952 160.76456572528696,151.6028720193608 160.6884539967723,151.64997335454973 160.69293115728942,151.72585865061774 160.6324894905265,151.7860433752976 160.1019459712843,152.15761539356208 159.7863061560347,152.5474983496988 159.5803567730327,152.92690875783046 159.38112313079182,153.0054067374531 159.296057081272,153.1859511466373 159.24680831578735,153.45545701956326 159.31844288378488,153.59936672182994 159.31396572329686,153.7197269217795 159.16621942678466,153.9709115425212 159.2109910317813,154.30582040882655 159.26471695779765,154.462807381522 159.80197621778643,155.29743808473359 160.0213570822816,155.7997727927941 160.0482200452825,156.00645963761417 159.94748393404006,156.3361085063534 159.99225553902215,156.46430410441644 160.19148918127757,156.69714747422404 160.24969226778194,156.95353427213013 160.23626078627422,157.15236302408084 160.42206294703647,157.40874511289257 160.40415430504072,158.06015298050988 160.34595121853636,158.16741126899979 160.1758191195404,158.26682097561024 160.31237251477432,158.33483791357867 160.28327097152942,158.62521581873625 160.18701202078955,158.83187910267952 160.16014905778866,158.99668529678456 159.92733671178576,159.16933822972896 159.88480368703313,159.31583068438886 159.7415345510235,159.50156094487284 159.7101944275346,159.50156094487284 159.66542282253795,159.39692434954668 159.5937882545404,159.4204676219997 159.01175738954043,160.04827997316534 159.08339195753797,160.20523057685568 158.74760492003406,160.52174460537572 158.63567590754246,160.67346064097546 158.4767367097811,160.75978141927044 158.4744981295371,160.88010685122936 158.30884319102915,161.05797815928418 158.03125924004416,161.17307067868023 157.90813732628885,161.27769977816934 157.917091647294,161.37186559023758 157.78277683228953,161.4869566526686 157.62159905428416,161.7432939172959 157.59473609129782,161.9499312117623 157.5365330047789,161.9263903410756 157.55891880729178,162.06501959120214 157.4805684985331,162.13825737273874 157.4537055355322,162.26903858749756 157.50519288129,162.43120633591025 157.67084781979793,162.5567548321742 157.68875646179367,162.67707154466734 157.78277683228953,162.85492996344328 157.5723502887995,163.07725119317547 157.96410183253465,163.6238913893685 158.03349782028818,163.67096988581943 158.09170090679254,163.7912811929782 158.27078732679365,163.98220880856024 158.45882806778536,164.01882489564196 158.501361092538,164.12605741113657 158.43644226528704,164.19928910653107 158.60209720379498,164.3954443682578 158.77670646329352,164.33529025290954 158.7834222040401,164.3771366094661 158.71626479654515,164.4163675046202 158.70507189528143,164.4791368078004 158.810285167041,164.59421345108967 158.95579288329463,164.62559789750594 158.984894426525,164.6935973951986 158.96698578452924,164.81651909102948 159.11249350078288,165.0100541435495 159.219945352801,165.05451468556748 159.40798609377816,165.0257461086585 159.40798609377816,165.13297427121324 159.4908135630394,165.34219861970087 159.79302189679584,165.72925901242706 159.8310777610459,165.74495052259954 160.00344844028587,165.64818605179607 160.0929916502937,165.71618274637513 160.11761603303603,165.836484134079 159.98777837853413,165.91755647935133 159.85122498328565,166.06923951055433 159.8915194277797,166.20000000000073 159.84898640304164,166.07446994336715 160.1198546132946,165.8103317081186 160.08403732928855,165.7135674923411 159.8959965882823,165.47557822079216 159.74377313128207,165.12512832381253 159.6475141805422,165.05974533233893 159.47290492104366,165.1957417610447 159.4147018345393,165.13297427121324 159.40798609377816,165.02051545472204 159.21546819228388,165.04405338873585 159.13040214279317,165.0100541435495 158.97370152529038,164.80605769382782 158.9759401055344,164.64129010582838 158.80580800653843,164.57590583900674 158.71626479654515,164.4843675758948 158.77670646329352,164.32744405319136 158.64015306804504,164.3928289749747 158.58642714204325,164.3823673990737 158.44091942578962,164.19928910653107 158.501361092538,164.1129802999203 158.4655438085465,164.02667119298712 158.26854874654964,163.9743624971543 158.09841664753912,163.80174301819352 157.57682744928752,163.0694045954715 157.7850154125481,162.85231440770622 157.6842793012911,162.67707154466734 157.67084781979793,162.54890806978256 157.52310152328573,162.44166873487848 157.45818269604933,162.2821166710346 157.48728423929424,162.14610426507716 157.56339596779435,162.06240395215173 157.54772590604261,161.93423730045288 157.60369041228842,161.94208425735633 157.63055337530386,161.73806257103934 157.78277683228953,161.4895723524296 157.92828454854316,161.35617131305844 157.96857899305178,161.22800101096254 158.32227467253688,161.05274666844343 158.4677823887905,160.88272261500788 158.49240677153284,160.75454986550176 158.62896016678133,160.67607642654912 158.83043238928076,160.43803880901396 159.27143269854423,160.02473729690792 159.19084380954155,160.08228602161944 159.10353917979228,159.9619567176087 159.5915496742964,159.4283153745164 159.66094566203537,159.4047721095194 159.7101944275346,159.49894503536962 159.7594431930338,159.49371321554645 159.88256510678912,159.33675810724708 159.9362910327909,159.17195417400762 160.16462621829123,158.98622144402543 160.287748132032,158.62521581873625 160.33251973702863,158.30606153951885 160.18925060104812,158.29821343171534 160.18029628002841,158.2615888957298 160.3347583172872,158.19095570922764 160.40863146552874,158.0758493443991 160.4198243667779,157.4165935023466 160.23626078627422,157.13928223415678 160.22059072453703,156.7599363230329 159.85794072403223,155.38901027486463 159.26247837753908,154.44972517178212 159.21322961203987,154.27442289491592 159.17069658728724,153.9709115425212 159.32739720479003,153.68047909474262 159.31844288378488,153.58890058985344 159.24680831578735,153.48685557136014 159.30724998253572,153.15455221347474 159.39007745178242,153.00017354654665 159.58707251377928,152.92952536115445 159.78406757577613,152.55011499309876 160.09075307003513,152.16808213026889 160.66382961402996,151.76510957460414 160.699646898036,151.63950639891118 160.95708362678124,151.5479203484374 161.09139844177116,151.45895071798077 161.2301904172782,151.503435573155 161.3980839360447,151.46156747637724 161.5189672695269,151.41969930882806 161.64208918328222,151.30194470815331 161.84579998602567,151.3438130747545 162.13905399877694,151.30194470815331 162.50618115978432,151.15278807694267 162.61139443152933,151.03764901046816 162.70317622178118,151.00624735398742 162.95389720976527,150.96176160581672 163.15089227177668,151.0114809661609 163.41952190178563,150.97746246723182 163.81351202577935,150.81783657900633 164.2209336312808,150.7969019599841 164.3328626437724,150.74456533499324 164.42464443402423,151.16325523826526 164.54776634777954,151.12400336050268 164.44479165627854,150.34156961802546 164.57239073053643,150.34942024656812 165.14099011402868,150.0929650936032 165.36037097852386,150.16623826543946 165.47229999103,150.01184097189434 165.93568610277725,149.67949098910685 166.2423715970217,149.34975352739093 166.3050518440141,149.1194580928386 166.4818996837712,148.90486269197936 166.67665616552404,148.88654348623277 166.74157499277499,148.8394368949448 166.75276789402415,148.56726372388403 166.84678826452,148.42332477972195 167.0796006105229,148.19040362479063 167.17585956127732,147.92607471605152 167.35718456152244,147.69838319565315 167.50940801852266,147.32936145697568 167.842956475768,147.04146833783489 167.83624073500687,146.86611361555697 168.23918518002029,146.64102961431126 168.24813950102543,146.57559783467514 168.19665215526766,146.44473375654707 168.3645456740196,146.10971856410106 168.2682867232652,145.88724503270168 168.48766758776037,145.45537894018162 168.57049505700707,145.37423962138018 168.54810925450874,145.25645626594996 168.6801854892692,144.9633041478137 168.74510431652016,144.9318947863576 168.99134814401623,144.44242708664933 169.06745987251634,144.40839956049604 169.1323786997673,144.30893421579276 169.1547645022656,144.2330261837924 169.0965614157758,144.1257075343874 169.17043456401734,143.8168366292357 169.27340925551835,143.65192939798544 169.2443077122589,143.49487387038607 169.27340925551835,143.38493440799903 169.03835832927143,142.62581526660142 168.81450030427368,142.11274224403496 168.7988302425074,141.9897078459162 168.4742361062672,141.3431127611566 168.14740338976844,141.0027927711326 168.08472314277606,140.80645218585778 167.98846419202164,140.65199649706483 167.2385398082697,139.80639995684032 167.2116768452688,139.70953411166374 166.844549684276,139.34301126445462 166.7930623385182,139.35348342117504 166.7908237582742,139.40322610504154 166.86245832627174,139.37704575757198 166.7930623385182,139.25923385110946 166.30952900451666,138.79059871216486 166.26699597976403,138.77750821768132 166.20207715251308,138.8351063415812 166.22446295502596,138.76703581710353 165.74316820126842,138.27744614098992 165.55736604052072,138.19366511835142 165.38275678102218,137.60980823628233 165.45662992926373,137.2825281705118 165.81927992976853,136.94477060116697 166.14387406602327,136.71174137176422 166.64979320252314,136.48656497400225 166.80201665952336,136.37921271373125 167.01915894377453,136.36350258777384 167.35718456152244,136.2430579571319 167.43105770977854,136.1618884186173 167.54970246301673,136.12261273980585 167.637007092766,136.16974354689592 167.67730153726006,136.0964289192816 167.95936264876218,136.07286345709508 168.07129166126833,135.98907496522588 168.40707869877224,135.91052299622243 169.82409999701486,135.92361500838888 169.85991728100635,136.05453474875867 170.30539475075784,136.05453474875867 170.53372993627272,135.93670701361407 171.05755771476834,135.98907496522588 171.41125339425344,135.9838381750542 171.60153271551826,136.06500829804645 172.10297469151556,135.9550358092947 172.22609660525632,135.95765420756652 172.38727438326168,136.03096924665078 172.9111021617573,135.98907496522588 173.06780277924554,135.92885181130805 173.12824444600847,135.8555364694439 173.29389938450186,135.85291806036003 173.5983462985023,135.7062867089262 173.76623981725425,135.69057615540987 174.2296259290015,135.53608851414901 174.44900679351122,135.38945528379008 174.84971265825152,135.23758423555955 174.9504487695085,135.1197526071992 175.64217006675608,134.71912087013152 175.93766265975137,134.50701908688825 176.1100333390059,134.4363180880955 176.3786629690003,134.23992536389778 176.564465129748,134.17184218865987 176.6875870435033,134.21373954945557 176.83085617949837,134.13518193971686 176.9002521672519,134.04091247850738 177.00994259949948,134.01996366053572 177.00098827849433,133.79999999999927 177.05695278474013,134.01472645326612 177.41064846425434,134.41275104356828 177.5069074149942,134.40227679434065 177.70614105724962,134.22421387856048 177.9255219217448,134.3996582313448 178.865725626747,134.94955037481486 179.42984784975124,135.41825830838025 179.60221852899122,135.38159990761778 180.33199569048884,134.83695440789052 180.40586883874494,134.81862478334733 181.28786945724278,136.0362060268326 181.56097624773975,135.94456221342807 182.46088550823333,135.45229820328495 183.01157624972984,135.3397045259062 184.06147038697964,135.0542903487949 184.2293639057316,134.92336531198453 184.59649106673896,134.4048953570691" stroke="red" stroke-linecap="round" stroke-linejoin="round" stroke-width="0.5"><title>2022-09-03 50.7km</title></polyline><polyline fill="none" points="43.66862471861532,197.62628115777989 43.62694822595222,197.6750339801656 42.758687962268596,197.01686564855117 41.883481616474455,196.740594094088 41.67509915318806,196.93967232634895 41.48755493621866,196.8787301201046 40.82420409476617,197.48408507182103 40.0636081037519,198.04880355952628 39.29953907171148,197.46783405699534 39.03211491048569,197.15500067941684 38.841097652490134,197.13062394540975 37.64637152962678,197.92692257519593 34.43380855397845,200.3116568178557 34.31919819916948,200.2507199693755 33.100160788948415,198.84914573395872 32.85010183299892,198.94664820784965 32.14160145781352,199.5479079865181 31.00939007397392,198.87352137567723 30.908671883371426,198.91414741076733 30.651666845325963,199.18634073588328 30.50927216206037,199.2391541423567 29.911909100643243,198.6338268926811 29.69310751420562,198.69882893440445 29.620173652045196,198.82477007675334 29.37011469611025,198.96696119205444 29.179097438100143,198.88570919071935 28.821374209452188,199.03602525784663 27.845449673070107,199.6941589399612 26.699346124980366,200.34009398069247 26.5465323185781,200.5350911007481 25.844978025517776,200.80321052227737 25.615757315899828,200.98195576214857 24.823903955402784,201.25007206029113 24.532168506804737,201.28663322846842 24.184864401322557,201.4775632073106 23.844506377950893,201.5141241586898 23.73336906421173,201.63193143162061 23.479837067221524,201.72130222493433 22.705348912000773,201.77004984261657 22.326787437021267,201.65630530499038 21.47936541965464,201.8350465698386 21.184156929986784,201.70911531083766 19.784521384935942,201.64005605779676 19.56224675741396,201.78629903475667 19.39206774572085,201.82692198496443 18.075785185967106,201.82285969187433 17.481895165605238,201.5750590002135 16.735191338826553,201.5588097185937 16.057948333153035,201.68880377873575 15.922499732027063,201.81879739836222 15.384178368520224,201.88379404299485 15.328609711650643,201.99347563109768 15.224418479992892,201.90410547185456 15.012562975665787,201.98128880346485 14.90489870296733,202.0950323775105 14.390888626861852,202.27783384357463 14.043584521379671,202.3103317907844 13.817836852831533,202.46875888924842 13.050294779721298,202.80185988545054 12.439039554083138,203.23651171430902 11.959759888515691,203.69553119683042 11.897245149535593,203.81333177141641 11.827784328430425,204.24391010489126 12.025747668551048,204.99944154029072 12.088262407545699,205.13348588625377 12.20981884446519,204.95882194904698 12.095208489641664,205.15379559479334 12.286225747666322,205.25940590591563 12.341794404535904,205.23097238921036 12.28969878872158,205.25940590591563 11.820838246319909,204.19110358812395 11.80000000000291,204.34139886800403 11.85904169792775,204.52418963123637 11.893772108480334,204.50387958942883 11.824311287375167,204.23984806772933 11.928502519018366,203.77271092448427 12.393890020350227,203.31775450057467 13.019037410223973,202.84654394543395 13.828255975997308,202.497194453048 14.085261014042771,202.32251851389447 14.37352342158556,202.3103317907844 14.880587415580521,202.131592740403 15.193161110495566,201.93254145419633 15.33555579376116,202.00160018070164 15.384178368520224,201.90004318694992 15.853038910921896,201.85535802451705 15.995433594172937,201.73755143771632 16.710880051439744,201.59537059252762 17.41938042662514,201.58724595688545 17.982013077504234,201.81879739836222 18.64189087790146,201.85942031415834 19.468474648936535,201.83910886164085 19.836617000750266,201.64818068225577 20.475656554830493,201.72536452878194 21.21541429948411,201.72130222493433 21.50367670704145,201.84723344393933 22.288583985427977,201.68474147101733 22.719241076207254,201.80661051522839 23.48331010826223,201.7497383427799 23.743788187362952,201.64005605779676 23.854925501116668,201.526311134734 24.0772001286241,201.542560430109 24.563425876302063,201.29069557833282 24.837796119623818,201.2785085274445 25.393482688392396,201.09976466941225 25.6470146853826,200.99820528811324 25.900546682387358,200.80727292334268 26.400664594271802,200.6325892890527 26.57431664702017,200.5391535302042 26.678507878648816,200.39290579858425 27.456469074939378,199.95415925807902 28.842212455783738,199.05227560820276 29.16867831493437,198.91821001190328 29.384006860331283,198.97914897740338 29.74173008897924,198.69882893440445 29.970950798597187,198.6825784343091 30.523164326295955,199.2675921003538 30.665559009532444,199.2391541423567 30.953821417089785,198.99539935184657 31.20735341409454,199.21884130231774 32.7598027655622,200.11259608773616 33.714889055641834,200.864146493077 33.90590631363739,200.77883610685603 37.594275913827005,198.0934931567317 37.68457498124917,198.17068415650647 39.11199485475663,200.74227445467477 40.80336584843462,200.27915717737778 41.088155214936705,200.05572140366348 41.511866223605466,199.41790667086752 41.60911137313815,199.43821940547423 42.453060349449515,200.10040866252893 42.71006538750953,199.970409219437 43.842276771349134,198.853208341985 43.92910279773059,198.8775839811169 44.15832350734854,199.13352725667573 44.19999999999709,199.11727694076035" stroke="#ffb700" stroke-linecap="round" stroke-linejoin="round" stroke-width="0.5"><title>2022-08-08 21.7km</title></polyline><polyline fill="none" points="66.05001871957211,199.68433919873496 65.43137401720742,199.08129617830855 65.12811681017047,198.91811889829842 64.6125795582484,198.34344792085176 64.43669037814834,198.2937847654175 62.319955073005985,200.36541655223118 62.077349307364784,200.4221726857577 59.35409958814853,198.2228373366088 58.07435417448869,197.0734785199893 56.588393860001815,195.9666699064619 55.9940097341896,195.32811815517925 55.46634219388943,195.51968431985006 47.79999999998836,201.08905365268583 48.012280044931686,201.07486476509075 49.13433171098586,200.22352600799059 49.346611755900085,200.21643147288705 53.28289030326414,205.76412849536428 53.634668663406046,205.72156479387195 54.61115687008714,205.27464429569955 56.78854361662525,203.8983941949191 57.36473231000127,203.635910295372 58.783976038947,205.85634975580615 59.03871209284989,206.5018950248559 59.97274429051322,208.06962192773062 61.701310370641295,207.18999686997995 61.42837888433132,206.3529235917449 61.00381879444467,205.6009674928282 61.03414451517165,205.48746395234775 62.45338824408827,204.72131002460083 63.49052789216512,203.9764297504953 63.6421564957127,204.01190042753296 64.41242980156676,204.99797773138562 64.67323099961504,205.08310602672282 68.87031074505649,201.77011672402296 70.39266192438663,200.9329757236119 73.31606140022632,199.06001220780308 77.17349307375844,197.6552552008652 80.19999999998254,196.90320146227896 79.42972669412848,195.9524799337014 74.57154623739189,193.93037807227665 73.52834144514054,194.63279932388832 73.0977162111667,194.78889193483337 72.57611381504103,195.44163891149947 71.2842381130904,196.42784238496824 71.16900037435698,196.66197488944454 67.0204417820787,199.76237966347253 66.1713216023636,198.83298276831192 65.84380381880328,198.6059525593082 65.37678771992796,199.06001220780308 66.03788843128132,199.76237966347253 66.03182328716503,199.9255548867659 65.94691126915859,199.8900820459312" stroke="#4dd2ff" stroke-linecap="round" stroke-linejoin="round" stroke-width="0.5"><title>2022-07-31 12.6km</title></polyline><polyline fill="none" points="84.26831494865473,200.59425019710943 84.30734119437693,200.58704228168972 84.30734119437693,200.54619738440852 84.07523773298453,200.3323611335236 83.98896918981336,200.29151577766424 83.80616203880345,200.08969058676485 83.80000000000291,200.03923400845633 83.96432103461848,199.909488006002 84.38539368581405,200.3227504681763 84.88657284138026,200.8921753639297 85.63012552302098,201.83638008341768 86.74134651959321,203.3763345171592 87.07820464055112,203.6838324008022 87.36165842525952,203.86880958925212 87.68208444276388,204.01775116468525 89.71966527197219,204.64233422368306 89.80182578928361,204.61350769162163 89.84085203499853,204.5174189870013 89.84906808673259,203.97210788255143 89.88604031952127,203.9192576516998 91.40600988970255,203.69103933247607 91.67508558387635,203.6742231550088 91.69357170027797,204.0946238534125 91.72438189425156,204.12345104455017 92.30566755420296,203.98171700220337 93.76812476226769,203.8519935435179 94.0926588056318,203.80394762989636 94.27546595664899,203.7462923992789 94.32681627995771,203.6958439523205 94.43567896539025,203.722269343285 94.80334728033631,203.6694185305878 94.840319513125,203.61896991273534 94.72118676303944,203.34510403026252 94.7499429440868,203.2922523391353 95.0498288322633,203.24420524038396 95.29836439711653,203.38354154648914 95.64549258274201,203.36912748553368 96.806009889704,203.05441820573105 96.93541270445712,203.41957665882364 96.63347280335438,203.5228769970363 96.64579688094818,203.6646139051445 96.67249904907658,203.722269343285 96.71563332065853,203.729476262748 97.88025865348754,203.37393217353747 97.86793457589374,203.22738873178787 97.72415367060603,202.79495994439094 98.24176492964034,202.6820466263871 98.85591479650611,202.45862074547222 98.82510460251069,202.4273889954584 98.87440091290046,202.31927875958718 98.73267402054626,201.61775093457436 98.83742868011905,201.51924700323252 99.24823126664705,201.36548391405813 99.33860783568525,201.3702890263703 99.50087485736003,202.08623938809615 99.59125142639823,202.2544123708085 99.8336249524582,202.23279020000882 100.06162038799084,202.1535087307675 100.46215290985856,201.91326016254607 100.86473944465979,201.76190225833125 101.52407759605558,201.5480774664302 102.94956257133163,201.1708760101592 103.41171548117563,201.01711055978012 103.40555344238237,200.97386383908452 103.51030810194789,200.98107163159148 103.45279573982407,200.59905547277413 104.15526816280908,200.353985115682 104.20456447319157,200.37320641584301 104.34423735261225,200.7456158917921 104.58250285279792,200.723992282954 106.63856979840784,200.1425497389082 107.15207303157513,199.9815692101056 107.19726131609787,199.93832051513164 107.28558387220983,199.9455286366774 108.37215671358717,199.67161840727204 108.56523392925737,199.5947307307706 108.73982502853323,199.6067444474047 108.87333586916066,199.54907854952398 112.11251426398667,198.8714932670282 112.15564853557589,198.81142267292125 111.64625332826836,198.12900955342957 111.54766070750338,197.72531888647063 111.56820083682396,197.6820658887682 111.68117154812353,197.626798049434 112.14332445797481,197.48502341082894 112.22548497528624,197.4874263781894 112.58699125143175,198.11939795439685 112.8889311525345,198.4822329922281 113.07790034234495,198.67446112344078 113.28946367440221,198.82343680447593 115.33731456828536,198.28279458394718 115.776873335868,197.98483514018335 115.87341194371402,197.95840306499485 116.20000000000437,197.70849828605787 115.8857360213151,197.95359722983267 115.77892734880879,197.98483514018335 115.36401673641376,198.27318305009612 114.91213389122277,198.4125498922931 113.4044883986353,198.77778307072913 113.3038417649368,198.82824245530537 113.01217192849435,198.61439000746213 112.62190947128693,198.167455908826 112.1926207683573,197.4754115388405 111.57230886269099,197.67725999504728 111.50452643591416,197.54750047945709 111.53533662990958,197.6916776731705 110.52476226702856,197.93917971823248 110.33784709015163,197.42735211777654 110.25157854698045,197.35766577631512 108.62480030430743,197.83104808908502 107.9243818942632,198.0953689389844 107.8607074933534,198.06653408689272 107.65941422594915,197.73252771139596 107.52179535946198,197.72051300190833 105.8600988969265,198.316434920358 104.38120958539366,198.57354155771282 103.66641308482212,198.8787017276245 102.40524914416164,199.2198995753406 100.01232407760108,200.05365018514385 100.14172689236148,200.88737015034167 100.10064663371304,200.97866903434078 97.47767211868631,201.95650509257393 96.9867630277804,202.10786169856874 96.28223659186187,202.2399975925582 95.74408520350698,202.27603452101175 94.12757702548697,202.2712296005211 93.85850133131316,202.31207139221442 93.73115252948628,202.26642467902275 91.56006085964327,202.2424000562387 89.83879802206502,202.30246156548856 89.34994294409262,202.42498655136478 86.8810193990139,203.31387350038494 86.80296690757677,203.2658264474121 86.52156713579461,202.8910559426622 85.84990490681957,201.86040513612897 84.53739064283582,200.27469708034187 84.0711297071175,199.81097665662492 83.96021300875145,199.8542255944012 83.81643210346374,199.98877731791436 83.80205401293642,200.07046904636263 84.00129326740716,200.3131397987545 84.223126664132,200.49093652396004" stroke="#ff4e00" stroke-linecap="round" stroke-linejoin="round" stroke-width="0.5"><title>2022-07-24 38.4km</title></polyline><polyline fill="none" points="152.19372761591512,200.42159288746916 152.20000000001164,200.35189141340015 151.73897976962326,199.98137069660515 151.43476914141502,199.62185175668492 151.7421159616788,199.26966631942196 151.71075404123985,199.0899036219671 151.4880844061554,198.84777279954506 151.06156228826148,198.45155507488016 150.48763914432493,198.06267030738672 149.9764398412517,197.87189505120114 149.6283225244406,197.8021884454247 149.01676507599768,197.46465973807062 148.59965153422672,197.13446542781094 147.8814635562885,196.41169578170593 147.56470815990178,195.98976744040556 147.0064659761847,195.05783792744478 146.49526667312603,194.43776069202795 145.89939018488803,193.87637941477806 145.52304713967897,193.38103543357283 145.08711644564755,192.98842442793466 143.51274803986598,191.98302641034388 143.12072403446655,192.36831012370385 142.9733230084239,192.40133424244414 142.78515148583392,192.3536327274851 142.35235698382894,191.89863035768212 142.22690930210229,191.84358934290503 141.28291549705318,192.72790438703305 139.758726163971,193.9130712795777 138.7551447101141,194.80100255007346 137.15882296001655,196.5767967765678 136.78875229891855,196.91800300468822 136.62880650469742,197.1528096387592 135.9294356790342,197.820532302645 136.25873584357032,198.40019318607665 135.30219727035728,199.09357225777057 134.67182266963937,199.20729977498922 133.42361823638203,199.7245718346203 133.3232600909978,199.69155469993711 133.23858290581848,199.58516594072353 133.18840383311908,199.15227037780642 133.02532184687152,199.08256634918143 131.89942890329985,199.17428214717438 131.15301519699278,199.2953466286017 131.22828380602004,200.2124880444644 131.12165327655384,199.29167801417861 130.53832155649434,199.37972465328858 129.87658503533748,199.398067674927 128.9075016939314,199.55581725999582 129.07058368019352,199.9630279838966 129.08940083245398,200.24550468254893 128.86359500532853,200.29319532644513 128.78519020424574,200.39591341333653 128.51547768851742,200.37757092016182 128.37121285451576,200.29686383479202 127.38958474494575,200.28952681770534 126.55222146936285,200.3628969186284 126.10060981512652,200.45094083459117 125.48905236666906,200.37757092016182 125.5110057109705,200.3152063707057 125.04057690447371,200.52797907744753 124.8774949182116,200.17580285411896 124.80536250121077,200.13911762492353 124.34434227085148,200.25651022159218 123.75473816669546,200.5646638947801 122.64452618334326,201.23232078181172 121.954563933803,201.56614439942496 120.80358145388891,202.35850406185273 120.05089536348532,202.17875739449664 120.01012486690888,202.47955741429178 119.9003581454017,202.66663903604422 119.96621817830601,203.01512171611466 119.91603910560661,203.18019123581325 119.94112864194904,203.66439062297286 119.80627238409943,203.80378010115237 119.80000000000291,203.89548339938847 120.26729261447326,205.06192817358897 120.4742812893237,205.97891693562633 120.68754234827065,206.42639864101875 120.71263188462763,206.61712679185075 120.9415739037795,207.05726467199565 121.2740102603857,206.99857994430204 121.36809602168796,206.88854581200576 121.45590939890826,206.86653894362462 121.7224857225956,206.88487800157964 121.40259413418244,206.95823413636026 121.29282741264615,207.07193583839398 121.23010357178282,207.035257910753 121.43709224664781,207.72112873327205 121.54372277611401,207.78347995312288 122.02669635080383,207.81282166483652 122.26504694609321,207.94119136147128 122.45321846869774,208.27495034744788 122.82328912981029,208.55002401865931 122.96441777175642,209.1405081261364 123.09927402963513,209.41557492790162 123.64497144517372,209.24686754833238 123.81746200757334,209.23953242625066 124.127945019849,209.0891620813527 124.91199303069152,209.90702217959188 125.06880263285711,210.15641065709497 125.17229697029688,210.050054025829 125.28833607590059,207.26632820678424 125.41378375762724,207.38002889795825 125.5768657438748,207.28099928466327 126.48636143645854,207.07560362902223 127.05401219632768,206.88487800157964 127.43035524150764,207.46805498331742 127.58089245960582,207.85316647787477 127.6342077243462,207.8678373073344 128.75696447586233,207.589090485606 130.3093795373279,207.0059155406998 133.27621721035393,205.45073437205792 137.84564901751583,205.17196810638052 137.9585519310931,205.3223554493561 139.347885006282,204.79049484518328 140.65567708837625,204.12290653157834 140.76544380988344,204.2732984280192 141.06024586198328,205.09860819001915 143.64133191366273,203.51766425059395 144.94598780370143,202.28513818782812 146.3666827993584,201.5037819899444 148.6310134546511,200.93884681225245 149.0732165327645,200.5206421093244 149.29588616784895,200.15379172126995 150.12384086729435,200.78110352616568 150.33396573418577,200.67471811364885 151.40340722099063,199.63652607218683 152.14041235117475,200.3592284172737 152.19372761591512,200.4546093262179 152.12473139095528,200.48762573350177" stroke="#ff9200" stroke-linecap="round" stroke-linejoin="round" stroke-width="0.5"><title>2022-07-17 27.7km</title></polyline><polyline fill="none" points="167.95092783504515,191.27774172592035 168.1068041236722,191.19959903060953 168.07711340204696,191.09540865435702 167.3051546391216,190.33134184877417 166.9562886597414,190.18373721329408 166.17690721643157,189.31546927143063 163.3117525772832,192.0157523964881 163.46762886596844,192.33700202467298 166.26597938142368,194.64648932308774 166.42185567007982,194.90695373294875 163.54185567007517,197.155595396609 161.84206185565563,198.08455290895654 163.10391752573196,197.57232530195324 163.86845360821462,198.87459260524338 163.9723711340048,199.34340377134504 163.0371134020388,199.94243636082683 160.85484536079457,200.91476979835716 160.67670103089768,200.8626807993278 160.42432989689405,200.4633307076001 156.20824742264813,193.22260258915776 155.79999999998836,192.99686217730778 155.96329896902898,193.10105013690918 155.9558762886154,193.30942565898295 158.79876288655214,198.10191650056368 159.0437113402004,198.34500639716862 159.49649484531255,199.3347221074364 161.22597938141553,202.28643486496003 162.9035051545943,206.56622966052964 165.2490721649374,211.21037906187848 165.1971134020423,211.88744804111047 165.7686597938009,212.00029232766974 165.98391752576572,212.5992324809704 165.82804123708047,211.89612837634195 167.85443298963946,211.870087367839 173.32494845357724,210.3857362184208 174.14886597936857,210.26420920377132 179.35216494841734,208.7711483294188 176.71711340203183,209.57844624657446 176.93979381441022,210.07323781697778 177.11051546386443,210.142682009071 179.48577319583273,209.63921028441837 179.70103092776844,209.67393257153162 180.05731958759134,211.33190467477107 181.80164948449237,217.1215234978663 182.19505154635408,216.90452866281703 186.03999999997905,215.9844641868185 187.50226804122212,215.74142656475306 187.93278350509354,215.7848261929248 188.11835051540402,215.56782782250957 188.19999999998254,197.71123479973903 187.9476288659498,197.728598470414 187.78432989685098,197.46814302416897 186.8490721649432,197.68518928682897 178.9290721649304,200.53278303717525 178.2239175257273,198.76173025753087 177.97154639169457,196.1311253755557 174.06721649481915,196.32212923165207 168.7228865978832,189.8711618137022 166.89690721643274,187.96963578558643 164.20989690718125,185.6425941384732 162.27999999999884,184.93057565817435 161.99793814431177,184.8784765021337 161.77525773196248,185.03477387091698 161.84206185565563,185.277902518872 163.80907216493506,185.78152385247085 164.08371134020854,185.95518566376995 164.15051546390168,186.23304379647743 162.81443298966042,187.71783222785598 161.1072164947982,190.50499402085552 163.33402061852394,192.14598888396722 166.08783505152678,189.4370273369641 166.295670103078,189.41966191006213 166.80783505152795,189.94062311662856" stroke="#ffbf00" stroke-linecap="round" stroke-linejoin="round" stroke-width="0.5"><title>2022-07-09 20.5km</title></polyline><polyline fill="none" points="43.843572044876055,245.83285005015568 43.90647109577549,245.90233891094977 42.714883520282456,247.0345809544524 42.554141501299455,246.99370636838285 41.74693701467186,246.3356195733686 41.55823986195901,246.45007025688756 41.173856773079024,247.0345809544524 40.81044003451825,247.28391499198187 39.454616048329626,247.60273321783097 39.265918895602226,247.56594663386568 39.09469370148145,247.6885684440349 38.392320966362604,247.86841306088172 36.7010353753285,248.80440901373004 35.34870578085247,250.12457432819792 32.354012079376844,251.9024346002334 27.36052631579514,254.11340637203466 26.14098360655771,254.97160529783287 20.02929249353474,257.251869778338 19.103278688533464,257.5542603328795 18.697929249348817,257.73405899965655 17.78938740293961,258.34291645036865 17.24775668680377,256.557179807216 17.107981018110877,256.69611880112643 16.45802415876824,256.9208719976923 16.346203623819747,256.7696745367248 16.077135461600847,256.58169848951366 15.996764452123898,256.4427590839441 16.07014667817566,256.50405594214317 16.073641069888254,256.32016507567823 16.03170836927893,256.4509320039979 16.01773080242856,256.28747327442034 15.856988783445559,256.0381973797448 14.682873166515492,254.68145446191193 14.658412424498238,254.5343348951901 14.09930974978488,253.9867182482485 14.025927523733117,253.97854480663227 14.011949956868193,254.06845256923407 14.095815358072286,254.00715184472574 13.956039689393947,253.80690213306298 13.222217428818112,253.12032380836536 13.075452976700035,253.17345232883235 13.099913718731841,253.07128203227694 12.345125107836793,252.28251824219114 12.086540120799327,252.19260632069563 11.992191544442903,252.0373034176264 11.80000000000291,251.2812145701937 11.911820534951403,250.74172590756643 12.446462467647507,250.24310089370192 12.988093183783349,249.84664854047514 13.774331320106285,249.4992384917714 13.795297670410946,249.388884057229 14.17968075927638,249.21313375089449 14.176186367578339,249.1477380837896 15.070750647122622,248.85754347431794 15.32933563417464,249.00468467572864 15.367773943056818,248.90659060378675 15.891932700615143,248.84528168221368 16.00025884382194,248.72675082438218 16.604788610886317,248.58369585603577 17.453925798094133,248.58369585603577 17.98856773080479,248.8289326200138 18.63153580672224,248.85754347431794 19.484167385671753,248.82484535338517 19.840595340821892,248.6450051931024 20.48006902502675,248.71857626905694 21.199913718708558,248.72266354693784 21.531880931841442,248.849368946685 22.2796807592822,248.68587803038827 22.454400345115573,248.68587803038827 22.765401207929244,248.80849628253054 23.506212251944817,248.75127447999694 23.775280414163717,248.6450051931024 23.88011216567247,248.52238642157317 24.12122519413242,248.52647372022693 24.56850733391184,248.30984629478917 24.883002588438103,248.26897305929742 25.683218291625963,247.9910339100752 25.934814495252795,247.79484036437862 26.563805004319875,247.56185923348676 26.73153580672806,247.382013188133 28.566091458153096,246.2865691765328 28.92950819671387,246.0127033150129 29.271958584999084,245.890076179905 29.432700603982084,245.96774007737986 29.673813632456586,245.83693763367046 29.806600517680636,245.68160915590124 29.981320103543112,245.6570835496277 30.575366695426055,246.2497813379814 30.75008628127398,246.22525609280274 30.952761000866303,246.00452818479607 31.03662640208495,245.98409035166696 31.382571182053653,246.26204395472814 32.97950819673133,247.2062537431775 33.72730802415754,247.8847625299495 33.99987057807448,247.77440347933953 36.72549611736031,245.8001493664815 38.00793787748262,247.978771842696 38.19663503021002,248.01964538549873 38.49715271787136,247.8725004288026 40.883822260570014,247.30843956439276 41.22627264884068,247.0386684106743 41.673554788620095,246.40510752884438 42.60306298533396,247.10406765140578 42.79874892148655,247.02231858317464 43.98684210528154,245.83693763367046 44.04974115618097,245.8410252167414 44.19999999999709,246.01679087946832" stroke="#ffb800" stroke-linecap="round" stroke-linejoin="round" stroke-width="0.5"><title>2022-07-04 21.6km</title></polyline><polyline fill="none" points="80.15415815121378,251.07073053097702 80.19999999998254,250.95752738018564 79.90966829113313,250.6298327647819 79.40540795470588,250.25447113233167 78.96227008328424,249.7659014462115 78.78908976574894,249.7361104744159 76.9044804275909,251.60099488872947 76.95541581514408,251.74398666885827 77.5666404653166,252.24445503708193 77.5972016978194,252.37552935014537 77.49533092280035,252.55426655763586 76.55302625370678,253.4181550552894 73.58858670017798,255.1161041331943 73.58349316145177,255.30079024119186 73.81270240526646,255.723778720494 73.72101870772894,255.87867511464356 72.44763401980163,256.49229894703603 71.50023581198184,254.8837562330118 69.57997170253657,255.99782589692768 68.47467379341833,254.58587290607102 67.5425562018354,253.23942059242836 67.51199496933259,253.09047477292916 66.12655242884648,251.20180757886556 62.887061782734236,247.60303588406168 62.68332023266703,247.50770105296397 62.311491903761635,247.8354138579307 60.52365980189643,250.0280613175746 59.97865115548484,249.8195251556499 59.52532620655256,250.32001064547512 59.367426505254116,250.3676756979803 58.51680553369806,249.53353144783978 58.18572551483521,249.55140609719456 57.96160980977584,249.7778178304943 57.650903945905156,249.93273059662897 57.345291620789794,249.85527426689077 56.90724728812347,250.03401948228566 55.56764659646433,250.9456112458065 53.76962741703028,251.98826345242196 53.525137556978734,252.25637089633165 52.598113504151115,252.59597182434663 52.139695016492624,252.91173926902775 51.08533249486936,253.27516753043528 50.61672692972934,253.35261915150113 49.06829114918946,253.97222828166196 48.06486401509028,254.06159442004355 47.79999999998836,253.82924216498213 48.10561232510372,254.04372120371772 49.06829114918946,253.96627053404518 49.572551485616714,253.69817123880057 50.21943090707646,253.54326884144757 50.586165697226534,253.3287878948322 51.04458418485592,253.26920970900028 52.10913378398982,252.90578140912476 52.61848765917239,252.5721402471645 53.5149504794681,252.23253917527836 53.896965885855025,251.85718823703428 56.39279987424379,250.4034244608374 56.89196667188662,250.01018681971254 57.345291620789794,249.83144152860405 57.67127810092643,249.90293971320352 58.165351359843044,249.54544788136627 58.39456060365774,249.49182391063368 58.5575538437115,249.55140609719456 59.234994497703156,250.25447113233167 59.46420374151785,250.28426182958356 59.790190221654484,249.9744378069263 59.963370539218886,249.9625214642947 60.45235025938018,250.33192691238582 61.59839647854096,250.96944351206548 61.741015563573455,250.9158208987974 62.841219933965476,249.85527426689077 63.02458732901141,249.8135669682415 65.11293821723666,251.92868384692338 68.28621285958798,249.77185963866214 68.51032856467646,250.02210315225966 70.11988681025105,252.78662407842785 70.3949379028345,252.89386568740883 74.30677566418308,251.88102011708907 74.75500707433093,251.58907889064358 75.2643609495135,250.9336951088917 75.59034742962103,250.66558136104504 75.91124037100235,250.81453360094747 76.96050935384119,251.624826877327 78.88586700201267,249.75398505938938 79.99116491116001,250.76091084001382 80.14397107373225,250.99327576820724 80.05228737619473,251.08860469186038" stroke="#4dd2ff" stroke-linecap="round" stroke-linejoin="round" stroke-width="0.5"><title>2022-06-30 16.1km</title></polyline><polyline fill="none" points="85.75287671230035,258.02293407329125 85.90620174349169,258.0418128683741 85.81743462019949,257.7963882204276 85.00239103363128,256.95627565515315 84.64732254049159,256.7674852248456 83.96139476960525,255.9084837171904 84.3083935243194,255.42706166928838 84.55855541719939,255.37042361030035 86.30968866747571,257.0695497213819 88.91621419676812,260.2883609305354 89.08567870489787,260.3827524666485 89.56179327523569,260.1373342648658 89.89265255292412,260.3072392457543 95.38814445829485,256.95627565515315 100.89977584057488,254.94563702058804 104.43432129512075,254.11493739351135 108.29165628890041,251.7643930828126 110.90625155664748,249.5837121924269 113.89205479447264,247.33689423967735 114.05344956411864,246.84598529592768 114.38430884183617,246.45892056769662 114.45693648816086,243.69277489951492 116.19999999998254,243.61724753335875 112.56054794517695,243.6550112244513 109.98630136984866,244.1176151410982 100.89977584057488,247.65787170195836 96.17897882938269,250.79206144336786 95.2348194271326,251.19798759273544 94.50047322540195,252.09479462270974 92.73320049812901,253.42582841738476 91.97464508094708,252.77447393815964 92.61215442090179,253.56742658721487 92.61215442090179,253.7562237969687 87.60891656289459,257.45656836131093 87.18929016188486,257.36217372604733 86.12408468246576,256.0595175492417 84.91362391033908,254.8606794596708 84.13892901621875,255.37986328930856 83.79999999998836,255.87072521920345 84.60697384807281,256.8713200110069 84.93783312579035,256.9279571160878 85.70445828148513,257.7586305222794 85.84164383562165,257.9662976640466 85.76901618929696,258.2872368405151" stroke="#4dd2ff" stroke-linecap="round" stroke-linejoin="round" stroke-width="0.5"><title>2022-06-24 10.4km</title></polyline><polyline fill="none" points="121.555800169328,256.92641695045313 120.74648602877278,256.16425680748216 120.49271803555894,256.05996061246697 119.79999999998836,255.30581462093687 119.82743437762838,255.09721972310217 120.27324301438057,254.68805113954295 121.61066892463714,255.73904834235145 124.34038950040122,258.9641548291838 124.75876375954249,258.7395249954279 124.95080440305173,258.93206489369186 129.27171888228622,256.28459839254356 130.12904318372603,255.86741341355082 134.13446232004208,254.39922492615733 137.34428450465202,253.63703935255035 140.89017781539587,251.46276256595593 142.59796782385092,249.95437151575607 145.499153259967,247.77998899169324 145.55402201524703,251.5831116214904 145.70491109229624,251.7515999779862 145.79407281964086,247.86824927666748 146.00668924639467,247.63556284891092 146.83657917019445,247.58742074008478 146.73370025400072,247.46706533413817 146.0341236240347,247.45904163362138 145.8489415749209,247.23437767353607 145.7872142252163,245.40494632736954 145.9106689246546,245.1321326025136 146.13700254022842,245.03584517081617 152.0079593564733,245.05189308458648 152.18628281119163,245.37285064605385 152.19999999998254,247.25042512137588 152.0834038949979,247.44299423000484 146.71312447078526,247.45101793221693 145.60203217613162,247.53927860066324 142.71456392886466,249.68959764653118 140.51295512277284,251.51090221114282 138.0987298899272,253.05937780824024 136.60355630819686,253.67715457396116 134.34022015240043,254.1505125820695 130.40338696018443,255.62672872658004 130.20448772225063,255.58661453772947 130.087891617266,255.41011185441312 130.17019475021516,254.3510871168328 130.01930567313684,254.13446659634064 128.54470787468017,254.91269298848783 127.55021168501116,253.63703935255035 127.53649449619115,253.78145405020769 127.20042337002815,254.06225961848395 126.37053344619926,254.68002820404217 126.23336155797006,254.61584468944056" stroke="#4dd2ff" stroke-linecap="round" stroke-linejoin="round" stroke-width="0.5"><title>2022-06-23 11.8km</title></polyline><polyline fill="none" points="177.94017094018636,250.86896531274033 176.20683760684915,251.9605838219868 175.23931623931276,252.30845561894603 174.27521367520967,252.77627815656524 173.76239316239662,253.15213138252147 173.23247863247525,253.3680453742527 172.9076923077082,253.38803734809335 172.74358974357892,253.49999220610698 171.93333333334886,253.81586305247038 171.42393162394,254.11173967739887 171.0102564102708,254.24768221456543 170.50769230769947,254.55555026974616 169.97435897435935,254.9873609769129 169.37606837607746,255.32720852564307 169.1811965812085,255.4111703902745 168.78803418805182,255.45115216498016 168.39145299146185,255.6790474729387 167.64273504274024,255.87895450601354 167.24273504274606,256.0588699314212 166.91452991453116,255.9749095061852 166.83589743591438,256.07886048136425 166.66837606839545,256.0708642626596 166.42564102564938,256.2987558325949 166.09059829059697,256.4746711921398 165.14700854702096,256.76652895926236 164.50085470086196,257.1143565044549 163.19145299146476,257.474174733532 162.2957264957222,257.9819124057831 162.0769230769365,258.1977987977116 161.7076923077111,258.36570958318043 161.61880341880897,258.33772450408287 161.52991452992137,258.1858051416348 161.58461538460688,258.34971811195646 161.16068376069597,258.55760671011376 160.79829059829353,257.64208873451935 160.494017094039,257.1103585048877 160.39145299146185,257.0863704985786 160.24102564102213,256.8424915699943 159.9709401709406,256.62259938326315 159.95726495729468,256.38671361474917 159.77948717950494,256.06286804225965 158.94871794873325,255.21525908254625 158.59316239315376,254.6475103710145 158.305982905993,254.31965159503306 158.0598290598282,254.0917480865428 157.99487179488642,254.09574640555365 157.9777777777781,254.1597194522583 158.03931623931567,254.1477245142487 158.02222222223645,254.06775816356094 157.5094017094234,253.43601804214995 157.26324786325858,253.24009649108484 157.25982905982528,253.09615347949875 157.17094017095224,253.16012821903132 156.9145299145457,252.99219429666846 156.3367521367618,252.4364076578786 156.07350427351776,252.3404436693054 155.99145299146767,252.2004957489662 155.8000000000029,251.44476801870405 155.895726495728,250.9569357387154 156.72307692308095,250.22917423227773 157.00000000001455,250.05322978501863 157.49230769231508,249.88128328322637 158.02564102564065,249.55338313307584 158.52136752138904,249.46141062846436 159.07179487180838,249.18949060905288 159.24273504274606,249.22548013582127 159.31111111112114,249.12950798823658 159.9162393162551,249.04553215903798 159.9367521367676,248.95355841755372 160.55213675214327,248.80560018946926 161.3316239316482,248.81359794634045 161.81367521367793,249.03353559676907 161.85470085471752,248.8535867053397 162.58974358974956,248.8615844520573 162.74358974359347,248.97755158909422 163.0341880342021,249.0615275694763 163.35897435896914,249.04153330537156 163.68376068376529,248.87757994041021 165.02051282052707,248.93756296139327 165.31452991452534,249.0615275694763 166.08376068375946,248.89757429132078 166.51794871795573,249.0015447454025 167.30085470086487,248.94955955415207 167.5128205128276,248.8695821970723 167.63589743590273,248.75361472845907 167.85470085470297,248.74961584387347 168.33333333334303,248.52167872279824 168.6273504273704,248.48568852528842 169.3282051282149,248.2497519364806 169.63589743590273,248.0338086817501 170.27179487180547,247.78987129744928 170.41880341881188,247.62591249782054 172.19316239317413,246.57016073624254 172.56239316239953,246.29422075054026 172.86324786324985,246.17424621468672 173.06153846155212,246.23823268125125 173.2769230769336,246.1222571307444 173.40341880341293,245.97428780770133 173.53333333334012,245.95029272769898 173.57435897436517,245.80232273069123 173.95042735044262,245.49038408025808 173.64957264957775,245.7383355253296 173.56068376069015,245.61036078928373 173.69401709402155,245.4423932898826 173.6564102564298,245.5143794525684 173.71452991454862,245.58236625794598 173.882051282053,245.57036859530854 174.1555555555824,245.72233870705531 174.3128205128305,245.7303371170383 173.94017094018636,245.97428780770133 173.82393162394874,246.1222571307444 174.2102564102679,246.65414207072172 174.49401709402446,246.9260803482539 174.63076923078916,246.9140831126133 174.93162393163948,246.5381677977639 175.04102564102504,246.54616603493196 176.50769230769947,247.4459568982311 177.02393162393128,247.865851963179 177.4136752136692,248.27774449018034 178.93162393162493,250.19718439374992 178.44957264958066,250.54107373794977 178.46666666667443,250.5930567384712 178.91452991453116,250.30514999019942 179.29401709401282,249.9132733893457 179.2700854700961,249.86128945313612 179.3350427350524,249.91727215070932 179.36923076923995,249.8852820479733 180.06324786324694,249.15350104800018 180.75042735044553,248.71362586359828 181.88547008547175,248.11378780897212 182.73675213675597,247.96182732240413 182.77777777779556,247.83386012254778 182.88376068376238,247.88984582584817 184.32991452992428,247.5059421933911 184.56923076923704,247.3219869862478 185.02051282051252,246.67813670341275 185.2324786324898,246.77011598743047 185.89230769230926,247.31398891342906 186.0358974358969,247.33398409228903 187.34188034188992,246.11025963967404 188.20000000001164,246.9060849533962 188.1658119658241,247.03805436385665 188.11794871796155,246.99006554069274" stroke="#4dd2ff" stroke-linecap="round" stroke-linejoin="round" stroke-width="0.5"><title>2021-08-07 19.9km</title></polyline></svg>